<mxfile host="65bd71144e">
    <diagram id="CBfeY_Y5fliTrcWrlwx-" name="Page-1">
        <mxGraphModel dx="1007" dy="691" grid="0" gridSize="10" guides="1" tooltips="1" connect="1" arrows="1" fold="1" page="1" pageScale="1" pageWidth="1100" pageHeight="850" background="#ffffff" math="0" shadow="0">
            <root>
                <mxCell id="0"/>
                <mxCell id="1" parent="0"/>
                <mxCell id="2" value="ATS" style="text;strokeColor=none;fillColor=none;html=1;fontSize=35;fontStyle=1;verticalAlign=middle;align=center;fontColor=#1C1C1C;" parent="1" vertex="1">
                    <mxGeometry x="493" y="20" width="115" height="47" as="geometry"/>
                </mxCell>
                <mxCell id="3" value="Attendance Tracking System" style="text;html=1;strokeColor=none;fillColor=none;align=center;verticalAlign=middle;whiteSpace=wrap;rounded=0;fontColor=#000000;fontSize=17;" parent="1" vertex="1">
                    <mxGeometry x="444" y="62" width="219" height="30" as="geometry"/>
                </mxCell>
                <mxCell id="5" value="RFID Card Reader +&lt;br&gt;Raspberry Pi" style="text;html=1;strokeColor=none;fillColor=none;align=center;verticalAlign=middle;whiteSpace=wrap;rounded=0;fontColor=#000000;" parent="1" vertex="1">
                    <mxGeometry x="100" y="332" width="110" height="30" as="geometry"/>
                </mxCell>
                <mxCell id="9" value="" style="image;html=1;image=img/lib/clip_art/computers/Server_128x128.png;" parent="1" vertex="1">
                    <mxGeometry x="370" y="232" width="80" height="82" as="geometry"/>
                </mxCell>
                <mxCell id="14" value="" style="endArrow=classic;html=1;entryX=0;entryY=0.5;entryDx=0;entryDy=0;exitX=1.057;exitY=0.229;exitDx=0;exitDy=0;exitPerimeter=0;labelBackgroundColor=none;fontColor=none;labelBorderColor=none;noLabel=1;strokeColor=#FFB366;" parent="1" source="21" target="9" edge="1">
                    <mxGeometry relative="1" as="geometry">
                        <mxPoint x="180" y="291.47" as="sourcePoint"/>
                        <mxPoint x="280" y="291.47" as="targetPoint"/>
                        <Array as="points"/>
                    </mxGeometry>
                </mxCell>
                <mxCell id="15" value="ID" style="edgeLabel;resizable=0;html=1;align=center;verticalAlign=middle;labelBackgroundColor=none;fontColor=#000000;" parent="14" connectable="0" vertex="1">
                    <mxGeometry relative="1" as="geometry"/>
                </mxCell>
                <mxCell id="21" value="" style="shape=card;whiteSpace=wrap;html=1;fontFamily=Helvetica;fontSize=12;fillColor=#647687;fontColor=#ffffff;strokeColor=#314354;" parent="1" vertex="1">
                    <mxGeometry x="130" y="252" width="50" height="70" as="geometry"/>
                </mxCell>
                <mxCell id="22" value="Server API" style="text;html=1;strokeColor=none;fillColor=none;align=center;verticalAlign=middle;whiteSpace=wrap;rounded=0;fontColor=#000000;" parent="1" vertex="1">
                    <mxGeometry x="378.87" y="294" width="62.25" height="30" as="geometry"/>
                </mxCell>
                <mxCell id="24" value="Database" style="text;html=1;strokeColor=none;fillColor=none;align=center;verticalAlign=middle;whiteSpace=wrap;rounded=0;fontColor=#000000;" parent="1" vertex="1">
                    <mxGeometry x="700" y="232" width="60" height="30" as="geometry"/>
                </mxCell>
                <mxCell id="25" value="" style="image;html=1;image=img/lib/clip_art/computers/Database_128x128.png;strokeColor=default;fontFamily=Helvetica;fontSize=12;fontColor=default;fillColor=default;" parent="1" vertex="1">
                    <mxGeometry x="700" y="172" width="60" height="60" as="geometry"/>
                </mxCell>
                <mxCell id="29" value="" style="endArrow=classic;html=1;fontFamily=Helvetica;fontSize=12;fontColor=default;exitX=1;exitY=0.25;exitDx=0;exitDy=0;strokeColor=#FFB366;" parent="1" source="9" target="25" edge="1">
                    <mxGeometry relative="1" as="geometry">
                        <mxPoint x="460" y="242" as="sourcePoint"/>
                        <mxPoint x="540" y="342" as="targetPoint"/>
                    </mxGeometry>
                </mxCell>
                <mxCell id="30" value="ID Check Request" style="edgeLabel;resizable=0;html=1;align=center;verticalAlign=middle;strokeColor=default;fontFamily=Helvetica;fontSize=12;fontColor=#000000;fillColor=default;labelBackgroundColor=none;" parent="29" connectable="0" vertex="1">
                    <mxGeometry relative="1" as="geometry"/>
                </mxCell>
                <mxCell id="31" value="" style="endArrow=classic;html=1;fontFamily=Helvetica;fontSize=12;fontColor=default;entryX=1;entryY=0.625;entryDx=0;entryDy=0;entryPerimeter=0;strokeColor=#99FF99;" parent="1" source="24" target="9" edge="1">
                    <mxGeometry relative="1" as="geometry">
                        <mxPoint x="440" y="342" as="sourcePoint"/>
                        <mxPoint x="440" y="302" as="targetPoint"/>
                    </mxGeometry>
                </mxCell>
                <mxCell id="32" value="ID Check Response" style="edgeLabel;resizable=0;html=1;align=center;verticalAlign=middle;strokeColor=default;fontFamily=Helvetica;fontSize=12;fontColor=#000000;fillColor=default;labelBackgroundColor=none;" parent="31" connectable="0" vertex="1">
                    <mxGeometry relative="1" as="geometry"/>
                </mxCell>
                <mxCell id="33" value="" style="endArrow=classic;html=1;fontFamily=Helvetica;fontSize=12;fontColor=default;entryX=1.057;entryY=0.711;entryDx=0;entryDy=0;entryPerimeter=0;exitX=0;exitY=0.75;exitDx=0;exitDy=0;strokeColor=#99FF99;" parent="1" source="9" target="21" edge="1">
                    <mxGeometry relative="1" as="geometry">
                        <mxPoint x="440" y="342" as="sourcePoint"/>
                        <mxPoint x="540" y="342" as="targetPoint"/>
                    </mxGeometry>
                </mxCell>
                <mxCell id="34" value="Pass Verdict" style="edgeLabel;resizable=0;html=1;align=center;verticalAlign=middle;strokeColor=default;fontFamily=Helvetica;fontSize=12;fontColor=#000000;fillColor=default;labelBackgroundColor=none;" parent="33" connectable="0" vertex="1">
                    <mxGeometry relative="1" as="geometry"/>
                </mxCell>
                <mxCell id="35" value="" style="points=[];aspect=fixed;html=1;align=center;shadow=0;dashed=0;image;image=img/lib/allied_telesis/computer_and_terminals/Personal_Computer_with_Server.svg;strokeColor=default;fontFamily=Helvetica;fontSize=12;fontColor=default;fillColor=default;" parent="1" vertex="1">
                    <mxGeometry x="921" y="247" width="80" height="80" as="geometry"/>
                </mxCell>
                <mxCell id="36" value="" style="endArrow=classic;html=1;fontFamily=Helvetica;fontSize=12;fontColor=default;entryX=1;entryY=0.5;entryDx=0;entryDy=0;exitX=0.375;exitY=0;exitDx=0;exitDy=0;exitPerimeter=0;strokeColor=#3333FF;" parent="1" source="35" target="25" edge="1">
                    <mxGeometry relative="1" as="geometry">
                        <mxPoint x="440" y="342" as="sourcePoint"/>
                        <mxPoint x="540" y="342" as="targetPoint"/>
                    </mxGeometry>
                </mxCell>
                <mxCell id="37" value="Register Card ID" style="edgeLabel;resizable=0;html=1;align=center;verticalAlign=middle;strokeColor=default;fontFamily=Helvetica;fontSize=12;fontColor=#000000;fillColor=default;labelBackgroundColor=none;" parent="36" connectable="0" vertex="1">
                    <mxGeometry relative="1" as="geometry"/>
                </mxCell>
                <mxCell id="38" value="" style="endArrow=classic;html=1;fontFamily=Helvetica;fontSize=12;fontColor=default;entryX=-0.004;entryY=0.714;entryDx=0;entryDy=0;entryPerimeter=0;strokeColor=#99FF99;exitX=1;exitY=0.5;exitDx=0;exitDy=0;" parent="1" source="24" target="35" edge="1">
                    <mxGeometry relative="1" as="geometry">
                        <mxPoint x="450" y="312" as="sourcePoint"/>
                        <mxPoint x="721" y="448" as="targetPoint"/>
                    </mxGeometry>
                </mxCell>
                <mxCell id="39" value="Student Attendance Status" style="edgeLabel;resizable=0;html=1;align=center;verticalAlign=middle;strokeColor=default;fontFamily=Helvetica;fontSize=12;fontColor=#000000;fillColor=default;labelBackgroundColor=none;" parent="38" connectable="0" vertex="1">
                    <mxGeometry relative="1" as="geometry"/>
                </mxCell>
                <mxCell id="41" value="" style="shape=note;whiteSpace=wrap;html=1;backgroundOutline=1;darkOpacity=0.05;fontFamily=Helvetica;fontSize=12;fillColor=#dae8fc;strokeColor=#6c8ebf;" parent="1" vertex="1">
                    <mxGeometry x="801" y="359" width="47" height="74" as="geometry"/>
                </mxCell>
                <mxCell id="42" value="" style="endArrow=classic;html=1;fontFamily=Helvetica;fontSize=12;fontColor=default;entryX=0;entryY=0;entryDx=60;entryDy=60;entryPerimeter=0;exitX=0.375;exitY=1;exitDx=0;exitDy=0;exitPerimeter=0;strokeColor=#3333FF;" parent="1" source="35" target="41" edge="1">
                    <mxGeometry relative="1" as="geometry">
                        <mxPoint x="440" y="342" as="sourcePoint"/>
                        <mxPoint x="540" y="342" as="targetPoint"/>
                    </mxGeometry>
                </mxCell>
                <mxCell id="43" value="&lt;font style=&quot;&quot;&gt;File Report&lt;/font&gt;" style="edgeLabel;resizable=0;html=1;align=center;verticalAlign=middle;strokeColor=default;fontFamily=Helvetica;fontSize=12;fontColor=#000000;fillColor=default;labelBackgroundColor=none;" parent="42" connectable="0" vertex="1">
                    <mxGeometry relative="1" as="geometry"/>
                </mxCell>
                <mxCell id="45" value="Admin" style="text;html=1;strokeColor=none;fillColor=none;align=center;verticalAlign=middle;whiteSpace=wrap;rounded=0;fontColor=#000000;" parent="1" vertex="1">
                    <mxGeometry x="951" y="322" width="45" height="30" as="geometry"/>
                </mxCell>
                <mxCell id="47" value="&lt;font style=&quot;font-size: 12px;&quot;&gt;Report&lt;/font&gt;" style="text;html=1;strokeColor=none;fillColor=none;align=center;verticalAlign=middle;whiteSpace=wrap;rounded=0;labelBackgroundColor=none;fontSize=17;fontColor=none;" parent="1" vertex="1">
                    <mxGeometry x="798" y="442" width="53" height="11" as="geometry"/>
                </mxCell>
                <mxCell id="52" value="(Student &amp;amp; Attendance)" style="text;html=1;strokeColor=none;fillColor=none;align=center;verticalAlign=middle;whiteSpace=wrap;rounded=0;fontColor=#000000;" parent="1" vertex="1">
                    <mxGeometry x="659" y="142" width="142" height="30" as="geometry"/>
                </mxCell>
                <mxCell id="54" value="" style="shape=image;verticalLabelPosition=bottom;labelBackgroundColor=default;verticalAlign=top;aspect=fixed;imageAspect=0;image=data:image/png,iVBORw0KGgoAAAANSUhEUgAAAggAAAFbCAYAAACwDnanAAAAAXNSR0IArs4c6QAAIABJREFUeF7svQeYnFd97/89563T6/a+0q56L8i2LNwrbhgMgVBuQoBLLiGkPaRRAum5NzeVwJ8QYqpxsOPeLblXdcnqK61W22d3p89bz7k57+xaMgRWsfP8A9kzfsa70rzvzHs+54zO9/1VAvmQBCQBSUASkAQkAUnghwgQSUQSkAQkAUlAEpAEJIEfJiAFglwTkoAkIAlIApKAJPAjBKRAkItCEpAEJAFJQBKQBKRAkGtAEpAEJAFJQBKQBOYnIC0I8zOSR0gCkoAkIAlIAguOgBQIC27K5YAlAUlAEpAEJIH5CUiBMD8jeYQkIAlIApKAJLDgCEiBsOCmXA5YEpAEJAFJQBKYn4AUCPMzkkdIApKAJCAJSAILjoAUCAtuyuWAJQFJQBKQBCSB+QlIgTA/I3mEJCAJSAKSgCSw4AhIgbDgplwOWBKQBCQBSUASmJ+AFAjzM5JHSAKSgCQgCUgCC46AFAgLbsrlgCUBSUASkAQkgfkJSIEwPyN5hCQgCUgCkoAksOAISIGw4KZcDlgSkAQkAUlAEpifgBQI8zOSR0gCkoAkIAlIAguOgBQIC27K5YAlAUlAEpAEJIH5CUiBMD8jeYQkIAlIApKAJLDgCEiBsOCmXA5YEpAEJAFJQBKYn4AUCPMzkkdIApKAJCAJSAILjoAUCAtuyuWAJQFJQBKQBCSB+QlIgTA/I3mEJPBTR4BzrgBghBDOOSeFQiFpmmbWMMABzsRrgOkD4s/i9+B57u9iTOe+Ll6be138FA9xjnjMvTb3c47H3HHBn8W1/NSBkhckCUgCb5qAFAhvGp08URL4ryEwNjYWSSbjvwDwAdOMPHD48LMxuMavxOLRdxqhiNipOaGK0A1cUSgH44FqAAFjns8JwFVNZz5jwYbuMxYIDfH3VFEYZywQE5QQRgiY6zOmaSpjPodCqc+4zxSq+IQSxhk4VRXP9xmHOIIg7zj2d7Zvf3bPbbfd5nPO1dHR0WRLS8s0IWROcPzXgJOfKglIAv8hAlIg/IdwyYMlgf96As8//0Rb3+IlXw2FI9GZmfI1+fxwXCHq7fF47CpFVQFCZ+/7OQilAK/f2BNCwMXvhIDMHVM3EAT6ASDwPQ+EElCqBseKU8TLwXnBkcHP+guMQYgKxoQhIniNiz+5rvvPpSo+s3r16pmJkePX1CzvfbtefvELt7z3wyf+6+nJK5AEJIHzJSAFwvmSksdJAj8lBLZv3662tSU+29jQ8r8MM/brxWL+sOs4X1E1ukqIgPpmPXuzLuwCs99ysX9TIRhef8x9/d+w+c9KhbP/NMwKhR8d/azYEC8wz4UwPAjRAI5HodJfCIeTnZTiX8ZGzrz22p7dH7n1/R8Z/ClBKC9DEpAEzoOAFAjnAUkeIgn8tBHYuXPHxfFY9nupdDYdDkcKnuc2+r4bqIG6SBA38+JGvy4QxO/irl88xI9Zg8A5wxJuCGFIqJ879xBeCO77oKoIeQjOfsPrQVCCeLPAilA/T1GUKVUL/X+E0nd6jp0dOLrvi1wd+LuNGz/m/rRxlNcjCUgCP56AFAhydUgCP4ME9hzZ05Y7Pfh0/9IVvelUFlRRX9++AxfCrBIItvMfchEI9wIP4g/P2exnnQz0dTdE/TzmM1ClbnUILBCzrom61ph1WdRfBQtUhwh1ECJBRbk4gxMnjrzIiXP1li3XFX8GMctLlgQWNAEpEBb09MvB/6wSOH78eMfg4MGn+5as7M4EAkHc4deFgbAaUFr/M+f+7MY9O9JZ40BgLfihx6yseP1vZ0Mb69aIwJ1Qf+/gv1lrxNzBQRTDOWYJhRIUCzm8dnDvExdf8o4rZYbDz+pKk9e9kAlIgbCQZ1+O/WeWwKFDh7pHRo9u7+9f1Z1OZeoWhFkvghALymyQoe97PyQFzhEGr4cm1jHUww/PFQ51GXFupEJdINStByKeYU4oiEDFc08VoQ7F/BT27331qUuuuPkymcHwM7vU5IUvYAJSICzgyZdD//+HAOdc2OjVgwcPYuXKlc5/xqfu3r27b3p66LEly1Z1pRLpusWAEHiuA9uuQVU1cLFpAzBD0VmLwpwMOOdrf677YdY9EIiCcwMV3mAtmJUMHPA9ByJrgvk+HNeGboShBJaLeuyDsCDs273zmcuuuvlSQkg91UE+JAFJ4GeGgBQIPzNTJS/0p42A2PjHxx8N0ZxObLOhmajWEuJNxqjiGFTRI5xbCahGK2FOCzgafFZ1PLv0dx39/fcTcqn3Vsazb9+rSydzw4/09a/obMg0AqCwrBpyuVGUS3mEwhH4vgvP8ZFtbEEq3TgrEuYyFl63GQRWg7OWgiCvcdZZMRemMPvqOdkQlXIeE6NDUDQ1SJm0qlUkUg1oaGoNPocSID8zgQP7d71w2RXpbW91vOJqjx07ZoT0gRuoP70GrLRLJS0HmBZZ5rul9YzQBxP6uhMVlFe7tam4rqn7mro2D0rLxVtZZfLchU5ACoSFvgLk+M+LwIMP/rXR6o9nPUzGdM1oD0XVC1Wd30bh9Sq6yihRDUVTVUVjUDQDoBEQKsoauvCdIji3ZjMLhDE+/jJTMt+umsljA9R07eAKRJChCs/z4KlCO4jf639teR7Muddnr7bRDnVpI9U/6e9Z0ZjNNAXWg6nxEYyODkLRtSBIMKiBQAhMI4TGxnaYRrieqRBog3NdCbNZD+eQmAtyPHvsbEAjIXAdC1NTI6hWy/XURhBYtQpK+QJ6epahtaMbIthxJj+BA0d27ZtaFLrNUlzHr/mcxy3fripMN32uw+MKU5gZNrnFLebC5SEe4igC4ZjLG8oe7SXRLt8tXUf50EUEaALstZS4hHMCQiOcUp1w5sCzmc+44YEQjTlV6rq0zBD9e7tS/KvJ/EQtFSGuFfPsjRu/KqjKio/nterlQQudgBQIC30FyPHPS+D73/++siix612E5X9LJeVGVUHKCNGwrlFClLovnlIfwrou0gGJooKLDZ0ogAgSZA5AZlMOg01bAVfD/oSa9Q7RaOAIEIZ5KgoVcSEpOKpQUOUcQla49doC8EHgcVGgiCDmaWRVLmOs6lhDsunGQAjkJsdwauAQGBg0wwiKHYkveCQSR1t7L0wz/AZx8MPxBfUshR/3T4KIUKyf4dg1jI2eQqkshA+D7/mwbRuVQgn9S1ejrbMneJ/pmQk8f+pZ50BLZYRQ4isETKPcp4R7GhRPpdQzAd8k8FTCPcqJxwlxXSieQrjX41l6l5tfrrBSB2FVRbAkQfaF+CniH3SAqEENBt91A9EjUImKj8Lt4XuqX7Poy1bNHWEuG3Zcf4/tKTu2vbvt3ywLX5BVHedd+fKAhU5ACoSFvgLk+Ocl8NruR/vyx27/10i4ulxVmahkDFEWQPwUz6D4EPWgKBRUpSCKgkpF+OhZPfKfUugmRTiuQ9HEiUJJKMgrMYwrUZjcQwg+tNnmBy6nKIAiB4phqBjjFFXGUBPigXN4DtDsxXBxuRurOzcgm26AuKMWroX9e17CTCGHeCIB04wEKYrZTDPaOxa/ngoZWA9mayWcm7ngMw8KFVdxNsfhR/+BIIHrYuj0UUxPTYjqyvB9H+VyCYSrWLNuC9LZhoCJEAhPnHoUT6SHoWoqDEoQoQp0oiBBCZrgIwsPMfjQgy2fwwNFhSqwoKKZWehwp0GZDXAP8H0wzwNzvXqNByggszEPviuEmB+kZQZ6ijH4vqgMSeG5ooATgeOSSq2mf5Oz+O9c/P4vz8w78fIASWCBE5ACYYEvADn8+Qm8/OQ3bguXn/tuPFymwrcebPrBJirEggJKNTDuwmcOqtTDgJ7EsTMErEqDjYrBQyTmY3F/BKmYiTDxkfVnwMXdL1Fn79rFO4qbYPGTQNjBhfVgmqgY5Ab2Q8eoz1FzGfLDNXTZKVwfX4k1vZuQES4GUauIedjz6gvYuesl6IaOvr4+hCMxdHQsRrah9UezFM6xFohhicYKbyzB/KNs5v7BmJwYwsmBQ8jnp1EoFOG5Hvr6VmLthguClEuF0iAG4eHDD+C73j4k2qKIGRrSVMUiStCHKprgIco9aLPBkfWRc/iEwIEChXswfQcOKFxhubAcnDpWQrXsB+2oNE2HEGxtLQS6UwP1fYhuDwHDwJpAAmuCsM2IJ2MUtqWeZn740s3v/87A/DMvj5AEFjYBKRAW9vzL0Z8Hgefv+b/vbtFeuyOTDHoazbqwhatA9DlgYL7ogiS6KlrEpS5eURO4y2qAP60gbFmoOBXwBg/dvSF0hA1s4gW0eZOgwpIg3mP2Z1BiaDb1UHQ98mbdDRYITnANz7MwhlyG3EAJbfkEbu7YhHX9FyCdani9VsGul57D9u2PBJv9BRduRjLViM6eZUgmM/U6BfUUhR8Z9VzWwo9GJpw99NyzCjMTOHjgZZwYOBa4Lgw1hFVrNqN70ZJAOAmBMDM1ikf334t/nNmJxuVJNIUMbFI8rCA2MoHVoB55MefWmJVIgVtGuBJEFobo9nBaSeAQosjbLo4dt1DJm3CJiqpCoSUIrmqh2FY6iahnQyHC9VB32NTTNusFoYIS0ITC8/Va2Y5d2H/93+85j6mXh0gCC5qAFAgLevrl4M+HwHOPfLmx1T92azzkfEzTq6vFHhSYERiHY6tHHB79E0B9TfUK2xTd/mXf4F13VFWy12rCiooDauo42lSDlqa4mhaxkudhBkGC4o1EsJ1aIKq+34e2nzLmMfAljLO1jPkNPmfEYzxwMRyHiSeESMh76MhHcGV4DdYs2YZMOvt6tcT9e17Brp3PIRwx0NbajlS6CZ29yxGLJupDnS2zfG5tg7lGTbMvv15h8WxuQ102iGudExBFkaGw7yUMDBxHvlTGpk0XoL9vOVKZ5kCsiEyGqYkhPP7aXbiDHkBzSwwXaQQbSBUJyqGDQhVNoYQFJainIKSCMIPU3QmiwJOIbxDPKqF4jjZirx9GpUjROK7CqVg4phGEEx4+o+eQ5R48t8EHNKagqmpqmVClLgrmmk35LvGqbizvKH3v6LnsV186n7mXx0gCC5mAFAgLefbl2M+bwOc+9zn6sa3lCw2t9GVNq60Um47PDDdv9W7uuep3g7tRzj9Hzzw0/Yl4ovalKauS+FK1FZcnVyLS1oKHK0+jTyviem8QccKDeAMw5oLTp4DYl7K0/wWy8gtBjYTt2z+nLm45uVwj1meY79/kMx62mY8So3gVCTzlGOiykrjIW4Y1S98OEaToB5spx8lj+zFw/ADMUBhmKIJEIhNYEEQ8wlzwfj3UsP7Vn4s2eD1r4fXsBiEGzpZjrucwnP3nojAzidf2voSaXYXrOEHcxdLl69HR1VcvtUwppnJn8OSRe3CXsQ/rYxRXKDYaiAdDuCBAoVCDq0anT9RWRhDhBCJw4wxl3oTC3CKFCNfkgMsZ8lBwF23DoB1B47ADc6aEmspxU6qMJWECS7/4oKV0fx6ONab4pZ/T7Nd+PmSMx4NyDkw4bMKjNdb4l3nS84P+5m3DpK+vnjwiH5KAJPBjCUiBIBeHJHCeBA7d9UeZbMPYF3Wl9D/hu+DGkleSm39/87mnH3viG4uyob1PKCTf9ftnTKxKLEW6ZzFetF/EVvcQlqEAk3AoPrFc17/T8+jvLdr6+Ol/7xImDrw7avvlzzHGP+H6JOyAYJjH8KAXQthrwMX+SqzqfzuymcbgTlv0QnAcC8XpaWGVgKrQICgyGkvNNm062zuhbg2Yc5fM1UZ841WcdTfM/Tab6gjAsW0MDx6D59kIh8NQNQPhSALRRHpWIBBM5Uaw49h9eFzdiavNKlYSCyGFQAl27YStRjbsUqIXfZ+qrU95nj5UrVZpRD21QvX3/iK3Dl3N3dEsgwPhbrG5j4M0gx+oXQjPAE0jJRjcxnsay0hn1pfL4euvau9b/YIYwdDQ8yE2eOyf4njpXQpKCqFKlejpvy8i/rnWjZ+vnud0y8MkgQVPQAqEBb8EJIDzJTDy6leypnfiD1WW+yj3LPDQkgOJ7LZNpOdSEU8YPCYO3L3WrL10n++caf/SWArrk8uQWtSPo6XHsNk+gGbiQqfghNGdnss+3rXl0Z0/6fPH9t7SWPOsb7g+rhWuhhIjeJolUUMXNrnLAwuCaNZUtwacfYhgw2A7n7Us/HtxB3MFksRZc1v/G10P9Xc929X5rECY+yQRR1EvuiiaNdWtGOIo4TaYmhrGjsP3Yr/6Iq7XS8hQHlgPgBin+oV3GvH1n2/p2nb4h/s0nDx5d5LO7P4Y3KO/pqgzjZxwuMxDjum4U1+McTeO3nEfVrWED2Vn0Nl+zYkJbdvGnp6e/Nx1ndl9329HrR2fpf6ESRQ1R6Mdn42s+oMvn+9cy+MkAUngbJl1yUISkAR+AgH+6le0asy5gpVO/DG3Z9YIszXRko5vrvq4qy65s3HlpeXyye3NrHL408Q68IkTuYnoP7tLcGmyD8lF/RiZuANL7EOIE4hAOhuc/tnJSuUPLr10x7wVFY+9dP3Vvs8e4uDEYgz7WBzjpBervFVYvWQrMqIOQvA46zY4V/nPuRTObdA011jpR4XBvxOmGMQ21qsr1n+eFSN1V8UbKy0KRSEEQm5yCM8dfRBjytO4WC8jTFUoRAPULSdimRuubO5ec/LHIX/16T9sCdPxz4a04Q9TpWIy+Cj5FE8prXhF7UTvNDAznce7w6NY3dY/zbR1VyaX37pLvN/IyEhYz7/yN3plxwdhT6qgSpnqmb+LtLd8kTT/ZkUudElAEjg/AtKCcH6c5FELmMCuJ77d1Z4687EwG72KOYXV3Hc0cdssAvGYmh5S9NRT1EyPcu71cnts68T0UOP3y2lS0hqxIt6KUGcX+Pi/YJF1HCYBKFdKHMqt/VsffOx8sL766g1ho2ifhsIyDmcYYHGMqP3oZ2uxcvFmNDa0nrUgBDEEc+6DOdnwxniDN5ZWPjdEsX78G8sMzlVe/OHu0EH7xtkOjyIQ8JwzBRsQ5HJn8MLh+1ChO7Baq8KgIhAxBj1x6x/1rXr/7/6ksYt4jr07jOtM9dD/VpWpfigeaj7DLtqIJ0N9aM1TWHkL6zGGG5ssDq3zQRLq+hoxm6Yp1G2scuRjqBxuY65NiKIwQrVjREt/xQttecpyFx9pXrNGCoXzWXzymAVNQAqEBT39cvDnQ+Cur3/+srUd4/c0RCtRkXpHqB48hfleBNKBaCIvz2Uc2sBkSdnuN+FMohvMmgIMHbmMhkvKB7HBHYERRNXTPK+RrSuueeTg+Xy+OObVR644rKpsiQeG0zyOAWURlpNNWLV4CxobmmZFwey7zd7xB1u2MPn/SFojn037E22b61H+c8fWjRBvsAucvcS59wl6N9QFwusBj3V/xmwWpchOIJgYP40XD90Hlz6FpVoVGlXBeIaHMrfeumTVbXfPN/Y9L32vX7Ue/bJKxi4jigOLcRxQMngovATZsgFtqoAktfDB1DgSmu4S6BOcGg6ImoZXi3G3RhHUqghKTjNQbabmN0+x6LoPtKy97eX5Pl++LgksdAJSICz0FSDHPy+Bb33r966asAcfqhicuq4Pz/JAggaNBKJhQtRU0R1VccwzMZbqhqcwTM2MwAupiGSzGE0Bt5SP4yJnDCFCwDxS9Gu4as31j553qt3LD117RtftNo8znCJJHCHdWEs3Y0XvRrQ2tc8WWZrd6Od0gih8NJd5EAQKnG2+JAIa59IRX7cbvB6LeLal8xsaN72uP0Rcwg+3M5h1QcxaFYRAmJw8g2eFQMAOLFcr0IgKz08yPX7Fu1dt/vhd84E/ePDZTn/yn/5BoaPXKooHy2fYr6TxQGQpGso6MDkJ27eRJSbc8TFcGKlgWaOGxqiKsWkHtgdoqhAHQbEFaKqGmhvnNXRcdsENv79jvs+Xr0sCC52AFAgLfQXI8c9L4M5H/89VB1B6aCBs0qHpIqZGiyILAfA5iM+R1jT06QRlU8eMGYE7dQy18RLCjXGYSzqQawrhyvIArq6NICz6CDBadW382vprHv4qOVta4Mdex3N3X7tINXBUN1xq+x4OkwxO0G5coG7CqkWbkE2lQRT99UqJPvPhek7QjyAo86yJvgwimPDs112UJRYniKqHZ6MQhUXhDQEGb/Q/zFomguqQogeDyOTgwtVCgvbSQYzCOQJhamoUOw7ehzx7ChuUAgyqwHV0aNFtf7V262c+/cPBiT8MYN/OuzeQ8gN/SzC6hVAXNZ9jl96ExyNL0V6ksCfHUGUOIlBRdhWUXYpFIYK+sIWTeWC4QhA2ohj1LKhRDfGIiiarynv0lit+6cbffnLeiZcHSAILnIAUCAt8Acjhz0/gjsf+/Iojiv3ISCxOT80UMTRcgG1zUM8H8XxEFRUtmoqE6mFc13BqfAQ9YQVqNgKSjMJpTqHPHcfN5eNoYJaIQRDtCx7mjP/SxmseGf1JV7B9+yWmXg79iaKwT1HVh8U5dqqtGKOd2EZXYXXv+qBTo+iqWLNqcF07uGEuFaehKlrwd8l0Q9DdUWzihmEEGzkT1QqJaNVc//TAZlBPR3jj5bye1lC3GgS9F4Knh0qpENRA4ARBueegg6SIPwiqGRJM5obxxKGHcMJ/DpeTaQS9JH0Kn/dMRpsu3bZ64/sO/7ixnzy53azkXvsIr736OcLHs5x4QZDi9lAX9oS60TntoTI9AYv7UAhgcgQNr8Tv4qlTBRoDdF/HPj+JUpiDRX10W2W+AtkrPnmdFAjzr3x5xEInIAXCQl8BcvzzErjjsT++4qjBHhmLZehwqYbjEyWUag4I4zA8DwYDEqqOJBWbqIVhz0O1WkW6KYSWiAo3HYUbZritcgLLrRwM0RuA05zPlL+oOeyrF7/jgX+3cdD27R829crkzZT4f0mp3+wTD9NKGDvVThA/i03qcqxctBEN2RYUCgW88uoryE3PBE2jDF1DJBxBoZCH5/vBM2yYuGjrVmSyojSz0APnfP3nchnPbfE451IQ1gLXxujoGAZOnQrqLSiKAl1VYZpm0I9BVIUUmQttrc3o7OqBrhuYzI0EpZZf4btwpTqDFm5BYQp8TwcNr/oXLdT02+sv+PSJH0lz3L7drCYGLmXVg5+Ff/JtQI2ILIZJhPD92EpYSCAzWUKpNAOfiqJMCqjvggTdKOseBRF3QBlDjITwdDWEqZSCcJJida3Kl7P4Fb959e9LC8K8K18esNAJSIGw0FeAHP+8BL770B9efsokj4wl08qU62G86qBQqcHzfIREV0GfQ2UcJlHg2hZC3MUMVTDuu1itOohlTJxojGCdn8cNheNIMBcqoeBcHWRc+0c4+PYDr6w69YUv1FsQi7jCZx55Z7PC2M0U7icJvKUMPrEpcMJowUnWgBVoRaveg8W964JCSWfOnMHd99yP8ZlyMB7PseF5HnxfuAI8OJYF4nv4X5/4JaxYvbre7ZD5cNy6K2IumDHoRkWCAtCBW0JV1eCCXNfCow8+jO3PvRK4JVRNg65pgUCoVsqoVCpwHRtbL9iId9x4I2KxBKanx7Bj1714mu1Dr1nGBpZHWLg1oMLjEYsjdQ8NtX0jmul/adWq9xUmJw+GXdfvnxl58QqncvBWysY2UlqmokqkA4a9oS48EOlFZ0UFmRxH2a4GLag1qsB3PFgOgyiPyEScR8CXw1RNHNESmE4LwcSxsVzi67zYFZ+WAmHedS8PkASkQJBrQBKYh8Bdt3/+slQ2/6gW9RTRHNDjFKJokTCzi81O9A1grIqir2JX1cQRNwS/YsNSNVRcD2tDPqY6YsjFFVxXHcfG6jDCokM01zjnygyIdpBS5RWFksM+J5x7fjeDv5Ezdw2418i5Q20OjKsx7Ap1wymouDSyBEk1hUWLViGTasSZ4WHc+8CjyBVFoUAC13Vg2/brhYvEXT+zqvjg+9+NlatWBa6Ivbt24dnnXoLt2PA9L9j0RZaGsAQowjpgGLhw64VYvnxZEOD34P0P4NlX9sJn9fRGYUUQMQiuXQtEhWvbuOhtG3DDDdchHktganoEz+96GA9V9sNOObgSRXSzaj2TA6IDpmZTJXqaKpHTqpoqUkWNgFeawIqd3JtJEmITUB+OD4xoSdyfXAKXxdE4VUAxP1FvCsWAmYqPGiNoDVMkFZG1IXIXxJOD6SosQ4dvKFApR2uxxlt505UfvuFzT8iFLwlIAj+ZgBQIcoVIAvMJhC9/5rJ1HeOPpuKOQtVw0ACIi4ZCopUCc8BE40HX9bmqKDVikMcKJv55MoRWz4ev6qhWbPQ3ajjYFQVCBNfXclhTG4EJIpoaC589p0SxIZ6iXTF8nfm+4XOXis/xuIdJGsFTRitG/AhSIwRXZpYhG01gcc8KNGSbAwvC/Q89homZMqrVWjAiy7bAhTWAcXiuA9+x8f733ISW1iZEI1Hs2P40djxTtwgEVoRgWw0KOQVpjL7rYtu2Lejv70V3Tw8euv9hvLr/SCA66iJCC4IgfU9wYPAcF5dcfAGuvuYKxKMxTE2P4plXHsL3RvdiuJNgvQlc4eXQxG1oVAQ1alCoqGOkcUp1DiKiGTwC3wOIC+FW8LiPKRLB/ak+jCkpdJY4nPEhuJ4ddIPMFYVPxMOHmm0sjQRVKs9mboiOjsJ1QuvtnkWXSM50XrW7r1xylRQI8osvCcxHQAqE+QjJ1xc8gUe/+zetPfGp302Y+feZoVpSpNTX71EB13KfdZzYb9jhFUdp+cj1IaPwe4pm939tNETunAxjixnDzeuuAmUenht9Fj9oZEDUxI21GWwqDSLh1aASEjQ3qm9i9fRDP3ABMNQ4MKEn8Vy4GyMOB51iqB3I4dKWXqzrW4r+3pVoyDahVqth7+492PHEUxgYOImxqamgMINo2CQSJRRVQchQccu127C4qw2ariNfdpEv1II7baro9YRIYSHxGVzPDSwC6aSJbDoK0zDx5HOv4pW9h1Es5FEuVwILgghIpIQjZJpobMjilltuwoUXXRivY6+4AAAgAElEQVRYH3JTI3j82Xvxtdd249TSMGItIWxWGa6zx9HExAbPoQbvIepOicDG+lITgZCcMNicYVxP4enYYthmG1otitzQETDXQVjRUKpamKo5+MP2HBpMMNdvKHOuVygvJjStHKKKIsISgpbP4gdjBqs62WpN7b9x8SUf277gF7YEIAnMQ0AKBLlEJIHzIHDswb82FG3mg1Et90chvZIN2ggTNVcs2Ovbrv6nIfEW3//+u5UtmaW/FNPO/PFErZr8yHALOvRWvG/RanQ1tOLJg89hwDuBlzqiKEd0rPBdbK6No6M2jThzoIrCS0TcxxPYjKCghHDSaMKgmgb1KMyii9rAOAYG81jR0IKr1mzCsp7laMw0gKh64B7gjKOYn8LAiaP47vfuDjb0bCaJNWtWQqFAe0cKjU1paKqOjo5+tHcsCmINgubTs7US6rUPOBzXxtHD+zA1NgjAx9ETkxgenQoEyIkTJxEKRbB+3Ur0dLVj/ca3obOzDU0tLTDNMFRFRS43ggefvRd/+/KL8LrSSHdFUMtqyIYUvN0toc+aRJK7MIK4BGGYEa4LAhsqioqJgUgzXg01Ia224DZzOYjr467D9+HCts1oCWfxyOEXsNzdi+tbPW7x1Y/4ytLf1xRv2HHHNqrWkS+EjPwaAi7MIfBJtGCj51tl1vGNkBl9rXXjDbJp03mse3nIwiYgBcLCnn85+v8AgZPPf2dpFIf+xiRjVwQ322r24fimP7723LcYOvTUqlDurgd0JdfxodcSmHBjuKyhGxd39uHpoUMYyg2io0XFywkVY/EQuK6iGQydTgVxvwLKOTyIxscmylxHiBmIWgCdKaMyNoaZfAWKl8RFi5ZiUaYJ8VACqaSog6DA0HUYujFb24Dh2Weexbe+fx+WLO3BLbfeDKdWxtHBI5gsF8E5xaKGRoRDUVRcHzqlCOsKHM+HLVI3TQO6quDU6CiGhk8jG49g2ZK1iEYSePGFF/HAfY+ivb0Vt9x0dXDNnb19aGhsCDZ4RdWhazqmcmPYsfdpfHv/AdAwxdK0gnxGw7GGCKyogWaVYKlbDVI/RWBnEDtBdUzoEQxpCUwpYWQdgu6Kj2Zbx7buC3HPkQexsXFlkMY4PjWBje4T6GpcUrDNy7c1Ld2yb24uTm//sw/HtON/q5JqRFS6ZEbHgzV15aea19z2Y/s//AeWgjxUElgQBKRAWBDTLAf5n0Egt+9flqrO4b9WvMErReABCXXsKfobLpq7G+Wck+mTL12pTN55u2uPNP3CsQYoWjNuWbwRpfwoBidOYJgoWJb2MOQVMaMryId0lA21XumP0CDwsSiyImyGDk9Hd5UDM3kUSwU4vgvLB+IsixvXXgSDM4yOjsCxPOSmCoHJP52KI5aIIxaNIZebxMnRUSgRBdFEFBndhMp8DOSmMDwxhbXtzfB94Oj4FDIhEz2NKYwVqxiamkF/YxqJWASHRiYDk/6Kzib4Sgg1SjGTzyM3NoWmTAMu2LIFzLFRLJZh2TY0RQnqISiaBk2nGBw/g6eHRzHC8+hKAtzw4UZCyMVNFGIhOCEDRNNAFAJVtKgmKjSfI+IwZCwf4VoNiuOhNdKMy7suxD2H7sey9GIszfbh1PBRrKzdj7b2C06y5vetS6fThbl5Hnrh9rfF6J5HqDuWIErIQaj3n2rqhb8hmmr9Z6wF+R6SwEIgIAXCQphlOca3TODYsQeNFvf0e1A7+cfcmQq6IxE16jBz+e/Gopu+hu61hdLoziW8dPCzpPDMO189nTN+p7IEaxI9eO/SLRieHMLhob046XOsyAJnrGmIxksUDIaqImKGoQsLuw+MezqmLQ/lfAlspgKvZqPKPDSEVURDKuI8g3duvBxRleLY0QMYPjOJQ4cGAoHQ1tqIVEMMobABVVWg6CYODA3gxOhpbFu6EesWL8NTe3bisWefw8+9/RJQVcEDL72E9mQKV1ywGYcGz+CxV17EOzZtRv/ixfjOI4+D1ar4+Ruvx/GhM3jp+GHE0wksam1FMhJDKp1Fwozg9MAg9u0/hLa2ZmQbstA0Fel0EsVaDY8PncYZFNCaZPB0H9BVEFUB0zV4hg5XU4K0REPVoYmGFp4fFD3is9Ug1zYuR8Wq4JKuC/DA4QfRm+jCmqYV2HF0JzZUt+PC/v6iG1p3dabv1hcDyw7npHjo2/+TVl7+C27nQqAag5Z52KLtn2rc8GvH3/JikG8gCSwQAlIgLJCJlsN88wSe/sFXWlYvLn1a80fexZxyl4jpAxeR9sJ5Hp6meuoQ1xungVoHqw30WZXpyJ+fSeNeL4sMDWFtsgXdhoH89CDGmIKre7uwrG0FapUpuLldiGo+DDMJIlINocCjITggyI/vR96OI9F1CXafPIynju9GUxJoNJpx9bKLgj4QuckJDJ0exujoJEKhcFBOOJEwAqd+NJaApkfw7Gu78cKxPbh23VW4fPM2HDx+AN+652588Krrkcqk8M2H70eDGcd7b7oJJ4fP4B/u/A5u3HwRtrxtC/7xB3eiODWNT3zwQ5gplvHn3/k6wpEQLl25Cl1NaeimgagpghijOHz0FGKxcPA6VWnQhnpkcgqPDh7GECmiLQm4hh+kHhKFBk+VKohoJjLhJBLhGBzPxqnCcBACGpRuZhzN4UYsTS9CvjaD49NH0RVpg05S2DE+hEuVYfxST4VDa3uGq11/ZsbbTzFubfGLh36NlY8vg++QIJNDjRaI0XSHSxd/y1O6d0tLwpv/PsgzFw4BKRAWzlzLkb5JAnf831/edtEa7+FE2AmJusIEKliQ4mgDrAIiwvgp4T7j5Mi4T7bPxFGkSTxCksgTghgoVpshJJwKykoYty1fhcuWXY7TJ/ajdGo7OhscEKMZ3POhGTqgRsGIgnKxiEMn82hZuhmD+Txuf/lRtKR8LMr2YmvvRfCqNeRmplAqlVEulNGQTcFQfdhONcgOEKb+cs3FiZkJvHDkZVyz4SqsW7wGZyaH8N2HHsaHr7kJDU2N+Nr9d6HRiOD9N92ME6dP4Mt3/QA/d9k1WL1sBb5213dQ+ze3wy++572wHBu/9ZW/DmId3rvlIiiuBUJ8pJINyLa0Y3KqALtmIRaLwPFc+B4BNAUPnzqMk94U2pI8EAgi7mJOILRFGnB191Z0pzpQswuwnApszwFRTLi+j+fH9mCgPBS4LoJKiZ4H2wZOljW0J9JYHS7jvbEBpHXCiBKuEqI5YK7JvVpIdMWqN5MIAkpBqOpaXrgyzZe+a8m2T8k6CG/y+yBPWzgEpEBYOHMtR/omCXz7G7+7bdgZerJsEsXlFArXELQmIhwOc4OqheJOt+oZqEQbcLrmAVYNfXETz1MTZaJgnRlGg1dDVYnglr4lwQY/cPw1lId3oydtQzOywT2zETOhaiFwRUduxsHpnIOuJatx6MwgvrPzMTRFPVA7hps3X41UyEAuNx2k+Yu6BNVKBcSvIBSJgygaJsdOw3Yp9o8NYaQwjPdcdhM6G7oxOHYC33r4EXz8+nchnc3ia/feiZZYBu+69hqMTo7jT7/9DXzwindg4+q1+Oq/fhuqR/HLH/hFnB4+jd/4+l/DNEP46NuvQDakwfNsKFRH0XYBaoB5ftDvQVyPyPTwFYo7976Mk34OrQkOV3UD0SD2bJHa2RJuwLuWXIkNXeugaQY830W1XISqm7C9Ku587QG8OnkwqMsgMh08CxiqaGiIp9CuV8HdAsJEQ25wDBckaliUVtCRFJWSOIbzPjyPg6giJkIRQg7EV+CRxddtvfEPHnqTy0GeJgksGAJSICyYqZYDfbME7njgT7btV+wnR+IxxXIpVIsgCRel8gzUkAHXsRBmPtKUIkY4ipaLPTlHZAYiGdFwFBrazAhamIs8dNzU24MLuy7A1NgQvPwAsnEGRWyqvgvdjAYphhQ+CoUKBic8NC7egJFyGV974V60xgHNSeCGDVcgE4siny/BNDWI7k+O62Jm7BR8v4ZEpg2ObcGIZvDM/lcwXhzGz135LmRjLThx5hC+9cRj+MS170IikcDtj9yL5lga111yKfKFGfzRt7+OD1xyHTatXoN/fvQe8JqD9157Q1A98jdu/ytR2Agf3Xolwqhv5qFQDEY4DsWIBDfsoheE53OxR4MRhjt2v4Cjzjha4z4c6gCqcC8QiKzGpBLDte2b8faV2xAKx1GpFjFw4jCWL12LycIk7jnyMA4UTgSdI4XlYNwKIR5NoC3swvYKoMxHWFhbHIp81UNSU9AX94OU0b3jHiyXI6cZcBIawhGKXsvGUqPtuk/e+BkpEN7sF0Ket2AISIGwYKZaDvTNEvju43928THVfXIsmlIrHoU3VQWmTmFibBzJtixYOoIMZ4i6DgzOoYoWyL6K3TMUhgi60yksLYIG7iEPAzd2d2Jd01p4VhHO1CGYiTjyUFArzUAXtRV9BhM+FK8IG0koqX5Muy6+tfcxpKIcWi2KmzdciYZ4NHAvRCLRelllUT2xnMfM1BjMcAiRWBpUD+Gxl5/CZHUcV6zdiuZ0OwbHT+KOZ57GTUs3IByN4MG9r6LRjGLr2g2gxMM/PHwfrl25GR3NLXhk/8swOMGWJSuRzGbxpYfuCJo+ffyiq2Ayhkp5JhAM7Z2LgKCbo4paVYiWUNCwaaZUwLdeeQZHnDG0xBhcYoEFxgUCyoCIp+PC1ApsXf62oB6DyNbI54axuLcbFg3hoVNP4/D0cZQdhqGqhkwsjdaID9vPw2MeVMKhiyJLTAR8zjWgqtdxENcd9lU8WTVxJqUiltSw0WHYpLVe//G3f/zBN7se5HmSwEIhIAXCQplpOc43TeD2h760dTBEn5xMNmglj6I2VUZt7DgKhSKUuAGlIYUmwhCtWdB9P3A/RAmQdyIYs1VEFIayGsLSUBThaBNiVLRiNoJGScXpCXBGkLdqmC5MQ+cUpEaDisOxcBgdbW0YrjrQdA3Tug1Xt1EYt9GtpxHVdJTLZSi+D+aywGQv/PTdrW1oaUxh58HDANEwXp4GTSuIZxKghoFKpYSDR04jWiXwVQWD1RKinKI5kUJXWEWuXEJTLIMzpSpGayX0ptPob00jV6vhsdNDoJzigmwrWpNZpMIhDI6OwDBDQctpVTODSoi6rgcVIj3O8NzEaVRiQHPYg0edeklnn4NXXBjjDL3hVjTG0kFDKdd1EdJZIHrUcArH3SEM0TyOOTqaUhl0hHy4KMNjonujH9RgEJ8jKlAG5aFFpysq5AGgMI4w1/CCF8dQxkQkoeCCmoO3KU3Xf3yrFAhv+gshT1wwBKRAWDBTLQf6Zgncftfnt55JaE9OZpu0EqeoWS6Gx89gKjcOhEQEfhSLPRvVshUEBVLRCZEQWCSEqBZCkjLU9Bg+sPJiLGlZjJdPPYMnTz0DzhU4NWE6t4KeASESRsZMoFauoVCy0RRvBkcN+0sVrFvUBDum4WRpAqWiOJ4ArgezWkPMYUHAoq7QYFNsTqcRMRWcGslBM2Mw0ykgHcFJaxq5Wilo0xx1CdQCw+kyx7TrBS2cYwy4MJ1FlFnwqYaDxRqYpmJRYwJ6qIKhSgkFV8V00YZqORBFnJtME8P5PHRN1HKgIJoelEyu92lQQDQFVY0ik4ggpjlwmAXueiCOD3e0hOKeCRhOENEB0UlSNI0SfgrR20HVDSitERR6s0h0tGORCHJEFR58EOYHlpZy1Q9qQ4jr98WZChVxpKJ+InwiykuoGDASKGTCCIUpNhVLWGeHb/it63/n/je7HuR5ksBCISAFwkKZaTnON03gm3/3Kxf2dbs7IjGmuaJHgufCcVkQUEeIG2zMMQrYjMFlIoOf4nBZxz8UG9ClhxBlDiwthk++7R1Y0daHHceexv0nHkZrtB0hEsKh3BE43MM1vVeBMQenpweRVBNY274+6Plw776X4IVmMKE6ODowAM1TwLuyIKaBhloNSdsFdRyorN7dUNyg5youph0f2VgM6aYGDBEXI6eG4JerMLsa0RyJY2O4D/vPTCATjmPf+Bl8ZNPlyJoG9u9/Hku6+hFv6sarA4dwIjeAGYxjnHhgormS5yHseYGLQRfNDsRdPBWBhwo8cScvNnpK4QVKQQQqKkFKqCqKSDsePHG9NR8NtTCO7TgAv+pDU9WgF4ToASGCNX3Ph8cYzNYUMluWoqUnAk+tgQohQlhQnjmX94M6EksiohI0C4SDaPUshAETJaspwBQK29TBDTVoQtWQd9DsJW/46Lu/JAXCm/5GyBMXCgEpEBbKTMtxvmkC3/2rX7nwov7C9mTc04O7YmEjoGq9myO3wcRdL6GcEIWIfgJc9FSgOj58MA3dSCDk26gpYWxr6UF/12q8cHo7BqpD6Ev0IqHGsHtsLyzPwW1L34kXB1/AaHkEGxrXoC3UDubVwMw0vr7vEfCYhYnpSYRVA7WmDEhYR1u1injVgipSAH1hugdOFzwMTdYQIj78UAw93c0YUyqYPDOChE+hNqfRlcxiW2wF9g4NoyuRxZHxYXxo8+W455kH0aABS7uWIudwcIXgmf3P4MToIei9LXATMYQIR8xzYfoMqvgXZFYgiM1ZiAQoCjzwQCD4olbEbHdIJiwHlgPPcuGXatByLgp7J+HXRLEo0f6Zwfe9er8qAjiuj1BzFO0X9UBtNUFMFaquQFUoolAxWeT4WHYaq2PVoCGTOEdYbkSHSZFVIqwQogkUIDIYREsGCsc1MTidumHDO/9cCoQ3/Y2QJy4UAlIgLJSZluN80wTu+8qvZ1e00Y8mIoX3aYa7lIqSheI2nblwvcQJm7V/lyqZA5yd2aDxM+/StFoXVTX6oT1hMDOFJPdh6dEg6p8kmxEySxhwZ7A82okOhLB3fF/QGOndy24NSi1vH9iBzlgborQZwxPDWNG1CH956HnkqehiWIEX0eDGI0iDo6PqwLAtUCauByhbDK+dLmGRb2FyagaRznaoLe2oJYDTxWmICICWSBRdWhgXx1Zh99AZ9KWb8MzQCVzdtwZr0g04dGw3VvQsRyLbjv0Dh/CDp+7CeHUc0e5G5CIaUpQi4Xowzg0MFO4FYd4XLaxpYCsIxIVo2ixiE5hIafAZuO3CrVhwyzb8CQuFvRNQXAVK0MpRKANxmOguqcDzPGiNJlKbmpHoTEOPmOCaKMkMxKiBUsnBr2Qn0RUW4kAr+m7kMCNagcJpV2ipV9UUYWgIBJ0wYXgsVKzYyTE3tPxjPRd+8Kk3vSDkiZLAAiEgBcICmWg5zLdGgG//nDrGq1eF9NL/VtXaUnGby7hplfyVt7Vu/eQDhBAmOj6G9ZmPRMzBL6m6m/wfO8Ng4QwShKFqROD6NUCLACyHcVjY1L4Ky7UUDk0cQLmWxzv6b8JrYwcxWDqDzngbUloLIkYqsFL865GncJRq8HSCTITD0DnivoeEx0BcJ4jiZz4wVCTI51208yJyxTLUdAMSrS2wIx4qQRtlIAGCFFRsSa/F8EwVCT2E50ZOotMwcFPfmmCzLlSrOFEqoiWRwaM7H8O0MoEpyqCaOpKMI+X5QbtmcWfOhM9fVcADSwGBpqiBe0B4W8SfhWVA3OALC4LvuPCqbhB74UzUMLNvAootojYAQ1eDWALLdqFoIiOCQGswEVmfRaojDTMeha/4UKkIAjVQKtr4VNM0emIRu+ak/oKGlvytR50iKxX6FX/4i2GzeK2iEkXEd3AaHbNJz1errP0O2tZ+sqPjwtpbWxHybEngvz8BKRD++8+xHOF/EoHDj/5pazYy9qemWvx5MA+e2nEksfGLy4U4mPuIkV0/6DKqj+/Q9VL3h3dH4YcySBGOshZClVWQm8gjTcvwdAO9i5bgbale+NU8Tk8ewpLMShCiYKw6Dsu30ZNejJAexSMnD+PA5GkkdYLTVIdCfCwKuYipHIrYeYURnSvgDnAi5yITy4A7ebyWK6K7tQmxGODBEvfy9ToFQUCkhlWZ5eiI92H/6CBKxSnctHILCsUZPDdwCO0NnTBME2XPxiMDu1G0JmCLokiej4jnIcICwz2oqgYBgUIgEFULejsEYYaBNYEH1oDANiDcH64Hz3Hg17zAioApC9axKaguDdwyqhAbopul5wfnCCtCrDMJc00KRksMeiwE3dCgiTLSogBV0cGnGqfQ09hzkKF3a2rd/8jPzcOpR/7i2ljo5Pd0rRIHVJ/rjfe4+uZfzay6OWjNLR+SgCQwPwEpEOZnJI+QBAICw0/9XUc0PPhnCp96L/c9ELPr5Gh0y7K+vuvsOUTFww8t4cWHHlUw0/mB3RE4ZhpZylFSTZRZGeOjeXRmFZQMikQ0in4aRrjsYTQ3AeYoiIZjMDQGRbOCXgpV5mK0ZmFfmQKOh7RGMQmKGHfQH2EwdLGpAq2hVmgzPp558QB6OjrQ3JnBw9OT6G0LwfELdSEx920P4gpFn4MoFKUJpFKEWa1gfWsPnjg9iIFKCSuyrUFHyNFqHrpfgcmcoKyzWy0DopkS49BVHVSIAs2EHomgrAA1QuCIjAKFBJYFseELs4WosChiAnzbAau58Ks2QjM1uMfHoNgidoAHmRDCalCtOYFbQnhyzI4YwmsyCLfGoUVD0Aw1KMQYpSFUSx4+1VTAopbFO6Ir7MsJ+cLrQm305e+sMNnep1Q2liGK4cJo+KYTu+TX0ouufL3jo1zWkoAk8JMJSIEgV4gkcB4EON+uVo/sux7V03/JnVxPEACnxT0SWvrL4cnc18mlX/DGxm6PJArlX/dK+36TsGr0g3sisI0kUpSjrAZ1BzHlK2hNMRSYhbjFQMdr4INTMHJFqK4Hrmqw42GQpjhaW0xoYeHHBwq+hoGKDs9laBRtnj2OiOZhaYiD+RwdZhvUSR/PPvMqOjvasGh1J/61MIneLlGyuBDUC5j7slPGUXIoTlUUNBADTY6LmOPgWM3FSZdhaSyJd67cDJcwjI2exg3rV6E0sh9Vy8LM4D4QePWYApFtAA09qy4BV1RUtDDKakSUOMArI/swaucC8SL+J473fQ7f8eBUHdjlGjDjorBvBLwiWlmI2MYg/BM12w0qQyqqArMzhsjaBkRaYjBiUSiGAkNVEBExCGUfn24ooS8THXbM9q2pZZ8+NTeVU/tv/0XN2vlXsKcioAqHlnleiSz5lcjyj+06j+mWh0gCkkA9Vlg+JAFJ4CcReHn7PzUvSY9/RvVz74FfFvsz5dwKIuepFisyaj5OQ/F9hPH1zJp4O5gVB7fJL+xLw9aiSFIEFgTCLAwTHStCJRDHQnGkBuwfRkuhipDYwInYxCls5mMmGkW5pwm9vVGwsHARAJan4WhVC/z3zSrBay6CTdexbXRwHetiCRwZPAUtkUYkFcO0TtCe8VF1CsEduihtDLseBLg3T9BmRNDuujBsB/vKVZxwfMT1EC5vbMMnLrsF47kxjA+9hqsvWI2BA6+gqXMxTr58F1htWsQbBrEFqtmA9dd8GKNnBhFqWAQebkMqlcE3X/0eXp44ELg0gowCEbPhcbi2C6fqwipVgLyHwp5x+EU/sBiI1EaRoTDnZhAuhlBXDNH1DQg3xxFKREB1FYZCEVFDKJd9/GqmgN5IiSta+nGqZX8v1LhizKlZW73SoS+w6tAizoKER1Al7DK94yU3tun7hHTcnelbc0aueklAEpAWBLkGJIG3RODb/+fjmy9YWXs2FmZaPdJedAZUwH0bRFEBZgcNk4JNMIiYpyjWbHx0sANRPYQ4ZyhDg8lqGKE6LtILcIoWRvdOoG00h0zUwIplYbS1qMjlajh4yMJkgWEkHoe5ohWN7TrKxAfnFGVfw56aDmq7WEZ9RBUt8O2frjkYqnno1AESCgHRKGIRHYyWgtoKwsVAhZiwgD15Bd1GGF3MBatYGKxZOOj4sDlDhKq4prkbP7/pUkwXxjE5fAw3XrIFhakcQqaGoT0Pw8oPitDDYLx6ZhVWbXsnxnIzIHoMNRJDd/cSfP3Fb+Klif2ByyAI6BRBix6bFQgOrJIFPuWgsHsMvCyCGGeLI2lqYD0QFRVF9cjAgrCmAeGWGMxYCIqhQ1MpwoqBYsnHLyensDQWdJXknGgWVcwauB+DZ2vCylOvsOgHaamgYVTdJJzwhlt63vaBf31Li0KeLAksAALSgrAAJlkO8a0R+NrXPrm5pFeerYQ1zfE5iEeDOv/ijtf3GaIa0JsAzhRdTNqitaKCcSWKnWoErT5BgvuoQEGC2xjjOi4zSjg9UgHfeRJtqo9Lt2WxZLEoFCTSAX2Mj7nY/mwJA2MOptcsQfeyFEqkAgsEDjQMumEctSiY7SDueKCVMvpE7wHTxIjH0J6kIFEOSxQpED0PgiBGH8RVsG+Ko02JoMu34VQtDLkehj2CMgFsz4MK4NJkC96/fhtsu4ihw6/iPTdeg9zkBGKmjuH9j8PJDwQpicJtYKRXYOWltyFfcVGsVHA6V8byZevx/YP3Ydf0kaAuQT0wUjRnoqhUKqhVbdTKQiDYgUDwC15gyhQtqjVNQ7VmBSJB1VTEe1MwVmdgNoZhiBgEU8Q90KBuQtULofPfGjqtM2agEy+wkIinECWi2DLnfjAXIjCBGkq9o6NFkS/E3/lzv/gPd7+1VSHPlgT++xOQAuG//xzLEb5FAv98929tPhE1nx2NZbSKA7CKh6RbQbEwFfjFNV1BlNXguqKwkFG3Kng2clWg7KpIwEeZUWThYYKpuMQo4/hAEbF9A+jv0HHp21NIJ+sXKQSC6wIvvVLFizuLGO9uR/sF3SiTEqqKipMVjlyxHovnqAY2RBqQn8ghPzaJt7U347QIRtQZzKSLMmVBWqPYLDVRhMgxcGSG4DLTQLFYxinHwWGfB3ULRJnimm1D58AmPY5bF6+Bz6qYPHMU777iAuRy44iHI8gdexF+ZTgo1xjcoJst6NtyCyyfomx7GBidxrq1F+AHhx7CzqkjQcqkKeIU4m2iDRUOjR5DvlpGreLAn7JR3D0GVvQCERFs7F6YIiMAACAASURBVJQGxZLEVSsqhdkeRWhtA0KN0f/H3nuHW3KVZ76/yrt23ien7nM6527llrpb3ZIQIglMNpho4bE9g4fHxuOAYYyN7bFxxHLg2lyDx8D4IowIQgIEEqCcWt1SB3Xuk/POqXLdWbWPZOaPe9Hj1l+na+s52t3nVNU+61tVvd71fd/7vhGLQdAsX7RuViSdmivhtiw0IdrkBSK30/Fm8P0oeyBEmmaEEVZeI5GW2Ni22OQab/2Nd/55DBAu8bmIT1/9EYgBwuqf43iElxiB/3nPx68bTycfWcp2a01XorVQQS6OU55fIDPcg9edIkNAxvcRDYBRqSHwaXtZlh2dvBTQRKU38FgKVPYbNS5eqJJ+7gJbRw1uOpgln1OiBVKk4j0fnjrc5LEnqyyNrmXgwAYaciNqAnxuoUYws0QXHmo2z219OwiKLb51/4949Y17aXenmAubKJkmVVmID4vegzCSYQ7dBGeLIYfMROT++J1aC1tV6ZEVspLLfKNJDY2dcpJ3rt1JgE15aZKDe7ZQL82SS2eoXngcxW9EAEGM05GS5DYcIJHuwVcT1IMke3Zew5ef/gpHi6dQ/YCsa7KWYaxmm/PuOHXJomY52MsWlWfnCZtC20CQJsV6rnTi5/uRJbTSb5K8up/UYA49baAaOrImfB4kpKgZRGQNhIMmkcWzyJYIgCCupQQBJgkes0wmsxKJnMyedpudtvLWj73xj2KAcInPRXz66o9ADBBW/xzHI7zECHzhW7997VSu8MhSvkdveTK1hSKt2TM0amUUwTjozdEVQl40/AlpINFo5we0/AyLtlAeFJZLGl2BQwmDvWad2dkG2lPn6NU8bjkk5JB1FNFPQMjSssOPHq5wYcqjduVOsju6aMoWTrLA0cUKtfF5MoFNu+VzQ9d6ci489PCT3HT9Vfh9BepGiJxpUMHpWCuLXgHRLCgyCMsBN5kGLdvhvpaNI8mst5tk6kU8PeSEnGNHZpCPXnUzwvbgzKlnMfxWpF7oN2t4xbOEgRM1VAp7ZlkzUXo3k+sZItDSjKzfw+iaMb705L9yoXSO0HKZvNDCn2zRXK7gjSTYsLErYnE0l1vMPz1FwtXoyQtBKCG8pER6CEkzgRv6VFSL1BX9mH0moakjRwBBjYydRGZEKEiKIoIikgWeFxlFRX0PAiIILwcpwWE3w1RBw8irXNFssKfJ237n9j+8+xJvi/j0OAKrPgIxQFj1UxwP8FIj8C/f/Pg10/n8I8XuPqONTKPd5uLcBEvzMwSqFpUZDMvDtFwKBIwkJXQNan6WhbZKXpVohwpduFGJ4fqsRVHs3g9P07VUpZALuWKnzsZ1JqWqyzPPNpicCakqBspte/EyFrYioRYGmArhzPwyUsuh2rQxA52gWEFptjnY101dUcj15lFTTRqSG5UORKpdEwupl+R0MeRGQ6Nh23zLsmm7HiOVZYZp42sSR/w0mwpD/NaVt9JbyPHEEz/k5MnjkQJiXybL2XOnmFmeQzE0utNZenPdZNcMIakqm9bt4MYbXxst3N86+W0mSufIKhnmF3SuyA/RLJd5sjTJmpEklaAcKSFWJ4psSQ2zvm+MmekZ2rZFOp3hij27I6Olx2aOUsw46BmF0EygGUYEEETjoZBiElkCNRD9FR1nx1YorZhEabiyUI5UmUrkaPVmMFIyV9aq7Ko5b//Em/7ka5d6X8TnxxFY7RGIAcJqn+F4fJccgX/69B3X7NrKI+lEyxAUPGHOFAkYioVJlaOdtLBHnnE1HqhqnGglGFVtAiPHvKOTVqDkhowpHs9YPqOSxWhOpjlvkzp8kZTlRA6Rnu+hiFS7cELUdJyrdyJt66LpVfAlmURXP1Uzw1GvSaNeI+n5DDgh9nJIs+1x0JCYbjn0dOfArNOKnBCkqA9AETV5R+d0SeImI0HdafNNy8ESC+zcInuyCgt+QDHbS5cVsL3iktQMquUyjXodU9eicZ9bXmRZCdA0neFsmoPbd0YeCQ2rwejIKH19Q+i6zBNTh6lZy6RJUamYbDJTuK7NSavFQH+SBXcBy/VJOhL7ujbz2hveQDYn3CWEJoJCJp3j+OmT3P38fZx3Z/F1OQIlqqpGvQmRUWTgo3s+5XrInB2wLuHTl/BQFcEmEUJNEqEq4+k6gSEUKCWG2iH5qvT2X/y5v4wBwiU/GfEFVnsEYoCw2mc4Ht8lR+CLf3LHnpuu4P5sOuiRFEWUuYV2MGEgmutC3/eDukRoI6tJNwxS31vW5M8tGpTlJN2awSA+Z7yQbtciq6uc9RWGFZvhtIq31CZ1ahaz3o46/QVf0tY1vO0bYFs/Ta+MLOiIsoyR6aKaSPF8aY7muWnSogEw143npdguyAKNOiXZZHOvSVMqYYl0u6jpB35EcxQlhpNLPq8RqodWm28JQSJhs9yyyOMzkoTzLjR8GdnyRNdiZK7k2Ra240Yp/DQyrt2OFBTX9KZJKC2SSR1Z15A0NWog1DQFXXzJMgnFZKGso7Qq2L5NOdfHjtFeLrZmUQOJgq+zP7OVG7deQ6GrC1lRCTw7YjQsV2p8+9SDHK2di67dnelBmDo3fMEJCTCCTsOmHoT8fF+TnWk/MOTAl6RAkYTptCT6GUTRRgAK8aWEXqB5pybUn9333r+LexAu+cmIL7DaIxADhNU+w/H4LjkC//Tp38wc2qn8XC7V/pCmWlcpqjA+iFIItFvGQ54y8qWQ5LgmVa+SWfqApDS3fG4ykD/nDpLwAgbcNilV5mKg0Od79GsK44FKQbHpzip4ikZQapN2FSRDg94cXkrCtqvInoPqeZHngZRIs2CanK0s4xVLZH1otk1GMgWG7RZzjsLmrhSqWqcuOXjCYVGSo4ZJ4b+ArXOyGHKboUdlkm/aHm1NOC8K5QaJgtViq+LSckMUP8DwBKXTx/I9zkbvEoV6GdluEiYLDAz2oSVscklTuF3jBA6aqqApcrRblxUZF5WZYohRWUQWpZa+NRS6k0wtTzOYLJBNpHnjugNszg/RatWoVGsIDNaVz5HO9XDfC/fzXPEU63s38YG972GqMs3XTnwNx23i2TKtpsvHxlwGTaXkusknQV+A5rBC4zpV9YQvlcihiJZFPwjUi66nPTld7fnzK9/y+0cv+caILxBHYJVHIAYIq3yC4+G9MhF45pl/0PqblTea0uJfGFptLNIBkJLFcqnn1aOv+92jIpt99uydRnLe+ZDJmT9aaNbyH10cJavrTDeamK5LQoCEUKM/9OhRFYrC5UiyGMireEmNQE9EKfZAaBZ4Lkbgo/kemmBHSDKeqrGYMJiVJOrtJgVPQq6a9AQ+GWGEpOisTTvUgyaOME2KDJNEkyIRi0EABFFiuEVXabZafNPxaSod1oA4JrQ9Cp5DynFQhQ6BkJMOoKAppDMKjy01yDfqpCUfxczTPdQLegtdDkkoSsQq8NwwYmEgGjVliYaiMlHxSVSWyZgJCmvXU/WrNOfn0BWVrr4+DgztIuPIBJ5FpVgkCGV6e3sYHFzDibnjzDSmWde7iddd+WaWa/P88NS92F6L6Qa8KuvwtvUZ1woG/rTs9302iVnS3IUB15389Yxe+gVJdgxJEiJJ5jk/yP9R2Mp+vXDrb9Uk0WUZv+IIxBH4/41ADBDiGySOwMuMwIVHvrglrZ6/02T+NkLhmzDyUPba3zv0k6fPnnl8m7bwle+qLK/99Qu99GSTzNtNzjQkNMel11A57anRQtyrqUwEIRndZygvExoqnkiOS8J/0Cfh+xgCIIQBmsgEAE1VY1nTaEqQ8CTKJZ0uW5QIJFxZpj/ZoiF7OMIZURbtghJSIGiOfgcgCB0ETYnEiO5xA9qqhifKD35IKFZ2L8BoWyTcgDEzTbvdIqnq3LJxmO+fv4hv2Wzt6mK8VmN4pBdDc3GCNiOZXizBWFgUGQCDkutERIJ8bw9HlpcpOU1Sus5gXw8L1WW8uQV0RUHOZckns+Q96FLUqIwhSgKaoVP2PKqeRSj5qKrO2q4xXLdNtbmIEFAOZYmPrXe5at2uKSt91d7esYNzL87FhR/8/e6sdvo7uloZkmTNC9T0V9vO8K8O7P+NxZc53fFhcQQu+wjEAOGyvwXiALzcCCwcv3uP7p79e82d2Cd2u1Ji+GT6ylv2SNLNQtknepXOPbRfqX3/rnbl/NDvLIzSm5JouFXqnsbJmkRSGCtpEqccSIYBXarENBJZxWN9TsJPKFEXvsgcGI6P7AiAIEdJcrHgCgDhqlLEapACiZPlBBtkFTXwsBSZ3mSbluLjC8EhkdaIMgiiZOATWhqnSnIEENqOzT2Oj2KYZDWdiufiBj5ZFBrFIvmmy3u2XEWlXmFiaYnf/uAvc9f9X6fUtnnDVfu47/nHuWHP1WwZHuGrj32Fdx14F7PLSzx+5AiHrt7PU2eP43setx+6jS88fj9fXTxHqKroqorl2vjNdkRDFD0XgrCouj6G65MIQjShB6GolH0/YjII2qgYuyLJyCtgKW+myCVCfne0yjWbrn2h1lh7zdA1b2y9OA9Tj312OCWNP6IG82OyorvoXf9iO8Mf7b7+I7WXO9/xcXEELvcIxADhcr8D4vG/rAiEU4+ZbevcL/mN058KW7MZIeMrybovGVs+nD4/+n9L73ynX3vh7m5JKf8Pqoff/+h4KfF1bTddUpm634wWwban82RNIdNus8lUOO4qdAUuBU1kFWTWSjajvTqW6qL5IVY9ZKEkXJFUCGXajkUyITPWq6KYwuNR5tlKko2KHkkpW6pCn9mK6I1uRxAgMnkSMCFqUhQZhGWhpKjR8n2+b/ls6uqmoLmUm1UcWSKPQaIasDxb4h3X30q5VuTIC8/z8Q//N778zS+zUK3zM9cd5J5nH+H6ndeyb/duvvjgl7htz2uoNGo88OiPeftrfobTs2dwPZvX3PA6/tej9/KdmRcwc3ksJaAWtnGERLTnkXB8NNeLvnSfKFOC7Ua9DI5QgNQ1dFXjrA0Lno8mmi6FpZWukTU1fr27wlt2jDTV5JZbk5ve+8SLk7l8+K/fovvj/zO0lzKSrIaSVnhESo781/TOX3/uZU14fFAcgTgCsZtjfA/EEfhpEfjhXX86cM22xJ/L7uw7fWtJE0JBoj1eNACi6I5s9D0sJ7KnINjrNaf31JsV7Y/GC0w4BhuSbUiINV6JXArdQOdYRUVtNFlvqLxgh/SFHt0JnbUDe7hyTZYHLz6AgUS1LHHTyAEObLkaM5ln8n8bJz07c5qJ1hk8tYYfhhwrm6zVElEZAs3g/VffQl+6n4XiYiQ29MO5xzlWOhPtvANL42xF5UZdpu4HPGyHrM8k8arjTE7Okx3uZTAzRP5Um9NHjyOFEqFQJ4xEiYg+Txggib+LzEREn1QkPJEJiHyRIr3kqMlQvIvcgCwom8Lz2ZA5+KbXUMy3udCc4/YNN1CrlJm5OE2jXCYQVteALmsRfdETHhdpoV1goCgwNLyeL589yaTwVxDXNjT0pMFOv8aduwLy6cwLipH/LdUonPdDZY/fnPlU0JjeKNgmkhCgkpUAJfO9MLHmb/3U7ke7Nry6+tPmPf55HIHLPQJxBuFyvwPi8f/UCNz1l++/bvd27RFDszWxyIu1WDw4YvEUi5Xo4BffEZZDE1WfJ4o6JT/NU45MVgvY1K2gpAwaCjhCj8A1WKwobFcSaFJI2VfZnFHZMHIdyUSbb5/9Frokk/e6uXF4L9dt3Y2qQK1e4+TiAhPVcRzZQgo9Fipgylr0u4iegwPrtrGtZwDcNk3b4nhzkZPl85yvTFFvBZyrKOw3ZKp+yKN2yFjKwGrOstxsUvYCNqcH6DrRYObsxY4LY8TWeNEXXopUCiMcEC3n4gcdt8aX/vwT3xdmToKuKI5REypXHdqLlbNpyE1eP3yQH//gRxSrbRRFicyZhKOjImiOojlT0yIbayGpLBgcfV1dHMvanNBCQqFpINgXioRparzOmucDYwGDScU2FKUphX4q9CxDlFYiICcrkWmVJBv4Ydqab4z83K7X/UZMc/ypd358wOUegRggXO53QDz+nxqBz975y9fZBe+RRiYhMuFIttgQy3hC3CjyDXDRkYU7AlXJ4GLdwbJ8hpM6M8hkUzr9vSmKqkOp3cDUNK5Nb+SW4f347SZmKkuzvkx37zqOTzzCw5MPRdd7/YZD7NvyKnTNIPQdQlmhWKnwwvg4LccjnVBQQg/bC7FD4U8kJIcDrtqyhe5sruNmKMks1Ob5+ol7eX5xjnNVjf2GFIGBx+yQDT0FHGq8UF6g0XRYFybperZIfXY5Wlx9IQYVZQIEEBCLbAcgCIQknBqFd4RgdIhsisgWCADhC30IASFWFvxokdcVetYNonT75HpSuMcqzC02yBS6I4bGi1kJMRkRsNC0SDxKfI7vBXiBy9lhnYWuDIl0EiFVGYomR1VG1WW2tYrsM5r0KR56ZLotUhqCTCHcNSUkIbSkShiugl3O/+zbP/RXd/3UiY8PiCNwmUcgBgiX+Q0QD/+nR+Dz//axvRfS6sPzuR7N8WSkukvSqlCtLqN3FQhCj7wfkJeJTJtalsvzVYW25dKTUKklTNqKj2st4tVtMsMFhjK9jKpj6M0GjmSQ9OpUlS6SaomLldOYqLxh00Fu2HooUg8MA6G0CGfGL3L84gR+KJHWQfadiN1gBVJED8T3uHr7dtavGYmaE8XCvVxb4u5j93FkeYazdZ2DmkQ5CHnSgbGePG2pwfl6mXrLYqQNPYeLNBernbKCoDpG6ZJOFiHKIKy8ix+IkkMnnSL6DTsAQQATscgLRcjo+4qCKuSddZ+21mLtUA512qfZlsh3966cE6LqWgQ6BCDoZGo6ls+O6+L6Dqd6JPyRPjZ2ZxDmEp4qR0wGwWhQZYmkoIa6Lrpoyoz6LjpfM75GNS2RSCuMtdtsdlLv+s33/tlXfvrMx0fEEbi8IxADhMt7/uPRv4wIfOm+T15/LpV4aCnTpVnCzXFqGaU4zuL8Et1bR3BTGgXPIx/4GMJNEHB9ldMVmbIdkEnIXLAsrOUFNuVS6ANZtg5sw69r1BYnaLshfYpPU+pi7+ZhHjz9A9KKyc9su4kbth1AU40oW3Hu4hnG55exrAam5NPX00cyme6oL3oe9VaDar0dpee3rBlheGhNtHYvVZe4+8i3Obo8w+mGykFdohLKPOVJDKcMiovjlOoNakmFzXqBgeM15icWosiIDIG4RrTDXwEDHVXCjiGSEDUWwEBkL6LjRA+CKuO6fiR3LNINiqpiJAykvMxkq4KhB4yQp1l26B0YisoQtuOg6TqqIjIznXJD5NgYZSl82naT4xmX9IYR9vabYHr4ujCLWtFxEHbPK9bWK1KX0TykQ41n2iYX0xLJgsq2dpMdLfPdH3/rH/w/L2Pq40PiCFzWEYgBwmU9/fHgX04EIoCQTj5UzPVqQmWwMbOEvXieltUizJqoXTm6XZec2MFG6XaxdIrmPYXzLY2ikAQIbaZLDVIErFvfw6tHroaWhmdVWdczwqlzh5H0YbaNdfNvR75GVkvyph2vZvfwVlKpHJMzk5w8cyrqWRjt72ft+u2k0rlOfV0S9tIhjmuxtDzP+OwsVtNl+/oR+vr6Wa6V+Pqz93J0cYrTDYWbEgrFQOJpZEYSBlZ5Gsu2mAwctqUH6H6+wtz47Er5oJMZEABBLNSiEVFkBDpeikSgISo7BMLdUYq8JMS7kGb2Rd+kpkaZBD0CCFCkymwjYKfeTXu5Tv/QcNSDIF4CDAiPB8exo/EIR0xFFTbYYDttjukNejaOsrVPQcoEhIaGrCpRM6SwbxJXCYU+QpTQEN8FM1Q5Yqe4kNMw8wq7W3X2NOR3f/xn/kcMEF7OzR8fc1lHIAYIl/X0x4N/ORH4/Dc+vm+6K/OjYr5fs0LpJTfH2fk5MFMkDJNUyyHjeHTJAcNpUXMXi1SIHWict01qlo+phkyFCilV4pfGdvOmna/GttuoikaxukQ+08MzFx7jG8/dQ1ozuXnDjRhNFdeyCFUD2W2yobeHLVfswzBTkR+EoA+82CMoYIkoNywX5zh25gLl0jL93TmMVIrHpp/hyOwFzrZUbjEVKqHEE4HCpp4ufBqcLs1TdD32SGl6jlaYnZiNFmiRERCgoMNmEHvzlUbFKKvQWYQjZ2Xfi0yWBBgQ5ziuFwEMUSIQjYcCIDSSNot6s9OUOG/T45qMja6LpkCcIzIHItsgXp7n4bruS+Ch4bQ4kXLYvnkjAwUXUh6YCdFiQUZkNHwBkAQNQqLmBdRcsCJHJ4VJI009b0Zujlc1auyphe/+3bd+OgYIL+fmj4+5rCMQA4TLevrjwb+cCHz+r39+356NiR8lkp7mB26UTg9DKVoUOx39nR3rkivzZFXhSEOmJ6WSzUiRSmEz0JhxMsw2WgzoMOEqpDyFA31jDIQOnmSgOXWqQYaQeaYaF0hpJofW3YjppqhWq4SOw0gy5Nr9r448CjpGUUEEQjqvTso/+pIkLk6e5fCJ07iiNyKf5Uz1JEfmxhm3DQ7oYVRiOCzrjBay1O1lJqtlqoHPDilJ4emlSAchekVMBuGw2KEsij+LnX4EFn7yZ4LaGJEGRDYjiBZ7VVAvxOItS1F/QSnRZlKqYSZU8pJOvmSyfs26DgAJhERzp3dB0CRFtiKikYoRhiENu8XTGZeRoV529+vIaR8loUVUy7qtYgcye7M6GxJNyrbDkuPjSdA2jai5UxHvQiei7ZBcVN79C+//qxggvJybPz7mso5ADBAu6+mPB/9yIvDlP/1PVxzaI301k/LWIPlGlF4Xi3PgCqAQ+iTqYajUJMlPefi5B0uyfNesynCXgaz7kViRFxicqIY0Wh6jGthqjiGzi7xVZax3jLyuU/UUlhpnOV85R9ZIRwDBcAyWiyUMt8YVGzey5YobO8BAuElGK/JKkyCdynsHIMi0WnWeOHqEqfkiuVyKKfsCz85e5ExL4ZaEQg2F52SdgqFQnj1Lq96ink2wJd1L6qkFyouVqEFRLNwCcAS+H+3mIziygkkiZoP4RMFSiHoSRI+k+L06QEE4MwqhI/Fn4fJYVJqMt5YwTA0zaTLSyrNuaLRzuSDEsp2VRkfByBDsiX+nUbZ9m2fSDsNrB7iiV0U2bHTDYMlWyBsG7xpQ2JHyXdWr+bLk6lIoZJ+iDsmIfRF9hCQTBrp3elJ73/Xv+b9igPBybv74mMs6AjFAuKynPx78y4nAl+78r9lDm6RXJRPOOxXVfaMsh6mIQgjYfv8Ljjz4ZUnLnw+aF0c1ufwOTWvuuWtWVh9qZ+hN+7QlDyUE15U509RpN1zetXYbG4a3Mbc4zra1m7k4eZqxNbsYXz7O908/QNpIcXD0AKZrMD2zwIBcY//B19I9MNrRX4hKC5E60YpIwf+ZQRA78KePPM25mUXyhSwX6qc5Mn2Rsy2Fm5IKFWSOygaDmST11hzVVp2i57Ej0UP28CILU8udnX20RsudbMlKs+JLUgeC/qjKUd9BpJQk/u8HkciRwAsCIET0R8Fi0BTKps3FsIyc0tBdmTWVFJvWrIv6DFzHw3P9iCIZNUQKUCEASUSjBCt0eTxls3aknz29Kqohyi4ZHA9+c3OG4YR83rODHwSeWwNnmyxVD6lyOyNKHh1AJ4d+mDrnBNnHF+rdd+6+/WOHX87cx8fEEbicIxADhMt59uOxv+wIhJ/8pDx7sHpFUnf+XFHsmyNdAm3Qb8l73tksFO7dtOn19g+/8MnE+rHk7Snl4t9XvVbv7830U0iHNEJhERB2XBldnRdqCa7MDPGG7ddFWYAjU+dZmj3FTVffzsTyCR4efxhTMzk4up+km2RmeppRrcW+W99COt/776WFKJPQAQidpsFOeUFIMAvw8OyRJzg1tUgun2GidZ5npy9wvqlwMK1SDuConmS0kKPUXmCuVopKDFcqefLPLDA/tRzFJrq+KKeI/1ZUFCPKo2AriMU3YhqslAI6vwG+30kxdCiRnZ4FLaHTyMI5vY4twQgZupd81g6OkDCMKGPgOG7UeyDAiBiHpqodimdE43R4Iu3Q25fn6v4EasLGkrO8Kg9v3dBXcdrhL8va8Pfa044TmMURWbU/mVTG36kojirKQaGUPOfR98ee3HdvX3tPUbr53/0zXvZNEB8YR+Ayi0AMEC6zCY+H+x+PwPPf/uPCSFfxUyq1XwkDG9J7FrJ7blsrSTudF6969on7soXgh09q8uLW3zzbTzonXAnLER1QODSmA4mZegYtMLhhcB0ikf7ExDm6aTO05hpq9XNMNs5jqgn2r91H0kkyNz3JWMJl/21vI5kpdMobYYdWKK7b2eavpP7FYh2l0gOOHHmcE1Ml0mmDOXeiAxBaKjemNSri52qSgYTK0ux5rJZFPaOxLdlN17Eqc+PznUsK5oJofhSsgkgTYUUHIXJ07pgoCQzxYrkh+r2itP6Lx8tRqSKRTODlFc7KTXryvWxUUpTPzTEwOLyi8xBG4ECAhI7wkiBnSOiGKFFAoATMDKeo6CHX9OnoCYf+pMl7hhOMDmz/XsKafJO08/dfmoepJ77yetN99CuGvJRGEupJfXc1tU2/NrDnP8dujv/xRyA+8zKLQAwQLrMJj4f7H4/A1GN/OZxW5z+teKX3iCZBOb25Xvd2Dfyki+D8c3f3Jf0jj1qNCxt/Z2qMQlai6JY6zXdhQCqAhVqajFogL0G1VWO2ZbFWC3i+5rFnMEnRXiCjJzm4/iBKS2Vq/CLbChr7bn0zZkooJIq8g0i9r6zOK5LPnZF1ehCCwOPpJx/m5EyVQiHFnDcRZSpO1yUOpXQqhBzWkgyZGtXqNDWnzbLrss3I03+yxdL0EoYmoSshTdvDFlKNK7oInSxFh3kQKScKmWTRphmxHDqZA3GEkGl+kdkgdBBqhsWSFnLw2qs4+8hjJMM8/YMjuLa7Qp3sJEBERkKAhReFl2zbxgsc1B0juODWcAAAIABJREFUnJDaXNOjkEn69Cgq71mbYnTt7n9LjH3wHT85swvPP3qDbt/3XdW5kEXWHNno/XxS2fPfpD3vb/7H74D4zDgCl1cEYoBwec13PNr/QATCMJQWnv9iMmdU3uw1Jv7Ct5b7pcitSEMyN/5WJt++80fjeDeNjaltp/ZfvNqJ3334fC33DW0HBaXGsteI+uREH0IyCFmqZdjVv4exbJb5hQnaoYxsVViW0qjSEhPVCyQ1k5s2HkK3DKYnZticC9j36rdgmJl/H8FKx2DnrcP+j7IHkfyzw5OP/4gzCxbZXIKlYJoj0xc401DYn5CpyHBENVnbk8fWbU7Vl2jUG2xu+Kw957N4YaEDEDSJtuVj2cJpoiO13GFxdHQPxHskmhRRHTv9Ah2UEEa9CSKToeoGkiqzHFrk1naxYdswpx5/lryXJ5/vw7aESJKGrmu0WxbpdCpiMfhCW0ECq90mlAO8zf2MJ0Ku6lZImx4tP83NRpu3X7lpxsyvP8DA0Un4vRB+pNTO1D6hNH/426G1KLSrQtTMgyRHP5Le8bEXJCmavfgVRyCOwE+JQAwQ4lskjsBPicAz9/3Dho1rnT9WvbnXBu3FjPBeEKn3iO6nmpakJb8lSRxG0Xc6VuX1pXq1+zMTWcalHENGC0wJTyysIeh+QKWZ49rBKzm4YTvVeglZVvFaNYxcH8+df5SnJh7v9CAIFoNtMjk5w5acx42veTuakVpRMVz5pf9dBGGld7DTM+C5LR556AdcKHt0d+cigPDsxFnO1GX2JVWKoctTssGaQo6aUmeqUcWxLcaaPiNnHCqTpZdMmDo6CJ0v8RLZkBepDFG2YEXxUICBzjEis9ABLRGOUtSIxdC3cZiwV6YqNdBLHv5sC0lKdHoWInAhgI1PMmlGapCC9ihKFoau0z3Qx/FuhZohsScPmm6R0LO06i6/sUllOKc+ROh8Rkp0VWWlez/O/IeD5nh/h/EhtBkUG8282/OVf64HG59Zs++jKzzO+PaPIxBH4P8rAjFAiO+NOAI/JQJf/syHD25b334wkfAVsYBFTXSi7h7V+zvFf6HgZ4cS0y04XNUouilOegqGIbG2WycwVWq+EzUqtptZRhMD5AKfcnkRP9RI+3XO2SrD2YCl9gwZI82N6w5AQ2dubp4NSYuDr33rSgbhJx/b/6MB4aWRWI0yjz7yIBfKIQOD3czaFzg6fSEqMdyYVKMSw5No5JSQdnWavFGgJjn0INN3IWDy1MRLDIlI9jjyXei4O3ZUFV+0gRYNjGKn32lU7EgzR05OAkl0/BgEZFBltl23C3oVphuzXD+0h5SvcXriIoEb4LctFM9DEoAgmSKRyUXECDHSfDbH5m3bufPEI5QFQOiSkdQ2KV2nJaXprlV4fXc53JiVW/mk7oRIad9paS82WHaaKAOQVd/x1PJUbd0v7n3zp2I3x/jJjyMQZxDieyCOwKVF4M5//LVDTsZ6oJbSFdcN0TwFc8WUyAkCfMdGE2l9yaAu6ZxvepEz4qCpsGyY6GYCI+lSbZWjRRCpn2RgsDffR0+qC1VL4DdLPDw5TVKvU7bnKSRyHFh/gFYxoFgsMUiJg7e+gWzX4Evmy51RvQgQVjQDVoZamp/gqWefZqISMjLSx1TrLM/PjnOy6nNL2qQU+jyKSk6BVG2O917/dubqRZ6ffI7uJZ0nHn6CDQOD+L7H9Pwy1+7ewfnxSerNJju2bGJybg5TT7BxbC3PvPA8/bkukobBhckZNq4bpdKsU23U2bFpK+emLlBzm1x13bWoXTqz1Um2DW6kN9vHzMIMzUYr6jfIaAaB4+EiI6cyaIkkgabTQopssr8/exY1m2RXoQMQDFUmIWs0fA25XOaKrMd1PRLllsds0yMQdR2R0VBCFF2JshiGE+I28u/94Af/5suXdlfEZ8cRWP0RiDMIq3+O4xFeYgQ++/VP3jSR5Afz2bziuTJqC5KtJSqlBbTufCRRlBMMBVkmgU/bCzlVDSnaIXlNoqYnqNSXSTfLkdWzn+plY/823rn5akqlBVrCRtmuMzKwmSMTj/HM1DN0JXIc2nCQ6oJFq+WgN2a49opdrNt6JbJirLAJfgIciM7/jmhB5C75wjMPcXapTrHhMTTSz3j9FM/PjUe/1y3pBOXA435fipoDDbvJofVX4dltTs5dYJgsJ594ivcdvAXHavH9x57gI+95Hw89+SRTiwu84/Wv4d6HH2JscISb9+3jX773r+zfci2yovGDhx7i9ptfxbPnTjExO8NH7/gwX/ze13li8hTDQ8OEukzdb6ElEqiKiu/6eI7bYUmEYCpa5FTpKnIklSw6Ci3R66DIKGaCoXyW0YwPShtdJjJo0iUJ15cwkBjQQ2wnpOYIbcsQWThg2hLlpIKZVRh1LDa0tfd+4j2fiQHCJT4X8emrPwIxQFj9cxyP8BIj8IV7/uCmsyn5B0u5bkWIHdlzFaSlMyxNF+naNoSf1enyXNKejyay6wh3Q4UTNZWiCwnVZ3q5iFGrMtwjqHp5Dm7Yz/6uYQ6ffIypVps+LWDvtltoscy3TnyXgp7h1vWHaCw0cb0QqzzPaF7j6hsOkS4MRIvxiw9vJ5Xe6QsQNftqaY7Djz9EUcpguyG9fV2cb57m2NwEZ6oBh1ImDd/je0FIW9EwJCF2pEZshF7fJ2+1GAhUXrf1Kl44e4pjU3P89gd/gW8/cD8ztSpvu/FGvvbIj7hiy3YOXXM9n3vgS7xt75uoty3uffB+3nzTbTx89GmmZ2f4rV/6KH9/39f4+sVjaIKyqKn4wsDJjMwqCEVGRTgxCirlyhgkUdJQ5Mi4KaVrZE0dMyEaEzVUU2QPhOKijyHLUbyV0EcRLBFh2iT+LnCSaHCMzJoUDreTXExKmFmJra7F1pb63k++9U9igHCJz0V8+uqPQAwQVv8cxyO8xAh87p4/uGk8o/2g2NWnWC6050pYc2ewAot2QsXIZ+gNQgquiyF36H6uJySWVc60E8y7Ekkc5kqNyIBIHxxif6aP/7LrILIfsNRoYqjQ17OGbxz/Hs8sPE+PnuINa/fRJxfwLIvTZ06jBA02Dvew9YobSGZ7o93/T1IdBbWxXprjyOM/hq5BfE9lw9gG6m6DByef4MTiLOcqHgfNRNQzcY/r0VS1qDFQDmG9meKA6TG3sIgT6tTLLpVihWw2w5uu2cUXf/w4ibTJjnyWibbD2v48gdqm6LfoSuaQfI1T5xYozhSREh2ZZdXxqKUM6rkUvioTGkZkTx1KAYEqoyFjBiFrjBR1p42hyfQoYGiiZSDEl308JcQ1OsZLkiJFpQIBjxKyjBoGKARoQYghQE4gSgui46DjU5EKVY6HeU6nVVIZhWtth6214P2/86ZPffESb4v49DgCqz4CMUBY9VMcD/BSI/DFe/7gphkBEArdihVItGyb05NnKc3No5hJkokUph+S8XzyUkjWFDbHYnGTaYYqp9o6ZQdysrBiUkDR2SWrvKp7jJH8MKZuMrl4jqcmZ6i4c8x5JYbyPbx3y83csn0/uqJQKi3x40cfolWeY6i3wNr1m8jke1A1M2rA81ybyvI850+fxNdSZAqDXLVzF5lcjtniHP/4+N2cqhaZrAYcSCZwHYf7g5CmopCTZbamc2wz4Lm5WZ5zhEKizFpVZ4chk/AsGq7F/VWPoUSCq7MmS+2A7qyKpdRpqQGhaNYMJHxH0CBDlAAU0QIgFm9FIxR/UYSiYUeCWSgnNN0QRTUoqCpSKKScHQJ8/KhvQCGUQwJxjqrgKXJ0DdEgqYvMgZBiFuaNwubZ9QgDBdf2sf0ONAgUFVfwSmWFuVyectZEVyWuarbYVnHf/ztv+eMYIFzqgxGfv+ojEAOEVT/F8QAvNQKf/6tfvWXzhvb9qS5F8aLFyMf3IXCFDVOIFLiR/kDRVXi+LnOioWGYCpl0h97Y9lXOtQ3KbY8RNWAeg12ZXj647QYK6QJICvPlOc7MzPDAM/cy5zYYWTPIB3bfGgEEQ9PxPJdiaZljL5xkbmac0KqTNg2MyAwJbMem3nIIknm6Cr0cuOYactkciqozuzjJnd//EifdFouWxo2mHmUyvu8HWH7A1U7I27dvZ6HR5i+nx5ENnbVGgutTBsuzs8w1PNSMyVnHoieZ4mAhw+RylYQC2T6dimzRXvFiiNgLK0JJqgANkRNkZOKworAotCOjLT6KEHSKHCk7oksRS0IwJF6UdYgMHeROuUFVsaXOtUTpQNhGJQTN1A0pN330MGStatOtihZHAUQkXGE9rSn4QofBEMBMossNMZal97//3Z+JAcKlPhjx+as+AjFAWPVTHA/wUiPwr5/+tWuu3lL/l/4e1oNjIHa7kS6AuLLhh6E2FYbugiTRY+Ovebys6P9rwaCQUhAbfAEjXE/hdFMj4QYMqCr9PZu5feMVHD93lIWWBZLNjVv2c3TqMN88/xhdyQy/sPMWbtl6PbqqRvV6QSCcnp/n+Llz1Fst1MChUlpG04S7oUnT9qOmvxv27GbH5k1RDV80KiyUFvi7h7/Kc40Sc3U4lDaxXZcHbI+W5XBN0+Gt69ZysV7jQbFDVwLW6Rn2dQ/zyKPPMDtf4ud/9ja+cfoYiqbxmvVbOHHsHCdeOM173v9mni6fZ9ovR8JGodwpAUSiSiveDKqsRDRIkTUQjYOKEFHyOmUBeUVbIZJzFsAgAgidBT548V8nsdALq2nhHh1RSzsgQQsllhshaxWHt/W12ah5viYpnkSgyZInEAmStGL4FIk5yWEYGs2ZYv5Du97y53dd6n0Rnx9HYLVHIAYIq32G4/FdcgSEm+OBjfr+XNp9B9TfKctuSqxSgS+S4sMPEkp/G3hMy1jDstT4kKQ7t31jUde/V8vSn3FxEDtcmBdOjo7OiORhZNby5m3XUa4XqVgOKD4DhTU8MnOY78w9y4hscsfGfexftwtNLJmKDrJGrdXm9MQU5WYb09QpFSuoUWekEvkYCGuja7dtpb+7O/JKEJbUy80qnz/2AEeKc0yVXA6mTCzf44G2i9222RuovHPDKPONCmcki0XbIeMmuCo/wuOPPs3MzDy//PNv4ZvHD0fp/gMD6zj67EnGL07y/g+8mee9RaalMoH4vBV/BpEREIu4eBcAIaHo2L4DoY8ahhiOTLlmR1mDF90dhB2zH1UqBGtBiQCCwAOi10IABE+IU4lyhBBmCkUJRyXru3x8TYV+IzEXhul/C0JdALUtcli/XVNahcg+KnK/1PyQxNOep36jYg99beNrP3bukm+M+AJxBFZ5BGKAsMonOB7eKxMB4ea4dJO7W1Mrf6Yo1q3C7jlQh21P2biv5+qJo5L0+0F4113KYvfhvZq+9NWK4w59fG6I/qRPmzZ6ELLcNHDcBIOhTV1KcdOaLXRleylku5lemuTJ2WmK4QKzzgL9GLx+YBvbM4PIjh3tzn0E9U+l0m7j+B6KIjwXOgqHkdxxGKLLCmkpxNRUkukcmmkw3SrzjfFnmGo2GS8H3JhJ0g48HnR8PNvl2nbIzYKCGDb4hl1jKtTItgN6Wi7Nai2yXe7LaDh+gK6rUKnhN21G+7vpHUpTVmwsXcbVVOqhGy3y4h8WRRYgQTALlEhPKionBAFGEKA5Jg9MN7Bf/N2FRbQAASGomkrW0NGE55PINmh6BBYEy0ERny+yDEK2OqFyR2aJtwwEdsvr+8++vvZbsqK1NUvNe8H8ryaliY9IsiOklkFOn/TD/o+39b77B6/+xXYst/zKPBfxVVZ3BGKAsLrnNx7dKxgB4eY4lJ39lCbXfyWiFOaum8rtXBwT4ODFj5l67C7TDB88rNLY9utnxeKfoBHWol1zuZnA9ZMMBBYNJcXNQxvRFIM1A2PIqsKZpXmennyC5fYUhi8xRhebEj3Is+MEzSoWCuc8A8tQMVL6Sq0+jCSJo1cQ0q+ZdNXLeNUKei5HbbCfWc1m3C4RKEku1CRuSJlRz8AP/QAHiTWLNfraHkFS47m+DBnV4C1Dm7lpzSaa9RqT48e5ciSH59gsXTiC31qIKIWGJhbrkEDLMHbVG6i1myy5Pnq+L5KVvu/s96Msgu6LNIBEoMjge2i2hRIUuP9ihYbnYSgq+UQyKkrUPZuhQp6t3QlUv4Ik+ciSiqzpWKGDuJTINAjE0W8EvK+3xkB+3bGZ2tr9Ww98qP7SPDxz166kffgHGkt9yGqA1nO37K37lfT1/2nhFbwl4kvFEVjVEYgBwqqe3nhwr2QEpp+4cyQtzf6pHCy9O/Rs5K4b2kH20Ehuzc6XdP0rz/3LOtk9/GCzNj/2sbmN9GckKl4l4vkXmzq2Y7BW8sn1bOFtew5E31dVjedOPc2GsT2cmzvM9099l9ANaCwH9FtZPnDbLbjFWVqOx5efeJaTtRn0tNhtB1FmQaAT8SUHIbdvP8CNI+vQZAU1leQrL/yY89Yimq4iqxnO1JSo+bAphTwdyqRTSVxflBranWZBRWHETPHeLXu5fccNzM1cYPzsEfas66PZtqjOnefiiR+v9A6InbxE79g17Nj/OooL04SJLrqHtpNIpvjv93w86p2wq2nesPNmTBns8nm2jnSzqPXxnNNLy3UJI4AjkcJhQ/UE1bbH8NieyMHx4VM/pthYwJOImAyi/BCxIRBgyOd9wy3W9G95Mrl44wHp5ptFu0f0mnj4y+sz+qmHVG96WBIAwej7uqTt+HB618/FAOGVfCjia63qCMQAYVVPbzy4VyICYfhDtTVV66M++aawPfVJvz03EAQuipHHS1/7OTn0Pq0kCjVNsnOuvfwRv3bsQz+aaifvMXbRr9ssBS3swKfe1GhbGlvlkI3D19KtaSiexVDPMKfHj1Lo3oym1/jusW+KUj0Xp5tc17eHd9z8BtLJJJbjcM/D3+fHZx6lSQM3IvRFiYOIGih0Ad607RBvuOH2qClQ0VS+8szXeGrqaFQakOU0Z5oae5M6TQJOo7AppyFLFo7QD4hoiRIp2eANGw9wVe8Wjp98hsrCBV619zpq1VKk+Hj0sXsEheOlxsk1229iyxX7qTVqlOoNUt3r6etfwx9+91PCjgG/nuOW9dcw2tdL0FhiqCfJuJvm0YuNqNnSatTJ9PWzdqSfnc0TlGouw+v30AoV/urH3+RsfRFfCgkNLSpDCPlnIRuZ0BQ+kFrmg7u66pI28MZ5c+mJjRu73IXnN5imYn1AaR//s8CuJsWYZC19Bn3gE2lt83fY8Y6WJEk/YT35Stwl8TXiCKy+CMQAYfXNaTyiVzgCD971mS27N4V/aErFV/mthULo2wiAEHXq61lfSQw+G8jyKUX2N9jN2SsXq1Xzs7PdzCf76UmHVGWbaruB56XwPINtYchg12ZevWk3muiyV1TK5TnyPWs4fvExnjz3Q8o2zJbhpoHNjGX6QUtQKS1yfPo8y5SphzXcaB+9QhGUiLIR+9bs5oo1OyK2QK1R50T9POcrExFNMMTkRF3luoRC1XW5qGrIWsCahI+uCcOpldq+YvC69ftYG2Q5fuYITmOZNx66hWppCT2wOPrYdwgDu2POFMLQpn1s3L0Px7Mp1Sro2TXku4f4uyf+gUazjlVJsn9wG7vWj+HWlxnqSjMeZPnx6RJt26JdLjG46woGujLsbBxjudoimV9DoKe498QjBEGRUPYIRU+CqFJE+RIJV9KwG20+Mlxi40DhiCrLn/VJLspKeosUeL8ctKfHAl/kHiJdhxA5cyzUeu5e9rb864a97zrzCt8m8eXiCKy6CMQAYdVNaTygVzoC/3znr922c23zO0nTkkO/o4MQrcxh0OmqFwsrMnXHY6It8WzDYNlPsWSkaUo+QXsJxbYJEnnCVC/bZGjaEtuzXWJvS1PSSYdNpqU0sjPPdGWKeUenN5FiTegzWbGxqhaa10QxVZSMQiNodQSFIvqeeIs8FMlrCdKKhi5EhRSZuteKdt8im4CU4HhNiSShc/+7+9/VNeY1DR2fsaQXqRe6grgpGdy6/npGpV6Onnya0Cpx61VXYrVb6KHNsce/gyTIm4LqKUl0jVzJ6M69QrKApm0jmYNku7r4m8f/EdtxcKopbujbwAaRQbDqDPcWmCTP08shbtuiXSmSH9vAQD7F9voxynWHvpGdNH2fLzz7A8reMr4cECohw0nQVaGHIKFICg0/iVlZ5tauRrg1pzRzZqIlS2FGDtxE6AdSJEMtWBERnBNlGdOdaW644+rbf/tLr/R9El8vjsBqi0AMEFbbjMbjecUj8M///InbSqnqd4pJVXY8CcNTSMoqbuDihEHUvKcL/yBJxfZkXmi5lD2ZLlNiKvBpL80xlFBoKAZazyjbFIlS26MQ+oR+QCmUWZfWua/hkFEkRPthwUzQFTS5sFAhkJJszai02yUcPFxJwpE6u3eBVAQFUAAEmSBqhkyEIUlhACV0AAQzQOy8NQVFVal5OsdqUPBcBqUQSygNyiq65LLedCPKpCzpHBi9musGr+SFM8dYnn6B9QWTVCaH5ltceO4BRL9hJAQhShnJAUavex2h0yJUEqR7NmKkDP7i4b+LFnGlWWBv/yaGC90Ulxbo6Sow2w55ZrmO6znochipSfal0qwNlpieL3LVdbdQtpr8zZEf0XRL4DWwMxkGskkGkm70+YLqKBgSDVsmbFj0YlHQQ/TQQ+nIJXVsuVUlcnOU1DDSoQgbmTvuuONvv/CK3yjxBeMIrLIIxABhlU1oPJxXPgL/fM/v3XbGCL4zl+mShVmT0vAxGvMsF+dI9fVGLYLdgUdmRfrX9uG5hkZR0lFCi/lSCdezCbN51nQNsj30KVoeXYK65/ssozKSVPhGvc1IEDAUNFBNnRknRMdkgwmBXcTyxAKewJdEtqIdZRCivbFYpCUp8idIhgGmG3BusomlJSLGg5TU0XSFpAE9poIia5yqiMXSZSgIIsXBC6JZEo+dmSAqR1w/eg23bj7EwsIMZ08+iVeajPQMgmYZqzIRZSui3bngKagmWv8WzFSKTPcw26+8hVyhm4/d84noqrVqAqOtoLo+tVKNputRsiwsFdYUTHQs2rZMbUmIP7nR79M/NIyXTjAn2XRLDRyriTbQBbl+BlMWEn4ktSxEl0TFIQwkQk8SchIoIrMjgEEYoAcyZx2NWSMg3aWyxvPYWvPu+J33xQDhlX9S4iuutgjEAGG1zWg8nlc8Av903yduu5jSv7OY6ZMdR6Y9uQhLZ1maKdG1bRipO0nGcch6XsddUBLKiRLP2hmmHZ+c7FJEpiVrrNcSbA0CKnZAj6inC30EWaXflPlmscrY8gLpahm5O4/fvYb1OYPQWsBzLRxfaB6IpVFGOBdEdkRCylioF4Yyg1o3+/rXE1bLFEsN1m/byV1HnqKcgIZVZ8H3kJMmV3dreIHGcyWfHtel3w+QVZkjnuhS8NhTULh+9Epeu+PWiGHw1JMP8vBD32V2Ypbi7ALVRg3b7VArk7rOyNAgucEBtu7YzrXX3Uj/wBiameDTD/01sqbiODlM4QblNvFsn/mmx1ErZFc2wxrDptJqM1WDnQmdi/U6x0WmJZWkJ59jWz6JVZ9koVahqmXYvXETilRCDXwUoYsQ6SAJF01pxcFR6sQkAg+QDzWONBKcNiHTo7LOd9lVa9/xybfeGWcQXvEnJb7gaotADBBW24zG43nFI/CFez/52gsZ495SbkBuu9CcW6Q9fw439HANFbmQocvzyHsOpiyUA6Vod99w4UQ7QdmDLsVnQdbpVU22hgE1D7plCc8PKMoK3QmZb5XrpKam2JnWcJQEye4BsloNrBqS70XaAm4o4UWiSZ02iBfljGUP8m2dzWYfYaON1bbZunsH9144xhJV2vUqkqJR7Rpm91AOjSYtR+NMOWRM1OfbTTIJg8c9metzKsOZDDv6txD4HpXSEjMTF1iYXWBmaoajZ8/SEp4Uocxodx/X7dpAMpOma6Cf3sFhUukcZi7HfRceRFVVAi9HSvNYqDdZbGuUUVifLzCsNqm2yozXZIbNjJBK5odzTQbzeaabLfoLWTb0mTy9vEQLhXVrBtDVJrLXRBOgQOQxhBKj8GgQ75HtdScuUV+GEFMSbo52irNphUy3wRbPZk+9ecd/f+NfxQDhFX9S4guutgjEAGG1zWg8nlc8Al+4+xOvXUqr9za6umRb8Potm/NTFyiWFvl/2XvzMMuuutz/s+d95lOn5rm7unpKj+lOOmMTIBAGb2JARCavimhUVLjqlXuvchER5AqKoIiAKBcMEQhEIRAIGQmEJN0ZOukpPVd1zXXq1JnPHte+rl3J/fnPFZ6n8/OPzj795Ok+qdr7nPWutZ/1ru/wvmo6Sy6VxZQ2ziFIb8WsoWJaa9X2nUDnmGuj+iGWriGMDBPSQyHQ6FbBF4IlRaPXVrjLCVErNV6WG+a6zTu5Z+oJ2pUp0lLN0PHilH+oKbEmgFQVlArC8QMcb4zSTVIhrPosL7dYLjfYsnmCaSVgUe1QyoGZsYl6htkykkUJm6QFNByTmRpM6CpZFe5velzRlyVjhvRnemPlQ9tzmEgXWS0vcOrEkzSbVULpmhgqGKpKrpSnb3iCjhKxJCsh0lkUU2XJr6BpBsLLkTFCFldd9vZdwlDPAG67zrnyGX5YW8Y0UmzPRJiB4MHDC/ziZddy6MDTzC8v8drXXM9dXoV8n9RuqGAoAisSqEJKNoMShKgCfF/gh7ILI3Z0WBORko6QqMxYOVYKNlZaZVOnw45V5+3v/dmEILzgD0pyw4sOgYQgXHRTmgzohUbgcx/9ldds2aTdmS6iSnEiIRT8wCfwO3FtvPQwlhtSRWgca6kcbhixtXBvTo0jCXOeRSdIxz4JrUhjgxKwHGh0KVFs5LSMRo8N3w0VdE3nUrvErlSJqeV59EaDhfsfw6m1401ZGiHFHxlFCCHWuhfWeh3/7+lZBDIHr6LpakxA7L4iqU0DnPHqjG4YoTvvYEU+qZjIsepBAAAgAElEQVRkWByv66wXKjlFcH/T5SWD3Vw9sYUrxvfSaFapzp1i7yXbmTl7iNq5A7RXTj5X+/BcDMPoZfzSG2h3XGpaiVRpDMVQ+MsffQZF1QndLAVD4dxshatLG7n5+puQUtX/8vB3+e7KObaUTCxaEFo8dHiBN2/eyVOPH2ZhtcYrX3oVB5UOhSGLNpWYkMioiRqFGGGI7gnKHZVU6DOaDujRfXQljFtHpXcF0iraMIh0WbCp0OWDueS9481v/fTnXuh1ktwvQeBiQyAhCBfbjCbjecER+PJfvPsVl2/2v1nKO7YaOwpq8QYntQCiUAkDYc2gKguqEg60Qn/4kbqq3zpjMJjTyKRg1rNxRQZdCNpCZZ0asBRoFNUo9h5YQaPPhjvdkJRpMS4EPU2flw9tZ0tXL5/75N8yt1SOaw1kSkLWIUhWEBsdxU+wsuZ2KFWJ1gLscRugPFXLVsftO7Zx/Y038JWjj1JNu/QXXCwtiv0hVGFyum4xEilkJEFouLxqfIiXTG5nLD3IwuIU4eo8V+3dw8z0SZTWIgvHvoeqxJ6LcZeE1bOb4a1X0mq1cMwecr3r15QU7/4QkaoTdDJ0Gxonzi6yq38X1+6/AT8MePSxeznlnKW7GCEUH4sUD51tx7UIutfhVCuk0NWFVUzT1R3h0ozHJQmSJkLsQLDcgmHF46Zuhw22CGwFT0VYmqyojMsY16ygZCREFlSKyAhnl413XPrGv/38C75QkhsmCFxkCCQE4SKb0GQ4LzwC93zpL/sn+9pvTZutW0xtdZMqE/6xOVJI2yl8C836GJG2pEbtEVVx3hUpzZd/ZSYyfuAUGc+FzPgGbphBC0N8DIZUj6VQo4iUSiYOy4+mVe5sOmzPZRHlFZZWOqxzDXqFzrlDx3BaHSxTIQwjgjWdoDWTppgMSFkk+bMw/lpaXLkHnreWgyj0FBncup5n7ZB2XmF7ISCdktEKBU1YnKxbDEcK2UjwYMvl+pF+rly/iWyQolpZRGtWefX1r2Jm6hhm0GTq4G1osUeCFC7SyK+/gcLABAEWVS9Et0sUenr54AMfQygavpMhT8DsTJmRkWu4ZPd+PBFy9sgPabnPQs6PRZDsSGO+oXOm6rAro7DgK2CmGcwrKOmAUBHoz9lG64GPpALtlsd/H20yaBtzkch8JgiVs5qib1Tp/JJhesOyPmEt6yDrQlJHfd/66nzN+tLu1/9pIpT0wj8qyR0vMgQSgnCRTWgynBcegSiKlPnH70yFztzNNuf/3NKWBmI3R7WnVff7d45dWzv3vJvjbOnsS9LWyVtX3dbgH8wOsi4tmHEFbpDBIMKLDAYUl6VApaiI2MtgIVJYn9H5Qa3NZSmNH83XKUUm13WPkhcRD33nfmqVRtz7H4q4dyEe5HMGjqiqHr+XBEHXJFlYC/2HMtWgKPSNDDC+dytPiiZnoza2rnBZLlxLgQiTw3WDdZpOnogHax32lbJs7+6mX++hXi9TiHxe/YobWFiYQ2svMv3k7XEYX57mQ0ks1r2C3vFteMLgfLmMG9oMjo/yd0//E023Q71uQqeNX20wOvlytmy/GldEHHnqPpz2EexenUiXnRgRaWweK+vsSCks+h6zjmCyKMgUzNg2W45LtnTaQlBrm7xUr/HGkSAMgv5fCtqlr890570Ro276S+5b08bsnxuGm427MbXMqUjt+R9ONf3t/hua/+rm+P8ZbL3wKya5Y4LAxYFAQhAujnlMRvEfgMDZg9/dkhNP/pUZnHmFbL4XqY1PFS99z6X/9qNXTj6SD+e+dNAyKxvffbSbgYLJrOPhBtKtUNYvGAxqPvOeQpe61o0wH8KWrMWPynUuz+gcr/u8sneIl2y9GpwOf/mxT3B+fiV2bZSbssyly3RDFB+NpSCSVEJaowW6zLUrMnrgxT4ImqZz7TVXc8uv/SpPnjnEg0cf5BAqy47D/oLAtiyebumMKToZEfBw2+OKngKbUxkyns1qvUpfSuO6y/ewUi5j+StUT98XRxDkKzY0KOyke90ufK/DTNNFsQcZHhniHw7fTluKJ7k6hxc8Zpdq/OKu/bz6qpfGEY9vPvQdjjVO0DdkIWJjSEEagyOreX52/SX0ZvLcffwQLbVClHURuhy7Frc02pHCck3ll/ML7B8dOOeFk7tLl91Se34ujn7ni4Nd1rHvp42FSVRVKEbxDjW1/jez29+58B+wVJKPSBC4KBBICMJFMY3JIP4jEFh4+is7UsHpT2r+zH4RupCeqChi95bcntcuy8+XkYbaqW9eqtZ+8C+N+tTIH86uZzgjONNy4xSDHtMBg0F8FgOF/HM1CPMCtmdNHl6oc1Xe4nytg1gqU18J6NdTzJ06T6ftxPUFsWKiJAdCaiDEptNomoaIZRXXVBXX8u1SaXHt9zOFLPmRXqbTCqu2wkt600wJlWokGLEUFoTNFssgE4U80HS4qjvHjmIvl/RvY2lpger8WbZunACngb90hKB2JqYGUpxIkhVfLZDdcG0c4ahjMrJ+D8Vijv91/ycQGqQinWNlhanFNm8dnuSm/S+j3Wpz9+MPcziYpTSgo5g6Yehjo3O6kucXLrmWG3dfza0PfIPHK8/QznQITTWWdtYiyEYqlabG2zKrvHzD6JTQxvfmt/7CyvPrYObQ/SO286P7de/EpHRzVM38HUpq4Dez238/IQj/EQ9L8hkXBQIJQbgopjEZxP+fCETve5/afFt3t+K6b8Ut/4HwVnvk7qxoNsKe/Lhmdn9OzRYqkVPtj7zl3xTtU2+6+1Q59U1tC8Nag3OdCE/WIBAQhhojasB8qFLQiE/5CwK2ZQwOLjW4LGdybrWFWe+waWQ76wpd3HHb7Swvr8ZDjCWGVQURCoJwTUlRWjTLlyQOsS+EkLUIEdJFWRKG8fXjbL/2cp5uLnG8uYwjIi7L6MzpBidCyGsGV1o6dhTEBOHynhxXDm5g/6b9rKwscOBH3yNlgOL5tBdP4LbWohlSZlnaSueKvSi960nlihT7x9l2yT5SKZM/vOcjBIZCSmhMVXWctsH12R72rt8Q20s/cPgQ5YJDrjsi0GStQIghVJZXs1zbt4k3XvkyvvKjezhSO4mX7SBsEyFFoYjiFs2On2Z7p8Kvbs35Zrr3NxzD/srTMzvau8aCjBZU3kbjyQ9HndmsLOrUzOwxxe79w2ww9B0uu6WzVqWRvBIEEgT+PQQSgpCsjwSBH4PAHZ/+rxuu2uq/K5tWbo785ujzoX0Zy1eNvBtpuQOKpk0rSrDOd8q7F6vN9N/MpjgWppm0HFYjAzfKYkTS6ElnUPGYFzoF2cCPynwQsSNj8PhSk705gzOVNna9xebhbWzuHeC2L3yJxXI1NoeShkhxa6OiEASyo0FGDSRBWKs70PRYBDkeUdzFoMDGjZPc8JpXcXxlmunKGeYNnWYQcUnB5l5fIa9b7DMhcjo86gX02gavHBrnuk1XUG+scu+Dd7NcXWEg00WjssTU/DRu6BEFKindZuvkJG1Li8WRdl2yl00TW6S1JO878Hl8PaIbi1rTJCNMbhyb4OjJ8zhSdtntwICKYjYJpDumTKH4AW4txbDez0179vHQqaOcaE7jp1sEtmxbNJBDtENBzbERTshHN4d0pfUpIuM2xUzPRJijatD8uaAzOx4FftzGoOpmiJ4+GGn5b8w762/fuv9XkyLF5MlPEPgxCCQEIVkiCQI/BoEvfPy3X7ttePWObDYyYyGe8Dn9gXhjXusoQNVo+oJjVcHBlkU7sjkZarQV2WoodQ5ypKMAITQGFZ95ocUpBrl5zbohl+ZsDiw12Ju3mKq6KK02RpShN1Q5dvBp6rXmWorhuc/TNS0mCPFbyRridILs9ZdRibUUg9RNkDoN+e4iXRNDTOshdk5nX0+aH7YjtuVMHvAhZVisD120TouGojCDQp9psimTwxQebmOFZqeNKnRanRaVVjMWJFJCE1NNsb43hacLopSFmi9gFAr4+QyPV6fQl+v0F/L4ahfFIGSLLXjwfJNSJk86p6BmFYTfRPUc9JZH1HTpVCJSQZ43vfwGfnjsac41ZtEKAUFaR82YcSdDzVFY9lJMZtJMBmUmjXp0aUn3CmnN0dTIigLXEmEoedSaV4OiompGFKnp1rNzXb9xzRs/+MVk4ScIJAj8+wgkBCFZIQkCPwaBz33+929aybp3LKR1teMJLE8la6bwQh/X9fACHzWMyFg2KirHaw5LnYBJS+GUbjCtyKr8FNlQ1uFrjBCwIDRy0pFRCOa9kD35FAcW6uwp2iy0FXb2DLJ5eCsDqQKf+POPcnr6fPwtZd2B3Jy12MFRXetc0KUE0/O6CLJ4cW1A8t6SO+y+dBc/dfONfOPoAU61q7y0S+W+lmBzzuRQpGFoKmWnw6jrkpFaDUoU1yj4QQhhwKQW0GN41H2fVgTtMIzvnVYytF2NgtnBVRWMjEWoCWqrLayJUaZVj0K5SXchj2r30iVCRg2XR6oq6wt5WlRw1Qg9EuRbDvWHz2P5Nm5L6jRYjPb1s1Kv0Q46aKaKr4WUtnfRzmaY8m02ZrNEnQ5zHZ/RLGQUhx5NYIR+nLuJizmRf0fx9YalkQ5ArJq3/MavfeYzycJPEEgQSAhCsgYSBC4IgX/45gduPpESX5vPFlXXizDaEfnOCjPzpyn2DRMaEYUwoFshlgCWrYtPrOosNB022gpnrSzdpk06cAkVncHIZUno5CKZx4cFH3ZnTA4u1tnTlWaq4ZF1AraPbWf7yAh/81efZH5hBdcPnjMxjuIaBBmZkF0NsmAxTnfI6IFUWJS1CXEtgqxPUBgbH2XfFXt4praMKBqsSwc86upMZgzmdZ0RO2Da8Tncjtjgdsh4QWw5bYaCRqRyzBWsN31KeYWaplKr1vEbLULVYlbJUtA1MoZKNfDJqh0yRFjrxzhuBIhWg/5SH71RkYLjUtJaHKiraIvz6F4dJZPFLmVpnVzC//450qFJGPiYhoGq6THZicdIhJE28DcUcTaMsLW7GHdNzAuD/UNFtGCZZhDiCTWO5sTpGFnQGAiOejpTKYVMt8l4GLCj5d/y/jf8ZUIQLuipSC5+MSCQRBBeDLOcjPGCEPjSd//XzUcs8bVKvltt+hGd+Qrh/DFW5qrkRkpEoz0UA4fuQKoBSpW/CFuxeGpVo9oJGErpRGYmFlYKFIMB0WZRaBTXNJKZcwL2ZHQeX+6wu2hyqukROi7LLZfRrMLy0jLzS3VWVytYnvR3AEW30aOIWhBhRgolKyST1mi6KmqgkjY1TlSaqCmTQl+JzUN9DJYKdBdN7nUD+gpdjNhQ1i260h6OcFhxZAeBx2bfoTcIiPwQJRDUUTkcRmwvaig5hfnpOaLlOh3TYCHVyxYjQqmu4Az2sRxCJgPG0ABLeQvFdSjZWQpNg7zrUtLbPLHkU1hZJZUOaOgqrhLhnq2hPjKF7UgXRhXd0OP0iIySxJ5MocBIWziTfazfuYGsCbORyo6BElm9Tt2rS98mIll08Zx6ooweZNE50kpzKAXZHov1gcv2qnPLhxKCcEHPRHLxiwOBhCC8OOY5GeUFIPDFb3/o5lMZ7WvLxT61EQg6SxVqCydod5qomQxKd4GBKCDXcdADEffpZ2I5YIunGybdhoov2w+RLYE6fUGLpVCnoKzVEEiCsC9rct9cg915nXOO1CQUlIVCR/oHGBHL5VUqU1MoDZd0qUDDzJKRyXU/pKkaDGdU+k1YclXSagozCvhhpUY+l2d7IUufAVVNo2zbBL09TBYyLLYbcWogbXRop1Rymo7XgLnVDqIdkHZdNikR2UBwStdJp1NYBY+FThO77uC3BS2zG2OlQj7sUNq0niUrhxtGLLbqBHods+3S1VdEkxLMQtBnODxdg9cWRtDUgNnWKovNMudPL6AcnKVbSSGCkKbTibGRKpGWaZDLZKm7bdJbBhjcNMSyYbN1sIil1mjjIySJkHEG2QIaWzmqRLJtMtI4EeQ5nDNIlXQ2uy57qq1f++Ob/+LTF7AkkksTBF4UCCQE4UUxzckgLwSB2772/tctFaLb611FtRUKOo7L9MIUtZVFVCtFqdDFOilO9K+yv64nXQ5DmpFKR7FpRimGTRUnkqJICo6iMSpTDIFGPvYzUJhzQ65I63xloR77M0xaGlVZWKfCvGnhqRpBs03t3Dm00KeruwtSWRY9wZgUBQhCqsCQAS2h0WukYsfDh5sOe3MZ+vWImQAyhTx62iBKWzRUSSZ89PoSollFDHeR7u9hwPXJVDs0qzLtoLDZNLAdj1VNjRUfS7kALWOz0UshKg1GhyZ48shpji5N8dN7L2f9+DiqkeKLjzzIXKZFWFAp5rKEXpac7zNgujxdEfzSyG6u37aHucoi9xz/PvcePoZxrsHrL99PeWWVr37vbjoixERh29g4N77qlXzzB/fRGcjRP9pPlM0wXhAshS6+VJgETG2tdbQTCWrSQCuK0FApm1kWCin0jMpkp8PuSv3X3nfzxxOCcCEPRXLtiwKBhCC8KKY5GeSFIPD1z/7u68fGO181sqhS6jgUIW7oIwJZ8RagqypZRcENBIHQkI6PpzoKf1kuUdRsJg0l1h7woghf0RnBZcmDglQGFArzbsi+jM6Xyi2ams4GAoZ1haokFDLCbtn4vk+n1abjOGCm8A2DiqxDiASTslMChXn5GWjsTqcwgoDHOz6vyaU412ljZnJYFiyHYdwuaGdK7Cp0s1Q+y5Glabq7e1g3uo5Uu0lnaYmZeYe+Qg9dwuHISo0NKVlsacfujrmsxvVDE4z9awFlqdjNF751N/dMneF1m7fwupfvx7LTfPbh7zPXq9LMeeQNi+aqSs4LGNAcjix6vCLby4079uAGLo/NHuGeE2fJdyxevedyVlarfP6e73G2XmPATrN/bII33PRa/vnR7zMTefT2dxGYKqmMgm1FXF6QJQculvApKQFtEVBVdVmeGCsvSldLz9TjOo2CH2Atu7/2Mz/7uYQgXMhDkVz7okAgIQgvimlOBnkhCHzrb//rq3dv6NyaS7dLqiaP9msSx1IPQQghQmGdjxRrQcUf0lRvSNEUzQ8Fbz6Spa3l2KyskQMXQaDajEQuK7JOQG7sESz6gr1Zgy+udKhZFilFYZ0IGFZ85oQSRyMkMZEbny5C+hUR+zooUcSsYrIqFMakN4IK5zHZmbJRw4AjHZ/rMxan/ZDejM25VgOlUycQHlvHNvGK0gQNtcPXy8cYCG1+ZmIPYeBx/9GDLMz7vHb7Ho4vnOPOxVku64Rcd/V+Hjt+lCW3wjU9JYZSmViI6R8fOsCTnQ7Xd3fx2j2XYFkGXzp6gmjTAGrOw1Z1Zms6qTBiIGpwcsbnErfFFb3puEVzTlM5WA9JeylevWMH7UDhc488yJH6KsO6zY3rJrn+qqu5/ZGHmJGdCj15HF3FzGi8oTvgpSUF4TWJpHiTCCFqgyLFomTB4r8KMjw3X/GcCTVYqVm/vvmmz/zdhayJ5NoEgRcDAglBeDHMcjLGC0LgK598X/bqyXCfbTd+0zRaN6pqqMdiSZHA8Ub+OYqU96uis6xo2hjU32uY7is1XdN//mmbBS3PJVGILyL8KMTT7NieePm5FIPUSloKBLvyFv97tYOXSqNLRcQootdpsV74WJKPhCImGE+HKu0I9DCgGEXstlUeCzVaispWU2UuUhiwTFQhOOGGXJexOOOGFG2dM6srFPw6kfBIBxovzwwSGoInlDZWK+K6Qn/cLfBMdYlHji9hzreo5XSWxroZWm6Sna3jpzVGtw6wLQVFbY0k3X2uwkkv4qXdKXZ3a5gGPBXmaI8WIe1jqjrTLQtLKPQGVY6fbbMzctmd9og0jTk1zWOBTUlk+b03vI3Fep33fPMfOS+jBQG8c89LuOmlr+KjX/47ztKkuytNSwErrfPLpQ6XFQMCkW6FDH09CMNDatS+VBcLNxpaPb/meCldLTXC0H7S6Zh/V+4Uvrnj5g+u9Y0mrwSBBIH/JwIJQUgWR4LAT4jAwvfes8Oy65/SDecaeVIN1f4Ggz8/XhzfuaaDDCw+/Mmr7eipr+pmNPSmJwwWjQJbCAmkpoAkFNKrwAhZDvS43kDqCZSDiM3FFLc3PLanDEy3yunIYEGx8T0fw/Wg0WQ48JnMWjyumlSkfbGI6AlDXpLVeDLUGUnpzAchXYYZ+z4cChVebmpMBYKCoXGqXifVqZIWTWafrfIzQ4PxAfuHVYdOo8079u6i3Kjx1dMzdLwIe2qFVs6kun6A7k6I/dQZHFnMOFpk/1CJkbQ8nQc8suyyFIbszWtsyCoYasSpTI6ZLgsra2FrFueaJkYY0RvUmDrvcUXKZu9Qd+zq+JUTZ3hYKOyz8nz4l36HZ2fO8icP38l5JaTLFfzGlit5zRXX8KFbP0WlZNKVNahJYydL5ZcLFfb1GcLV9vxe7953fEzOgfTEmH3oE/8tzdH/qWuuLQlCpKaOC2XwXcUr/+jun3C6k19LEHjRI5AQhBf9EkgA+EkRmP/2J3qtwukPGlrjV2KbJHPzofye/7b7315/8olv93a3v/2IqqxOvPlQnppdZJu6pn7sBh4dDPo1n+VQo0eVm7xgWSgM5XS+Vmmwq12mVVlFGx1i1u7C9BXe2DNOwQ25/bv3cPWmCRgucd9qhUUh8ETESy2FFQVqUUSXCqsCRjU4GWkMa+BKaWagShRHK7JhgJhZ5R3DGwhNjS+deJZ0vcUtL3spAREfe+RHjNl5Xr1hC+faq3x3eZ6rlCyv3LWLHxw/wrcOP8lbLt3NK/fsBiXitnsf4K4zZ3jdpo38zHXXIYTHfTOHOaXVsbM2tmpwrmFihioD1KksB1zTN8n+vZfT6bT57KMPcVdlmYF8nlcPDXOovMQhqRkhuxhCwU7F4qquDF9eKDPRlaM7o1OPpNBTxH/ud1nfOzHb9NftGdj1+qXn5+Lsj+5Yl/Efud/W5tapqiYUs/DPkbXpnYmb40+62pPfSxBYE4lNXgkCCQI/AQKrP/rTdbqx8hElrL5BGguRmig79s5dvVt+eu75k+vqs9+42mg99BXC8tDPHbRp2d387NAkI8U+ji9P8ezSPDmlTU1JszlbZKW1ynQUUUzBvyzXGakuk83q+GkbI5Whx9d4bWkLw0aaj37s01x5xR7Gdk7w6Myx+BR9RNFj86KNJizKWgWkwmFE3QsZMHVqkVQYjHDEmqpg2zCYETqp1RaXdzx8JeQpRUGvtej2fG7YvZOnayucmq/QF8FIbxcnREA0X2FvbzcHZufpWCavHZtgy8AAiqbxnYMH+GG9wg0jY+wbGyNXyHPEnWE6XEa3TWxNZ7ppx3oNQ2qDTt1nOOqnJ5cj8AK+tzTH44agu1jgsrTCdKfDmUjHkTUFUcQm1eRKU/DlmsfOTJretEozilhnerxt0GXT8MYzfmrgsuL4W/9vJGf6iX8ZSnsHHzD8kxtVzRZYhTs1c9Nvpne8M0kt/ARrPfmVBAGJQEIQknWQIPBjELj//vv1fRvqfUr96M8JZ+Z3I785LAWOFD2DMEY+rRtd/6DYXfOE7XWhV/l1xTl7cxS17Z87qJPp2sg7LrmKIPTIGhZnlmd45tzj+KkeXj2xg6fOHeKJdoNMRuMHjqDPcSj7TRzTwrRMUg2Xq7Vuim7AgweeYMeGDSg5m6P1ZXosyKUMnsKIRZNGtJAVRcMTgm5NoeEGFHRJC8AQEU6sShjhmSbnQ42ByKdP81jwAyouhL7KjYMFloOQ+1Y7GEKw1zbImhrPNAX7syoPLdTos4u8vHeE9uICrhcy47aZ0gOu6R1Aa3Qo9fUwZ1RZEpWYIGiqxnnHIq/rTJgOz864rKNIf28voR/wWLPC46pDSgRMdFYQusJKoY8FxYxrMTaoBpdrHl+t+uzJZuJxd6KIjB7xtu4l9g5kO4rd88vnUL62ffv7vejkt62GO/Vm0TzyccVfySsyj6Lnzqpm9x+72d6vlyZ/q6FIu8vklSCQIPDvIpAQhGSBJAj8GAQev/PjezcMld+ji+pVwquOSEXEmFurGoqed1U98zSqvkwUDBG2Nomgk44inzc9laGvfwdvWLeNAycfZyBX4MqtV3N8+jA1P2Syq4/HTh/gsVaDdNbgcenT4DWZb1URfV1kNJVMtU2q6mHXO3ieR9ZKY1sGkSo444SxrHGfpXMYNW6FXKdDTTPxfJ8hLaIaKrHng6xXMOJOCgU/8BFpm/NCpejU0FeX0dMp6nYPV/XlqYQRD9Y8FEkQUhaDmuBAS/CSrMpT8hRf6mIgVeTJY6dpt9r0dRcplDQyms1UuU2o6ywqHeq6QLcMFE1qQphsTmtstFyeKCvkpIukGtIJAppZmykNauVVBhtlDNugUeinnc4TRLBV1xgJHe5qhlyasug3ldgTImPCW0plLusxpC7SEVU1bou0wrRCuE6EnTeJ9sKWWKoyknNlCLT0cdUs3VdpD3x+fP+7Hk8WfoJAgsC/j0BCEJIVkiDwYxD45t///hs29C78k2U4mizKi70PYokjFUUzMQyNdMrEkcZNnhdbMJ9tRLyns468muftE7sQXpsnZ46TyvVz3fAGhgcmKFeXeejoQzzuNMlkdO5bbTLWKaNoEZ3hLrK2wWi1Sa7hQtWLFRplW6EmPRhUOOYZPOPBWOTTb2mcEGp8It9kKiwpCg3HY72h0hYKWUScZkiLEF/TWA4DIlNjZaVKT9AiV7CYC/NcPloiCBxmHVgMNMZNi17F51Abrs4qHG8GbM2ZnG06HK91mMzk2JzVaLt1DtUFy6FCqEBoaCjpDKqmgqmTsiwuTUesU1s8XtcZMiwKRp26Ch3DoKmotBsB7lSZZrNDcWSMqm3QnbYZCD2ebXuUA8Fu22TY0mkBaUvhJep5bozjOb5QNK2hoHVEGKSJgmwUuqqiaNIEG1QLRdUjFN09v5j57e2v/6vPJgs/QSBBICEIyRpIELggBGxL8hwAACAASURBVG699Y/edFYv3zZtqnhuhOVppE0L1/fA8ynZOuOZgBMNn9XAQDENfCvNjCtwfLjMTGMIhUW3hq9YbM2kEXYXfrtKzWmyqOqkUyrfXVllg9ahkYXRUi8Dioq9OI9W8Zkqh3QVcjTDEMWy8HVoKhptYKnRphi4DNo6xyOdwPXYY6ssY1LuNJkwNSquYMjSONsJWaeGrKRSrIQBYbuFW2sxOpxnMUyzuzeF6tTRQlhR09J2iRweT8oIQsHgeN1ja95iuuHQUSx2FTSajTKPlUO0dJbulIEvfCJTRzEtNF3D0xV0w2S9JeihzYGawWjKJmOuxu2KnqbRl+pnpzHE6ceOcd/Dj/GqV70cp9filFvhXNtnwLZpOx5ZaS5lqjSViJ6MylynzTqnjB64ZHSN3d0GtbbPaWmZrYKmSYEkFd0yKdgWtlSnrvi/dcs7v/DXF7QokosTBF4ECCQRhBfBJCdDvDAE/unOD77pkO7edjaTJfJ1Mp5OT1hneWUGu1gk1MAKPWSzgjyxygiC/OM6ITPtNFcW+xnO9XB8eZrZVpNeNaCKyahls9ppciKKGMhoPOjB3i6bbbkeXlaaZCiT5dRjd7F0/llQTHZecxN1IYWVOhxqnWGhvQKuj98MObwSYDkO/dkcZ4Iolma+bqDEgXqHCcukEQSUTIMl2TKJykjG4Gjbo2CsKUD2lmzOrjrsLNi4HYfY1trUYkKjRz5H2yHXdKU4Le+XtSg3HAaKWdr1RQ4ueRTzRXZ12YSdMm4UoVo6RtpGSFtq6Y8g3SVVmRrQOOKluG6oBydaoKMIQkWlEGTY0Mox99Q5vnPvA7zxDT+FvWuCb1fm6TM1tulVqr7FiZbCOlunTkRPukMrCnGlILOqkNJU8moUG12FMowhrSBDeDayOZvWyBZUhn2XSyut3/6Tt33qry5sVSRXJwhc/AgkBOHin+NkhBeIwK3f/eCbnrXU25ayRRwZNCg3CJdOUJ5dJjVcQhksUhCCTBjEVb9rFkyg+Dqqso43bL0mlmM2VZVHTz/J1MKzCLub127czTPTh7m/ssRISuFeT+XKgslGq8AmpcTGvl5WTj/JuWMHUFSTy1/5FpbaHU61V3mYec63V7HmG6iHl/A9hZW6w3ixF9swmK9X2TE6wtmlMl2ZDI6QgkUajc6aCVJPocjUyhLFVIpWx2Wwr4fppUU29Y9QrizFvhG2ZSIEGBpMVyrsHh9nulymlM2yXK0x0F1iqbxMOxAU0ynAZa5epyk3Z1Mj3DiCyNtoUqxIEgVdQzNNRooF1pVUFsIagURLdnGQptSxmZte5qnpea7dshm/K82M4rPe6FAK6zT9LCdbSiz7XAfymTaeLvs2olhqWpMWz7H/AhgS/whSQuVZL8fjpkKq12S9CLis2nrXB27+i09c4LJILk8QuOgRSAjCRT/FyQAvFIHbvvfhtxy1oluXCz20fWgtV6nPHMdptyCTQuvOU4oiCkGAqcrNMEKR9QKhRX96F9v7xnj45AG29o6yb+Nevn/4QRqhypVjGzk89QzfXTjPRFrj7mbI1UWdyXQXQ1oJzWuz8uwhKvNnCUKFse3X4KgG06LNQ/4M5XKFwYrC6reOSqFFhIjQdHNNdCESBGGIphnSggBd1/B9D1XTMDQttkaWIk3ye8qfS0VES6YufC++Ttd1NE0lCIJ485VVF7IbIQj8+D2qQiZtUa83MXQNVdMJwwDP82OTJHnPoTfto7C+QD5S0IWCouukshZhSmPZVmhINcp2J/5sw7Cp1wUrdfBch16/hZ028YvdjKUF3YpD4Oc42YgYslRqsjgz6+DpIq5BlGTAiIct4ghOnF9AwRIRZ0WBp9M6Zo/FpO9y1Wrj3X98459//ELXRXJ9gsDFjkBCEC72GU7Gd8EI3PbNP3rLXFq9tVrI0Qkj6h2HhcU5mpUVdMsml81guT6hK+KTd86MyKWkDLFNW4zwsvFtLFRmmanMMzF8CVuLJXLZbkLf5YlTj3Hfwnkmsybfq/lc05/CxCcKVKoLi7SnZ+gs16g1Arr6++kZH6Cet/GCkAGRYfroCU7d9RSRoscmUrpuxOJL0lFSbtqaqqBrKmEY4fp+3OaYtmVtgUCV3Q6eG2/mnu+RSacJfBfTNONTuVR/lBuuJqMfsq5Cvpfpk0jm9lVMQ0eEEY2WLLJM4zhu/DNpzyyJxsDrttC/sYtsqFNtCCxFpSunoPdlWclmmPNa+OeXUP0Qt9BDyyzRb9mUp06Ra9fRbJOgb5jhokVX1CDyspxpwpCtxQRhIN0hUAMkQ2j7MlUCYSRHJhM80m87FlmmksqxmrfR0ypjjsPly/Xf+eM3fDxWXUxeCQIJAv9vBBKCkKyOBIEfg8DXP//7bx0fbv+jkZHKhwFeKPCkGqHvrXUUyPO1NFUK4FQ94oGKhm6q9KdtjnXSbMt2xWfwcmM1zunvLHaRK47Qbq5Qri9zotNmQ8bgwU7E5QNZVkSFqu8QtlzS5SbZuotT8cDMUZroZkFXeM3ktWzM9fPxz/4VJ77zZCxYJDfwkcEeMrbBmfPl+PQfBmG8YcsN05fuk3GdhPJcJ4RGEAYYxppksqGb1JsN0qlU3DIpzY4kgTBMm0zapLLaJJtJxV0bkiC40i5a03E9J44uyMiBJBAyotDpdOi7cTO59d20WiqDaoZrx4YQ7WX6x8cpWzb3Ns9QnpnBqQdQHKY4PMhKp0V1eg7Nb2OlLfoGhxnICgp+E+HlONWCUWmHHQlGrBaREjLr6HSpIZelO3SrayRIMpVIOjqqZtytgSFrIcAKIoxK+Ds3v+EzCUFInvwEgR+DQEIQkiWSIPBjELjr8+9/8/ah8hfzGVcjkjl8GWLX16oNRBgFoVFDsSqKGnZ7wskfqkXKn82mCDBjc6YrU1n6cz3057qx7AyrlTkW2i2WawsEUcS8orI+JU2X9NhUya1P4bY76MUcO7R+ru8eJlhawAkEWs8g/zx9mP6+MfSO4PjDBzj9rSfj7zPQW+DG6/cwPlTiW/cf5qEDR2L9A1n/EAjp9qjGGgqdjoNtp7FtKx6K77px5MHznLhW4PkogYwGmIZGKBQ0VeAH8r2KYRoYhkEmZbNcrhLJ1k80DH0trC/P8EQ+7hXraQ0VGDQzXJsusHewl2ZlnpHxDVRsi7uCaY7MSX0pndHRUWZYSzX0pRRm2xXSQK+pUBAOed9H+HlOdVRGTI26CBg3Wkx3BGM2/GJvlT4t8A006ZBtQ2TEhlqKTqyJJFMpqoEQKo1m+nc2/NRfJwQhefITBBKCkKyBBIELQ+Dgwa8U+tqVl9rR7HtMbeFKTQsVFINIBDjh8P0dpfhb6Z7CdLSyfKkenP+wanau+KfpSP1Io4cRI8vvbb+WXaObacXhfI3Q78Qb8tceu4uplSkOy6Ot51JK6TwdKOTnT9NtGYR5m9eM7GOdA7Xp4/EmHBV6uWfuGGVL8PLhnWzV+vjv/+X9GFaKifF+Xn/DHob6urj1jgf40VOnkbbTliHTDrI+QdYVKEyMDbFpYoiBnlwcSVitNXnqyDRHT54mlUpRyGXYsXmM0f6ueLM/P7vC+cUV5svNuG5BRgvkfQxdx3HXxiT/f1zjoCiEYYgQPre87108svQ0Q9kUQS3kySOnGOrKsvOSDXSPruM+Z4EjgcpINkXd9/GEwraBLs6wihSaKvg+BdcnHwTYnk/FzbJEikFDoSVCBhWHsuPzkYk6RS0464f59/ii+2lN+JdqevsDGiuTMUGIp1+OJHPSj0qfakQDX934st+eubBVkVydIHDxI5BEEC7+OU5G+AIgIB0C53/w4T0mS39jqo198qQdasO1VS7bsn7fTy08/xHz933otWnrzN+vNBv9b1wcZ0t2nLdvvoJnZ09wcvksrTBi3DLYvOEKsqbBg0fu5WCrzinDphT56IrH7OwiZuCgpjJsSg3Qnl1heXGBZqVKzrTRB0qxDsI6JUPXqs/B+w7ieCEogo3j/Vg6nJuv0+p0sEw73swdN8R1Ha7ffym9RZMzU2Uq1Xpcu9DXXWCwL8/scp1qvcP4QDFWSKw1O2iGSW9XnsHeIpGmcMd3HolJQS5XiMP40mzJNPU4vRBXMkpzZSHTFSo3vPkmTrJAQwmYCVRWA9iUlRECQcu2WLRzDBbz1HyXcqNFv1el5TZxN/RRymbodz3yno8eRKw0FM76KXYVs6w6DpYUp1JC9qkL/Py44kTm8I3FPX9yz/PzMP2Dz9xk+0/9b0OpSldsUFOnsPvf3bXvQ99W1mouk1eCQIJAEkFI1kCCwAuDwLF7/rq7P3X+A7pa+/XYQjh7+cH8jl+5/N/e/dRjt42WvO8/SFRb/7pjPeRyw/zG1muwVJipzCFUnYKq0Ne7jmfmTvCNEwfIRC4Lls15K01OCVD9Dm1nTc5ZFvApjQ5ms4Xuhxix5RIEbsAGq4sJNcOXP/dVIkWe6o21YkLfjyMU0lBKbtzyVC+iMC5evOqy7aT1iIefOsNwfyne3JttF1XV2bdrHfV6myePnCaMIJu26CoW8GT5gwE7Ng/z7fufou16ceGiFEmU95T/lvUNYRCgqLJbwo8JwiWvuZoTVpsoY6FZZlw0KTsoQiVCkwqJ+TR1NaKmGQwoHuHyDJ26R2ddlq7uUmwelXIDllsqy2GGDWmTluvhaCabcgornssbjbO8Yl3fmWy4Y49y2S215+fizDOP9Nurdz9kB89sVFQjUu3ub/j2+nf27P6d2RdmNSR3SRC4+BFIIggX/xwnI3yBEFh67M8GrGjxw6po/oLMbyuZS2Yie/+l+c2XleMgdhQpq0f/8Vqt9fCXq9XlwTfPjBMoJjeVBpnoXYdtWISaJfskOdVyODr1BHOKoBIqDGshq5ksM6qJLQIs2Q8RBOhtF90NMFwPIwTh+dhS2EizGUr3ElU9bv/87ai67PyX5ZIKIpTFiGFcQBi3J2paHD2Q7YuD/X28+trtPHTwBK4f0N9biNsVV6sdhgZKKKHD8XPL9Hdl8QKfjhvScgKu2D1JvdbgqePTcVuizOkHsiZCjfB8gSNP9aYUiZK5ftke6bP/9a/kjFpFyZqxv4Ki6bEvgxRNkkqLrmlwTtXJpVOUVJdmZZHIdRBdOQrpLGk/wPUi2mTYaJustJt4do71mYiU0mLJ07g5OsN/mhyY960dV5a23TL9/FTPHj+02Wrcfbdaf2xMUXShpXvu1Ls3vjO9MUktvECPQ3KbFwECCUF4EUxyMsQLRyBa+ELGqUy/3m8uvC/ymhtkPF01u4Qw138yNEc/o2tdC7pamQydE+8OG0d++s4znv0BsYGcUHhVtkhPuouFepkDbYeSs0rWSsUhdyNqsaQZrIg1kuDIjVMx4r5+ITsJvAA1jNBcDzWICF2PVBDRrZr06wXSnYgv/8NX0SX5CEWshSA7E+TpPpvNxN0E0jU5lhuWdQOGxpW7NmKbBk+fmKa8WqeQS3HN5ZeweX0/gedy+nyFY6dmOb9QjtsW9+6YpL8rxVPPzrFYrsb5fKmTIOsOVFWJuxnk78lIhSxelGREiJBrXv8KnhBV1LyNauqotomqS28EBSHTEqr82ySShZEIfM/Flx0RmTSyckCTQkeaxqhhsOR5hLrFtoJGFFYJhY+v5BldneV3t4rQyKz/i46/+WM9e7eWV2b0Ps05/1+UlfvfGTbP2cjoitV1Vs8MvHe5qnxt/cve71z4ikjukCBw8SOQEISLf46TEV4gAg/800cv37mu/FuG2rgmCtrrIhGqsd1z7OaYbaPnjqtGdgVR7xfu4mS1UU9/YG6Ab4k8l1g5fn3jZYyVhijXF/jbJ+7l2VaTveks2wc38+DMMfSgRt1Ocz6EHuFhqJqM3SN3dk0e1n2BKlsIghDhB4iOh99ymNCKjNtFbvv811B1M9YzkNECGSmQG7fUB4hFi2J+INsSXSzToquQYXQgz8RoP+eX6rTaAVfvnaCnoMc1C42Wx4MHnsUPBAPduTiNcHZ6gUrDod5ox22SUlRJCiPJlsaYkGgGvufHSEuCIAs43/rrb+HR2lminIVhm+iGFFTS4nbDSH4/WcchxZdkikLGPJQIqUUpjaikk6QuuyhUlToq0xhstjTGtToBAWoELVI0Q5U/6zrHWG+6ijH0mGL0zEdow1FnZq9on++KpLqlqqMZqVDRMycUs+vuVXXnrWOXvunABS6L5PIEgYsegYQgXPRTnAzwQhG441O/+/PbRst/n00JXT4wcYhdhGvywWq86UWRokYNx1UeX/SU79UzWFaGR6MU23s38MbRDTx09ig71+2mZAZ8+vF7CdQsb9ywg7vOHOTpVp0Nus+SblNRrHhzfE4aEQJBJAv1RITvegg/JHQ8RLPNVjVLqR3yyF0PoygGYaxIKNMJXuye2Gy3SKcycU2A/M5SPsgwrLgRcePEKJMjeZpth+6uPCfPzHJurhxfN9hXZNvmMSq1NsV8ltNTizx++GxchyAjBbLTwfV8ms0WlilJhUarLc2RlNhNUuonSDKy8fpdnC6ZiFIeLWOTT6VxpSiTlEQ2jTiSIPGT30waWYRR+JxosmQLQaztIFMSgaoRSZyjENV3Y6Kkqhpp3WRfIc0OZ5axaJmrhjSRsVVJqVQRBOqaSqSxZsst2RNqpCiGN7VovnfH6z/1kQtdF8n1CQIXOwIJQbjYZzgZ3wUj8IVb3/uLZ8XyP6ykDBxXoLrSasCIiwVlcZ7X6aBLXQQjhZZKc7zWjAv5dmY0ct0bec2my3ni1MOcarm89aqb0LwGz8zNsqFnkAeO3Mtj7RrnArhUc8kZZrxxSmkjGT1QAxFv6NLPQG6+viM/z8VxfC5bv4c+M8f7/+Aj8QYqeYUsTJQiRmEoBYM0hKLG/gSys8C003Er4sS6MTYMl3j0qWfp6c6zeV0fTx6ZYm6pEm+mPaU82zaOxcqL84t1Nk8Oc25qntml1biFEblRq8R1Bp4frCkqyu+qqWupkYhYcvm9f/q7PHr2UYKUGRMJzdDjFINUm9SlONOaKHQs2yyUNQ8LGfGQ0lPyXaStFWRKdUQppxzTB7npSzGmKCKrKLEh1vfrLmnLYKNXY1xtkTWiOIKiKNLJUV4TodtSDVLFClSCVf+9v/ru2//kghdGcoMEgYscgYQgXOQTnAzvwhG4/Xt//vYD1D53Ni1z+pBzNPoUj2anTmRIYaGAIhEFBYzQixUVD9YUao7HtnSKkYGtLHstWqvTqFaJ0b5J+qIAzdC449xhbL9KVTWZVU2568aCRnKjle0DscYPkPHD2O7Ycz3CjotodRhthYwEZtzmKLfVtQ4C7zklQyfO6xfyxVhRUaYeZF2A/Pcr9l/G9MxcvGHv2zlJxow4v9Rgtd7G6bjYts1wfyHenI+dnqPR9Nk41sV9jx7DcTqkbJts2qbjBrTb9ViyOZPJxv4PndhbYU1NcfOVm5ktKqhd2VhcSbFNui2LimQQMsUgCYDUZ5DKjs8JNAlZmKnImgRJCpQ4FSH/C2Ta4blOSh8FWUQQSEVLmZKQ6Rj50pT4tnGwQCpcGnr8XaRQkibTJ90G45Hg8nrrvX/4s59MCMKFPxrJHS5yBBKCcJFPcDK8C0fg9gc/8fYnlcbnlrKl2M3RX64TLp+mslQmPdKNUsrSG4bkwgBdxuAFeELn6bqK40UM6irzik7TD9imhVQVg1VPMKiHrGoGi0HEqBKAbmA8Rw5UWQAonqsfkCTB9YgCWcjn4zsefttlndnNJcVB/uYvPhu3KWraWl1ApEQ0ms3YWyEl/QwCuYGumTLJlMFlOycQoc9gX4kjx89ycmoB08pww/5t9OR07nzgGZZW22TSKSbGBmL1RKmF8N0fHmJlpRqnVqTHg8wLNJr12IdBiifFUggyAhCnXuBNv/IzHK1NoaWMtc3bNmNSJFMHka6tkQRJFmQrpojWWjpld4i8WLZmKhGRriJkXUX8cZKMSTMmlUVF56wfIvs1YpzikgsZe3lONVGaUul6XI+hyI/qMrF7dMaEz7Xt9v9873/6xAcufGUkd0gQuLgRSAjCxT2/yeheAARu+96fvf2wHX6unO+h5UU0Flaonj9Gp9HC6M5i9JboEYKuMMBmLSUgNysvMjjR1Gh2Avq0iAXVouOHbFN8qprJqoARVbCk6iyiYcvCPOlGKE/8z0UOFAGa7EyQdQRSoVCmGVoOQcthkhRDvs7dd9yHJqWS5Qb73Ala1gjI+gO5kctTuqopFPJ5tqwfpNFssOuS9Zw8dZYnjp3HjQmEyr5dG1k/kOFr9zwRu0JKo6ZsyuaV+3fy7JkFcrk0x0+dp9F24kiE3NhjR0hp5mQYtDud+H3atglDjytfcxXPqk3Ktk1kWZAySeezjGZsnMChoujkNQ079OP2zXpb0JaGUHLOpGyzrD+QBMHUY8MpmXiQRKGPiA0anEfjNCqhrsffNS6AlFGHmEwoa0ZTkmjooBZNzJLB/2HvzcMkOasz31/sEbln1r53VVfvm1prS0ggJIQQi7GwwQsYjN02Hnu83Is9jPHYLB5dzGbAwxjbbWAwRmDZGAwIJCEhCe2g1tKt3tfq2rOycl9ij3u/KMEzf91pJP2lynqeUneXIiLzOyeyvjfOec/7bnRtXlGrf+BDP/eZD78Et0b3Et0IvKwj0AUIL+v0dhf3UkTgq/9x22+cT7ifr+bydMKIervDwuJ52pUqciKBkUqj+xE4IVoY0qOHJCzR/5do+SrnOiqSDZusBFZujE2pDE67xCPlZeaExDJerAwoSuuK2HBF2V28cfFkLDb358cXhRCRJ7QBOi52y2Fv/zTDmHz6o38X+wzE5XTRsw/XmPtij40kwUcQmggKm6fGkPA5P7fCNZfv5NnDRyjV7ZjwZyUSXLFrI/0Zhf+4/xCKZuC5buzseM2lW3j0qWNMjg3FFYlnhJBS4Mf6Ca7rY7suSSsRgwOh3qjE1YyQ173jjZxpFTGTGrqlo6Qs9HSCfs1jaXmJWt8QhpWkV2piBhFnq6IlYNJnJlnp1KlKAb6hE2gKWrtG0q1R1y2KRo6eMGBaDplRVM7JGrIqI6sSgkUquBAxmhBoSQAFTUJO6sgJicl2m2tL5Q/++a1/86GX4t7oXqMbgZdzBLoA4eWc3e7aXpII3PXlD+wf6l85oFmiqx/ii4kCzyVw7ZggIErm4i81Hw5WJR5pmBRMmWRaJoyNkgx29V7O1WM7WV5ZIJXKkbAyLLdW+Jczz/JUaQ7FF86ICtHzLoqCiBd5Qs9AQYskIqED4HnYgoNguwStDtO+wWBg8ND3fhgbKYnahXiqF+9NbOwCGAg+gRAxEv/es20D7Y7L6fPzvPmmKzl+eoYzs6sxVbC3p8CbX70Ty5C465GT8eSCsI8eGe7nyp0bYv6BcIUcH+rh8aePxeRMUSkQgKFWb2MaOp4QVrJtNEVDVeHS1+zjvNxEzlroCVNIMyIkJfeqDQK3w1y6FzmZJOtVyBgGi40UI1GO12+7gmJ9gdOlY1SE0qIKTr1IbamB0ZtlLtWPr+rorTbbDIljhomh+NygVpgyHAxJVDZECUZdG6cU5EZBkNRUTAHkloMPvfnt//jBl+Tm6F6kG4GXcQS6AOFlnNzu0l6aCNx/+0f2b+69cCCVcGPCm3g6F0/rwrFQ/BkEkhuFUgPJSyJ1zAeKKp8rFRjNgplQ2d63k825zTw9P8c9Zw+xVfMpa3k0I881I5M8tXKKc43lNfEh24krCXIgpJEFA1+Oqwiily7IiaL9ILgIoWgxJPvZkR3iM7d9Nmb/p5Ip2nYnLvWnkunnhZNcNE3HdV3GhvrZtmmMIyfn+aVb9pBImjx9dBbbizBkibMXirQch13bNmCJaoeuMD6ch9Dm3sfOoBkavutx8NApOnYHU9dJpSzaHTHN4MaTA6KKYGh6HPgb3vpaorQYV/RQLAM7YXJQtCLadVJem6jQx5RkYzQrGKkEDb9A+XSZ0ncfx5waJrh6C04hiRsGeLPnmewz6cg6vf3DTCbgVM2n0nZ5V6HF9ZkKwwmJSEhUiDFKodooqiqhH39Lko6kGLHSY72T+csNr/v0X7w0d0f3Kt0IvHwj0AUIL9/cdlf2EkXg2BP/3pNyZm81woX3GlplsyxHMQsvCkLsoPAU6vifKU7wXMTCVila/lPU9iu/eE5Rfxj2sr0vy57hSzhbPsWF6iKHmkbcw9+lR5wLNbb2TvPq/mHuOfU4Zbu1VhUXvXMhxCTevxA9imURQgI3iLkInuPhtW22WUMMa2k+/7nbUcSGKKYBRK9eJq4UiL9rYuTxeU8Gcb0brt7F+EgvcwslhgbybN44yMlTczzyzDlmlyoEvks+l+EVl29m5/Qozx45w4mZEnt2TOC7IY89fZJSpbEmkOS7MRchDKX4NYQ+ggA0QndBXOdXfvcd/KB8mroOUjqBkTDpzVqc1Q08Q0eXwGgsk1dchpMJglWLxmyT6EcnaORNMq/YwcbxPC0j4nClQrXpMNKTZygjU+jU0B2N+abPR0YWGUpqRTca+Xbg55+JpGC3Fs2/UYnKgzFvUUw6qFYYkpzxg8w/r4b9X9l6wx+deIluj+5luhF42UagCxBetqntLuyljMD999+vbtOPvEELZz+rq5VRUTkIlQG3Zb766pE9Nz71k9davu991+jG0h3Fhj3yJ0sjXDU8wUR+mCfnf0zaMFmq1nm0rTGtGExaGhdaNr926S189+xBjlYWY7EjoSkQC/uEQVwtEGQ7IT3sez6BAAeOi9/qsF3L0dcJ+O7Xvh+z+8WYowAua4R/Mfcv1A2duB0gRgLFdMHG8WGu3DPFdx98Om5BXLpjgoSp8aPDZ+OxRfEaYkO9cu9WskmNHz7xHF6octUlG2k2mpyYKWLbologJgfEmKLAMF7MRRDeD7EKogyGpjL5qj3M5iArO6hJnaWBIUhlSOsBugAtToeqmSCbNphSAzrnXa4obOLyf1RacAAAIABJREFUvmHm2lWeWDmLke3QsKCUMGkrCmoYkPZdBtodnLbOdr/C726TXdvOv7fnFR//W0mSwg984APyb95Y+G3LO/JRTetkxBiDpKaXJGXo/Sflnn++/PL3rEk+dr+6EehG4P83Al2A0L1BuhG4yAicf+xr21Lyqc/qwYUbYiGf9BXLmZ3vGRab0k8usfTsPyX15iNPRmF967uP9HLJ2G425Ps4szLDlRM7+F9Pf58zocR1vVPcODTO3Ycf4JY9N3Jm+Tw/Xji+1roQu2xMUBQAIVhTDgzDNYDgB3Rsj3bbYVd+gmHJ5B/+51fiaUEBKmLnRjFFIcYNRatCXIvnWxRhQD6T4fp9O3jk4FHqjU5cLdg6PcrJs7PUmu14XFKMN06O9lFarXDq/Fzcrrjuiq089uQxWq6QORLXJ9ZVENMFQjDJ89amDyRkNE2O3Rzf8I4382xnBtWvIpkqyyPjrOYGido1RioLcTvCHxomW8gzKrUJVyUWSh7XpnMsujZhWiObtWloPjXTwBMVkSDACgLynk+lZfBz+iKvn+6bbYRTlw1d+gcrP8nD2cf/Y8Bynrg/oSxtE7GQ9fzDfmLb7xV2/dahi0x397BuBNZ9BLoAYd3fAt0AXGwEKke+ulfqnP472Z25Uogjkd7TDJKv3VHYuOOnLoIrz/7tFt05cpfnlDZ84FQvIwO7mewd59TyWfaO7eKZ8ixNr83m7DDp0OehEz/ilktew9HZYxxcPh17EkSK6KWvyTnLAhx4IYoY//PEE35A2/VYarSZsvrp7YTc+bW7QRZP72JiwY89D8IgQtXEqKJwalozUhLkxWwmxfSGEfI5iyMnLtBqu1x/9Q50VWK+WIvdIEcGejF0eOSpE9SbHSZHBkiYOg/9+FCsTihEl+IKSmzWRCzeFGsfCLXDEFQxUSDB7tft4xm1iWWGGLkElUI/Xr6XwG5jLlygkLRIDgzQl9Mp+A0Kgc4DxYgrVYUF12c4Z5C02jSEiZWqEsQaEWseDSkxTdIxeU00y607hs4nstOXShO/W/lJLueO3dtjVB58UHXP7hBvUtZ7n4gSm34vt/t3D15svrvHdSOw3iPQBQjr/Q7orv+iIhCd+HZvO5z5v4LWuT+InHJKEOEkLR2F1mVflZPTH0rrG2YdjowE1af+2GudfOeDMx3rs/UBxjMT/Nymy7nnzFN0QoVrN2xDIWKpWePJmWNMJjNcv+Uybn/6fpbcOq4q05aEoKKYSQiRvABVlO87NkFnzYvBCXwM32df70ZGFIO/+8yX43FGMa7ouk78JC9EgsRmL4CB0EKIN/QojDd3oYI4NtwXyywnLY2h3gyHj5+PAYIYURR6B9dePk2jabO40mC12mRucYXlldW4f2BoWiylLACJL6ypNUEGjPB9QawMMUwdXZF51x++m/uKh6nrUkxCJGEi6SplVWXVDhjUNaYKGknZJh24ZCON+8oGlwuA0O4wnJZJWx1awsRJU3HFOmIh6ggj7m2kKZQXeN9ew9XMwd8xt0tfkqQPhdEddyjV7Y23U3/qb8JOMSvIioqRrUbG4CfC3LbPFja+rXZRSe8e1I3AOo9AFyCs8xugu/z/cwQO3nXguo39xb9UwuJloVNLiadysemIcnwkGy5a/oKsJeeJOv04SxtOzJes/9XeCIl0bDp0xehuBO3wqblDaDLowvXQ81Akk32b99Ful+P2gmNqtGWJxXqZZr2Kkc6xMTfBABJzZ09Qq9vi9ThaLmH7AYONgGzN5vSPTuKJMrqsYtvtWApZ8AsE90BMRqyZS4mKgkokKTFxUUwcCIXErVNDjA4VePjgaRzPj0cWe3Iprr50E2Hgc/T0EsWysFeW4uqEABtiHLMjeBC+F48TCiVFMYIpeA5i2kLwDxRFYvyyjSwNWjjZFHLSBFVBAybTJguqHKtIbjFcRs0A4WyhhRo/rCe40tCYabbQIo9+zUXRQEuruJoca0sIkoXwl7Aik6WmxH7pLNds6ZkH458iY/RpVTF3e/Xz7wg6xYlYX3HNrCmS1ExZMUcfqrH5c8OX3HrP/znz3SO6EVjfEegChPWd/+7qLyICd37hz/dvHZ4/kDCFG5IQHFgjBMajdIImL8fOAbQdn8PLHvf5E6R7C9ScRVqRjyypXDF4GZsLU8wXT+E2moz1bKavZ4Rn5s/x7UMPsip5OKqCHbTJVpaIbB9tOM8rRy7n+r4JLjz9UCz6kx6Z5oGjB6kHHfZNvxKt6fLnf/pRXNFSUIQBkpAqFg/6KkEotBU0QtG3t8yYFyD4C2s2D2vui2LqYLg/H/MQSuUGpmWRTVnMzi8xs1CMtQQE1+AniomdWC0xiDkPyUQq1j+o1WqxmqIgJqiaEY8VaorE7//X3+NI5SiK6aOoKsVQ54QtUXMdrsqrLOgmK7LC9oQv5BGYcTSWJYvXZhKs1mwMLUXbdWLAdMkIOJofqyvGSolRhB4zPyyWVh1+WVnglRsUDHWtPSMwUezkKCLiOzGhUlY1JNlgdiX5sd23/s37LiL13UO6EVjXEegChHWd/u7iLyYCX/vah/fPRosHSoaC4wZghxiivC78ESI53oDFruvrQgwoTzpj4vgV6qETGx6JDdkIoU/JMpm/nB2jW7Eri5yYPcmJlTnqkUuYsHBNg2eWl/CX5hnJaLQkhR2ZadKVJpW5M6iiv5/Ic6xdxdMlNqh9hIurPHz34yiaHoshaeoa1+AnfgaGbuC4bvwehcBTFMoYuhTzBARPQbw3cXw6lWRidIBGo81KuUqrvSYClUhYcQXC90JSSYtGq4MrLJeRsQxLGCvHrQVBThQgQqg4iiqDGIO87o03smzU8LWQjK6yq3+Uvmwv3zh9jEVZYiyrs5pMsiIQjecyGTnIYYe+fC9Dci83T1xJ3W3z9fOHyRUcqlFtzaUx9m4IkKMQI5IIogTFmsNIp8qE5pEQwxzxbzYBFtzYKTLSFXRTi/NAWfnEr//Ol/7kYnLfPaYbgfUcgS5AWM/Z7679oiLw5Ttv2/+c5h04nbAQ+2aiA3mvQaNWRsul8RWJZBCSUUAlpB05+LKEKyoNosIgJhIcn9WG0PApsDeZpLhwgRUBMISjoaLgifaCruLrCsVmm7DTidUCDc0kWK0QVRpIHQcDGT2dwlBVRkkxrlp8/UvfiisaQtdgoCeD7fqYuoFqaLSazZg4KIDC6fNzNFsOmiZx2c5Jak0b2w0o5JLMzpeotToEfojtOLHMcjqdZPumCUxDoVRp05tPc35uAdsJYlXFVDJJPm1RqdUIIyk+7sSZubjNIEDCG9/1Fo625uK1uU2H7XqKqycHafsNjmcKPGN3SFsyK5pKtVZnoryEgk87mUOq60zOdVCyCfxLJjBGZBakBrokkfYFB8NFERoRQiVRTHCEMm0H/FBBi42j1kygBKGxGBpcMCS0vMJA6LOv7nziL9766S5AuKi7v3vQeo5AFyCs5+x3135REbj9no/tP2wEB5ZTORxPwp5fIVw+Tb1cx5rsI8glyUchCaE1IEraQsJAEgS+cM1gyI1YqUe4gcVuXadSrbDsSgybOpHvxnLMwpCoqMrMKSqGJnY8JSb8CZKi1GyhN53Y/lkVpMVQwnU8hjyDnAt3f+MBJEWOvRYmR3piBUUxqlgs1+KnbceXsEyNheUSuqpQa7a4eu90rHtQrXco5FIcOz3LQrGKJK1trkLbQICA4cFedm6ZoNqwkaKAVrtFtW7jeTZ+IDE+3LcmjBSCZSo8/tSxuLogavw3/eLrOBcUUUwNEygu1+jVFF63Zwf90xv5Xr3KQa+Jpoa0hE300hIGAVq6h7EoQeb4Km0jJLxmglW5QSmwMfrz9AF5uxMTNWNnZwETnp9uiJ0hY6OrNa6CFUrMuWke1iTMXo2J0OfaWuuvP3jrp997UcnvHtSNwDqOQBcgrOPkd5d+cRH4mgAIZnhgJdtL24PG3BKtxdM0XQfyCRI9OQq+EPDxUZ+3KBZyQ2KzMiIVyU1TbEmMSAGr5QpLAVyeSdKu1Sl5Ib4U4agyqqEQCqdDwySQolgQSeggyLaHGvtM++CKcUehqOizOTFAwZH48oF/RTdNRoZ62TjeH/+/XDbFqXMLsdbB9OQotXqDmfllspkEtu3xuusvY6FYRrg+DvTmePLQGWYXi6iqHo8oCnCSsAx2bZnEcRwMy4pHHZutVqx5ML+4TCRrbN0wzPFzs/HPBJfhyMnz6IZBp2Pztt98G082Z+lIAWlFJhFFnK13uKIwwKtecSVP+kWeDR1WfRkt9HDrLVabNpv781yhJ9irjjLrlfm+uoDdaCCHEsWhBCPJJIOtNknfX/Nker5aIIiLa9Ma4tfa8xMcfsRilOcJS8Xo05nyXV5Za37qA2/85P99cdnvHtWNwPqNQBcgrN/cd1d+kRG4/Zu37T+d9A+U8z00g5B6s8VccZ5GtYKcTJEwLCzbQ/EjDAXyloSqQxRE9Kmj3LLttahhhKXIzFYrlMsLZHyfE9VVWvYqntuhFgY8FwpL4yhuOwi76DDWQgiRXBfJ89eqCV6AJ8YdHZfpKElPqHOnsHt+noOgqzKmLp6oA4rlRrzCqdGBmAkxt7T6U0XF3cK4qd2mXG/R35NndnGVerONblgxwPADl3w2zZbJYVzPZ3axzFB/lmKphqZpsT6CaE3kUzrn54t0XOHmrFCu1eNxS8EVeNu7fpHDtXNYBoSGQUOMJ+oKi4HCUG+eyGzQ8G1amX6qWoZ86MatgkYQsj0K2J3KsiJ7PK23mG1XYsEovafAsKYx3O6Q9YPY/VIAA8eNqLZDOiH4snDSjDFC3OqppHJUcgnUpMK453FdsfqZD936yT+6yPR3D+tGYN1GoAsQ1m3quwu/2Ah86wvv3z81unpAt9YMlARDXpTgQ99bsxUW8sgRrLgSD7USPOakKKgBVU/CJc/NhQG2906yc/oSVFkmZRjxSz929DG+8MRdzIjRQClkd1pjGZUzrhQ7RAqJZaHRKEYII8eNN0ghlhTYHn7HZjLQmIoS/PDOB2jbLqZhsWG0L37KL9faDA/k47aB0CwQEwyWqdK2fdJJEz8Qm7UQVgoZHuzh1LlFXHF9hFxBgoKYJKjWyKStGKj4oUSj1UZTFDaMDaBrGrbdYWigQLFUj0WZXMdmdqEYAw3hA7H5FTs5nozQEwaX5BPYCYtGGMQGVs8GEiOtEmkNpPE+3OwQc3WPSUHYjDSWOzbbNRszIbGaTbKU0HAJSUgyfaLqYbtYwrUyCCm1oGRH7Ev5bLdsEnJAEERruRLeEIqMpBvIAkRFqkjUZ259+4EuQLjYD0D3uHUbgS5AWLep7y78YiNw5z/+2a/tGV/520wqSgi7QGH6HKOEeDtVhE9RNYyUjiS5ySjyM3evyMpf13tx1SRv6BvnrduvY7wwRKvV4MTsebI9A5ydeZq7jz3FQrtMSnKYMywWtQybIpcNqph6WBvVE9Vz8Z9YysD3CYRQku3SabtMZTYwoqf46G3/E8OwmBrrp78nRz4t3JF0yrUa9VYLXdMZ7ssyMpin0rCxDIULC1USCVEJaNPpOJybW4l5AIqqsGF0iE0TA9iio2G340rBA0+colavIUsR0xsGY3OopeUyr7vhcu667wmmJscxNDh8YoaOE8RTE3/85+/ludmDNNSI827AaEpjSTPoKII0KTO/WqEnAfpYnlwhj99SOV6x2U5AJ5SoODYbkz5GRqWSNPBkCSOMyPk+KQE0/JDVekTgR/zhSIOtGcmPQtmLQl/gMCH6IAluQiwBLYmqhhqFkdSpNfjMxC1ffP/F5r97XDcC6zUCXYCwXjPfXfdFR+DBu78wNhrNviVrVN6ua61LkHwtFh+CyPVzd0fK4GfQEmfwK3slb/kPJKVx1ZfnZfVZZZykp7N3/HKmMxlyVob+Qn9sX7xcW+HBk8/wxJEHcIMmYcrgnDUQE+4s10MNwljbQPD0ZQFIxCSl78ecAd92CFo2U65GvhXw2N2Pi+ICG0b62LpxhLmlFUYHe+LRxfnlVVKWEYMCoZoowEaz7fDjI7NxJaDeaLJpcpCT54rx07+syEyNDTHcl6bW6NDs2DGH4dvff5xA9PwVha1TI3GrYm65yjV7J3nimTMU8lmSpsq5uVIsqCTis+MVl3A+4TOQsygUMixGEgMJhVVVpWloqFFAyQ1I9ViMpWAgCinZBmfbMOa72JFEO/LZkPRIJiRcRUKRxKSIhCE0FT2FxZrPn4zU2JxLrvhhz30+ueORb4+pUeVGRS5PiKlIIUMt/DLC0Djp+8aX6x3t61O3fKzr5njRn4Duges1Al2AsF4z3133zxSBKLpDKT547AZNWf20qrS2CzXFSO4pO9GuKwde8etnYrQQRdLiw5/4eYuTf990a31/eq4f2Rzl9ZM7ySRz9CUSzC2c5mzHp68nxzMLR3li5jiS5FPzPYzeAfRIwhKbZhBiBGuMfKFWKFoYQgBI2CvbHQfPdtik9bHBzPC5z3wZoUQw2JuNWwBLqzUu2TmNpWssF1fi8wd60ni+x7m5VSbHBzh9ocTIYIF6vRn/Ob+4Ssf1sAw9riJs3TjMwtJqDAjSSYtnjp6NX9vxQkb687FS42q1zWW7J/nR0ydiMCJaF7OLpVhpUQCEt/76WznenmPJUMiaauy9sIREjxZRMy1qsoSlydQklQIOWw2XnKow45icr3sMhT4dRaUSeGy2fCxNeD8IBUgp9o6o2gYTbpXfF9kIR25zrFd9dHDPza3nnrtDz9Ya7zLdZz6uq/WsEI1CSZR8ej9Y64x/fvLV77Z/puR3D+5GYJ1GoAsQ1mniu8v+2SNw+u7/PlZIlj+uKvVfigIfEjsPZi/948v/9ystHL1vwij/xwMyxQ2/eqhA3iowJKsYZo4xBWbrDfxkmnzKZiaocsz1KXW8eDJBMk0sVcawPXAiVF+M6a05MQpmvtiUQ9fD7Ti4HZtMMyBT83nu/sMEEeiagu95OJ5HJpMiaeixsJHwTBCtAaGcKKoCmZRJIASTDAPfd8mmEzRadgwAYiEiSSKVNOPWgwALYqqh2mitkSYlGV1V0TU1Pl6SIqr1JqZpxeJIHduO1RlNU2PnDVewbLQY7M8xo+jkNYn+ZIJZzycrJjZ0nboYD1VlViOFvqjDjoSHrijMi0pCw6NPimgpKqsCMBHEOhOjRsiGlMSia/Ias8ybNqUrobRtX+aS/3zyJ7lYOHF/b7T8yH0pZWb3mm9G/lnf3PL7hT2/9dDPnvnuGd0IrM8IdAHC+sx7d9UvIALVJz4+KUXFT0lh+c1CTlhObVvoDL9xS3//zuZPLrd8+DvXWJ17/rXRWBz+9dPDDKCiBgFjqR5eu+Ma9FSBtlOjEzQ40p7jkeYcRcfGWq7FcsNK3qInDLH8CCVSUBFEwjXCnR/4OI6PI+yeWzZh28Gda3Ly+6fx/CCeLvBcZ00/QZJiHYM1SUEJV0xCPO/oKDwZhPKhrmsx6DANM5ZCFoqKQiBJUtZGBIUyYxRJsSOkqD4owhQB8RSvxj4NYqTQtp34fQkgEb9e7FYtx0qNW27cxWxGJW+o5HJpTikaAwpsTOg8bQcMaQqGlaDcrpM1dU7ZPkOSwxU50UpQOWobnLZDpuQQPeYRSLTCkBXHY4sV0pF0Xm+VecvO3koytWePNP0bsz/Jw+rqqYx/5s4HLO/I3piDYPSd8Mytf9iz8513v4DUd0/pRmBdRqALENZl2ruL/lkjEJ36rmEHx9/hN2c+EjpV8WALWir09Z1/58pTHxrY/dqV+tnvT8vuidtoHHrzXSdr+iebo2wVbopBwJ7BTbz20hs5fOw+Ss4sZmqITO82vnb2IIdW5yi0yhQMGTmTol9VyYQRungN4VoYgRcbIYU4ro/b8bA7Lr7r0Z5v8fQ3j2Baibh6IKoEYmpBtN79wEPTdFRVwXFEhSCIKwT5XJ7weXfHKBQVg7h/ITQJY3Lhms+CHls4C86DEG0Sxk4CQISRHLspCsDgun7siyAcpS1Dw7J0BIFT/Fxc46pbL0UaSXHClunR5FiD4Qga/YHHtpTOoU7IsFCWUiRans+IqfG4HZEMHRJEVFSDkm6hhkFM2lSiiOnQIS0rHHYDHFXlJqnCX11phorV+1+s7dqnhJujyG312Dd+QW4/dSDqLOZjsyYl4QXGxBc8c/uHe7fctCjMm37We6B7fDcC6y0CXYCw3jLeXe/PHIGTj3zlkqHU7J9I3vKbQreRjiKh4CcE/iNQzRBzZEY1CrNR0JwMOjMj5xaW5A8s9DNHiqsMmZbtMZ3p40373kQYtCm3l8nlRlls1vjO4Ts50qox46n4joeeTKMFEQoCWITxGJ8YP4y9HuLJhjCuHHgdWzAkMRcqtB48jixrMYlQuDeKsQrbsUknM4SRv1ZZ8ARY0NaEhMKIVCpNXUwlCE+JQLhTru30hq7HqogCMAj+gdjoxZeomAg1Rs8P44rG2gSHLDoOeMKOWlQdlDUTBF0XjYCITa+dJjeZATPDkY7KmAaGafBkqLE1dBkzFY42PCZ1iZYYR3RdxlMmR4XxlKYTCfMqKcTxPUqRgi1aNa7DHreDqes87UNWV/jv1gX2bU5XFLXn82py6sFQSu2I7Av/KWycGw/D4Ke/4yQt55HYfMhJXPKpvo1Xf+VnvhG6J3QjsM4i0AUI6yzh3eX+7BG47/b37x8vLB3QjeCnGv+SJIre4snbjQV5xE7ZCeBE2eNrlQxntRyXWqKP3+SMI3OpqZLIjDGhukhyh3OdDidWyiQaS7RNlUrPIA4quuuTDCElOAXCS0C0CARJUXwHYVxQcAVRUegiiCpBtUHt6By+G8Y8hG1jG9k4Msb3HnmIt9/yeu5/7AlGBgdodtqMDA1QazRYKpa48bpr+c6997J36zaOnTnD1Zdfxn2PPsoV23fScm3arkvC0CmulNg4McYd376T97zjV3ng4UfYOD7GheVlxvt6uVBcoVSvs3vLZu45/AyhGmIaEmbSon9LH8mMQcY0WJGSHHEkdmtRPHb5XKAw6NtMaAozHY8RTaIsKdSEcZSu4Atw4LuknCpSq0nQ00cpP86AGsbkyBHHjgWlTkYyfVLA/nSJKwYVLEVYQYvKS/C8o6Ood4iWixhzFOUKmYXV1D/s/cXPvudnvxO6Z3QjsL4i0AUI6yvf3dW+gAjc/rUP7J935g7UTAVPPN26EknRxZclQvEtdAqASqhyVDKZkwyuTBg0W02OeJDWTS6VfM63fHoiB0v1WJV1zjgRGbeO2OqrVhZJ2BE7QpFRkPHWJIQFFyAS4EBUEQRYCARQEEqHayIJgR/grFYJO2uyzCNGhoKscWZ5gXdevY+7nznMxqEhGp7NQL6PUr0Wqx2+6drr+NYD97NraiNHZs5z05VX8u2HHuYN+/ax2mrQdD0yqQQnzpxjeniYrz/4IL/xupt57Jln2LxhnPPlMlMDAxyfm2Wx2ebyzVM8OXOSpSjCTJroCQs9acTVBFG5cFSdqmaghSHblCCuEJx2QwYDl4IsseJFjOoSy7JCXdGwNZnVjk22VqRPiWiZOrmJraT1Jn5HYaHUYjgQvAiFw5HCID6XRnUGFYeUBqJu4AVrcQwElDMNNF3CDCPkun7g3fs//9sv4FbontKNwLqKQBcgrKt0dxf7QiLw5W/dtv9Zwzlw2jTo2BLpNhT8Jna7gdXXT9sS3gNNlGaTZiBRU7Js10MeKjUYNjUKCvRHBpn0CD9enCGBRyGZx8jmeG7lfKwQGEsuCYliwRMQpk+i5B+X99daGWLzj/8pxh6DgCA2VAoIXDeWXvaabQLBCRDtgjCg1zAZtgyONzpsSiVZ7nToTyRYadvxE/xkUuPZUp2JpMVC22FHNsEzxSpXj/dT8VwaoQBAAQs1h2Fd4my5ycZUEklYLOsac66onMjxE/tRx0dSZXp0CUXoE6gqqqahW8J+Wo0JjILPIKYchM7CnAejShRPWZy1A3oDlz5NjcWUkppEpOu4CjQIWanWod2ib3CATFaIJbXpsRIYbZmZks12KeSCoHJqGhssj5b4jWYlaIY+rWaDhKLhqWlOKwGpjMSQ73JVO/zH//YLf/1bL+Re6J7TjcB6ikAXIKynbHfX+oIicPs9H9n/nB4emE9mEZ5JwVIVrXSO8tIque2TzA3kaRWX6JmvoGoGzZ5xRkyZp8/MsT1oxzbII4M7uGHrK/nR8Ydw63WmBjbSPzjG1w8/QMlvr00eiAK48BYIIzTR3BfA4PlKgdiMf/JhjcceJSmebIinCYRFs3BU9IXk8xq4EGCjGoSMGAksAmp+xICmsNzxmMqnqHZalH2JHhkW7ZAdSZUnq232jRRY6jQoNm3MqEk9FLoISSZNg0bbZyKdIJHqwZdDHlmYZ1BTGR4coyZrzFWWyWsqI7keZmqrrHptpjJ5Vp02Gd2k6djs7enHNDTunZ8lrUpkNInTXkQhDOgzZQ6hoRkW7cgjVEFTJWq2RyL06WkWERMYiaEs44rJYlkm50fYceBUJjNt6kIfwbRYLZdxzpZI9ydQCxt5UgWzIDPmOVzf9j//gTd+bP8Luhm6J3UjsI4i0AUI6yjZ3aW+sAjcftfH9j9nBQeWMz203BB7qUyweDJm9buFLMvDAzSW5xgoN4h8Cbd/I+NJg6efOsJW2UVLGOjZCd6197WMp7LoqokmK5yYP833Tv6IUuDgBh6RsH0We51oLYSiQiB0B9Z0CcQHVbQTJEFUlOT4WFFFUELIyioL7SaixiB+Jo4XJfYeTYsliSsB9OsqbcdnIGnQstusBjK9hspsy2HYNPACh+OuxKsG0pyrVZibXSIXdgjTaWrJAW4opDm70uCywUE2TV/FYL7AI0cfp2r7/MLVN/DE8Se5UK0wNTjBRM8gq3aL7xx+hHdc/TruO/wo20amqLYaXDN9CYVkkm889K88VKuQwSdpqBzxFbKSx5AZoTg2pcD7bFMAAAAgAElEQVTjfKoHN5HA0CUqCyvkixfoH8iRHMwzLmuUazqJQKZDSCArjKZa1DSFkq6wVFrBqnmEik9iYAtHTB0tJzPuOtxYd77wwTd99Ddf2N3QPasbgfUTgS5AWD+57q70BUbg9m9+eP/xjHKgku+lEUHZ7nBu5gytUhm5p4CUTuGuruI1mgSJDMlMP+OmzLMHjyI122QGB7l0oJce32TP+CWMelV+dPQpyqGLHfprG7sAB/EUAGsgQExISEKtQHAQwjVPqNjOmHi0UEwfiIPjf8sy7vPnCBdD4QQZyBIeUI8UNpk6NdthQFhJ2y1KnsZkQuVQw2YkYSH5Dk86ASPpPHuyEYeWSiwsrDCWhWVHxs0McEtPipPLDa4bHqFvZDdt12FDPk1x+SzXXvVGPvmNv0fVI16x6TKsCHoKQ3zvyXt4yytv5d6D97JleCM9mTzzC6c558Ly0gy63OBJDwpyGAsr/ThU0FYX2eu2qEhwobefan4QTQnJSyHFk+dJyCG7NvYwIUXMNy2MSKdFwNkwZFT3qSkyHVWm2qrTqVfR0ynMwTFaloGekBlxHF5TanzxA2/5xG+8wNuhe1o3AusmAl2AsG5S3V3oC43AN7/w3v0To/UDii7IgWvfYUwWdNZ4AlGAH8FcYPIDuZ8ZcxA7CjmxWMUKIjank8itDp6n8uqkwenFJc5KBgmhfChcIRVZ7PhCPDE2JBKkREFBEG0HXVHjyoEsHB2FO+HzwEEACTHh4AjyoiLUDU3SVpK616HhO/gSpCSFrSmDVqtFStdjIFDyZLakTQ7WWhTMBCl8nmrZeJLGPs1iMAU/XizRbrbZ1pdhLohYNCxuzpo8MF/hDQMD7J6+nKOlEvu27OZHB+/lrTf9Ej84e4RvHT3Iuy67nm0D4zGf8mN3foX9N7yZf3niPq6b2sFwrofHj/2Yq7deSsNu86UH7qA/Y3DcjehVIuq6yqGOy1hliUBXqOf6yKYt7MCho5j0GgqrrZAhbK60AuY7FlGkoWkR51W4Um2wxWhjSRGumPgQJEVNF32K2HVTOEzqoYRW5ItvffvfdwHCC/1AdM9bNxHoAoR1k+ruQl9oBL534L2/cslk/W8SZlAg8uQoEroE4ik/FjHywkiah6gtS/QIzt2zfkr5UD3PbGSxSVFJttqIqcRLxbhfqcpcpHF5NoHcrlMNPAJJijd0ATICaW0iQmgdxvpFQvcgZI38F/MThBbCmo2xH083eCSSFvu27OOavddx96EHeWjmOVqBSyBaESEUFAU19Gk6EYOGxtGmQz6VIBv5zAvFRhlWynWudhVuunQndz53lPm2zdu2bOFEq8Z3nSY35hN8Z7nJZDLDL2/aA7qJaiR44vRx3nb5FXzzR3ey4MFNm69gsbLCq3ZcyV1PP8DNl72K+w4/weZ8gYyV4Hi1hhJGTPcN8HeP34kR+eR1lWOBRE4J6GgKp10PJ4jI6RI9xUVkzac0uBHZTLBBk6naHvvUFo3A4mQ75OdSTfbl2uxM48iojSiKhJF1CkmSJWlN+2FNUFKOiORqpWn848TN/+O/vND7oXteNwLrJQJdgLBeMt1d5wuOwP1f/ciGiezqG3MJ5y2K3LwmimxjjTEoh56X+pcgMm8PFXlJi4JLJan120FUv+RzxYTyFUZ5pZFiUMmjey22ZAdZ8RQMOWBUNzhSLXO4dI6m78Qjea7vxWJIgkMgXB1F/2BN2TDE8wKW7bXxRjG654v2gxBA8j3SusVbduzjlj37+Pcjj/HDc0/jBx1s3WDMtEh7Hq4TkFYVlm2XfCKJScCiFzCQMUnR5syZJYYqLvvG+3l8eZVFN+Q1wwPMOA4/MDQuy1gUnYDIyPELW69gMpfl4dOHebZc5g9vuJWV4lnOFmcY7R0nn8wSqhr/9sx32Tm2hx5Fp9lYZr62wp7NV8Xjlj889Qxnl46x0hEExJCErnIqlEkqPp6pM6eZBO06hcqKaMCw2jdKIplllxLE7+NSpYkcqZxrBfzFUJlN+cRyECT/zQuTz0mBm1Ok5hsU1dknS0FcPpAkJYxC5XAY8NVyJ3PX1Os++uwLviG6J3YjsE4i0AUI6yTR3WW+uAhEd9yhLBWeeaWmlj6pyq29cQVBKZxteVteNfrqP5gTV3/yyb/Xhpvld1vy8b+aqdXyv12ZZl+yl+nMBGGzSE/PBnKaKdiG5PtH8BqLrNaXKNZXoF0n8u21FkL8JT+vYijKCgG+H3Kh4dGJVRbBC8NYXllwATwjjWWk6E3neGjhDFJrAclro/Xmcc1C7ApZiGDVDeg1zbiaMB9EjOcSpLQ2Ha9DdbnJJnJcOzXFwzNnKbourxmf5nyzwqNOi6YvMySJdoiFnxokGXnIjSUWJYXC4DR9VhJaVUxJoj/Xw3KzzLPVeVTVRPcCaq1VtITF9MRGFMnlZKlGtdVmgxRQcUMM36dgqBwKFExVaDdrLMgadrMRt3GkdIaeyGNSk6gECruUFr4vMeTW+JMdmrBw+uhKuPH/2bTvHfXYVfOBT75Clea+ZGrNqTVih16M5NyH6hfaXxx726c6L+5u6J7djcD6iEAXIKyPPHdX+RJEYPne2wZUffEjitR4tyQMlq3pb2Yu/+Ct//ulFw794DKjdsc3fW9x9NfOTDCkWriBxrAaMufAiKqiSRJapocr+gsMmoN4lWcYHRqPlRLbnXYMBmKIIKvIirbmxCgJCWQ3fpoWMw1h4AobJ0JvFdv3ON0cZNmP+OfjB/EaSxRMqGoWWu8oI1JE3fYZNAwkx2ZBUpnqSWKpLdzQxgslPFfiltGr2JDJc+/MITxN5aaRnZxeneHp1ZMsdRSKTYfNls4xW5gnRbQ9l60JlRlZZTVS2aP79CseqrImwexI0JAkSkDDMAkyaTy7DueWYjGlMDOI13QYj3xWbaH/EDCR1HgykOO1qQmdRc3ADkLMeoWeaolU2iTK9LPRCvBceK28xK2betyADdfkLvvjgz/JRXT//eqi9ODtaWPprXGLQcs+FZnTv5/Z9duPvgS3QvcS3Qisiwh0AcK6SHN3kS9FBObu/+hoylr+mBxWfyV2c0xufzZ1yfsulSRpbUcHVk7+4A16+d++UC2f63/PwlaGFY0VJ2RClzndcpk0TGy3Q2QmuWnDJAPRAPnq9xjfdj1HZhzavvBR8GIVxYShxR4Jwk1RaBwIkSGhcRC3IMTPo4hcSqGXI5yt9DFjjvCpIw8zV1lBV2Xy+V6m0wbLLZdR1UD3HeZ92DPSRyRXcII1MqOn63Q0nX6jl5SaZNmtx2OS42qallOj1V4BW+dE2WWnqVH0QzYkQo43PGoOjCZgVtZpAP2hhx4GsdxxTLZUNRxNhh6LalalsrLEQAtkE9I9/QRNHbtUY5MGR12QXZddWZ2DrgAZwjVKZ07IThcXmVZcHMEJzQ0wldUInYhXe3O8dVu/5xnbrsrv+E9P/xQgRJFUfPwTX7eiU7fGFQS951iob/yD3O7fvPeluBe61+hGYD1EoAsQ1kOWu2t80RGInrtD70gzPx+25z/tdVaGxCYta1nCzPXva+fMzw4NPWk7s2+a9NtP/o1fevjme8/Ulc96m9mlaGQSvewanMAwMiwXz/LE+aP4VoKbJjeyKbkRbeZ2kn27OXghIECJKwkJU0VTZFRNiY2WBNlQGDGJLzFFITZfIZQk5JC3pE+x0syx3LOL/3H0EYwAemSZvmyau4oXsCWVqxRYCWC6L0dCq9LAWxNbUlQ6lkVNmCyV27x92y0M5YYwVZ0g8PnOzMOcrZ4h3TE5tdJhmyUAgs9kxsONAo40dC54Ebv0kAoyHT9C9gISkoz6vIeEGD2sGyqFgsKq1qbstUmn00ypJqMdWCiDU2lyVdbk4VZIwnPYmE/yY0/CUEMcXWamXEctLZHIZJmeHqNP6WC5Kplykf+2y0dJbfncDFv+aMeOt3miJ1E58u/XqO7hr9OZHYiELLaa9UNr8nOSsePD6c3Xr3bdHF/0R6J7gXUQgS5AWAdJ7i7xxUXg1MO37xjOFX8nsmd/0e8UB6NAuCeIxriCbPY5kjX1lGLmFiSvusOpH58+v7KsfmJpkNO+ya+OTHHD7hup1lcJ9QSDqTQf/87naUoB1wwOsTW5kVzpO+jZLRxeUmh7MklDTC7KqHG1IELTdSF2QCgMiCKhlgi+78fmQ5ausyN3nFV7kMbwFfzTk3czHBq87bpX8/CRw3xx4YSY72OrBstexMasjmq18FQZTTfRNCsmM1Ydl5G6zq9f/Uv0Z3vRVY1qu8rtx+/hfOsCBTfJyqrDqKVQ80NyKQcXVzQCONfScOyQITnAREIX32JEU5hdImMISeUooKRopPMK9URAoEjkXI9+x8UMDM5UIdNx2JjReajuxq0Yw1I4I1QWdYkVFU63hI9FyGQ2Iuk3yQQKpabMO/XzXDWZb2nG0B2qlv0+sjUY+fXfCprnt0ahUIYQkhISaIUOiS2PtbWJfxjc8pp/eXF3RffsbgRe/hHoAoSXf467K3yREbjrS/91/2R/8YAqd4ief3qPFYrEpiOa7WIeEXCQmbcV7q9mOUyScifknRu2smvyMo6ff4o5O+DmXddx37MPUvGa9OExYQwx5f0YNTXFsaKM50U4th1vaIJ7ICST8/ksy0srsVWyqiqxPoIACalkAl3T2JU/xoVqjmf8Qb5++inGIp3fu/lWjlw4zuOlUxQjlXHLZK5jo8ouI30RoaaxrWcrY7kx6r5NJwjAi5BRGOwbJWMmKdVLLDVLyFLIkN5DT6IXp1NH0Q1WmwvYoRODFFlSyegZNElFiVUfI1RZxpA1dFVF1xKU67XYnyFSNc5X5vHCJqoMGsSAQpUMRguT2K7L0uoiwz1D1Jw2rU6TTKpAK3Q416rwtyceZlDz2KDZpKUInwT1WpufzzbZmY3IGXr82oRCglpIUIn3I/IkIJ3ImUap0//P22/5q197kbdF9/RuBF72EegChJd9irsLfLERuP3L799fNksHyqrYvH0UG7KasUbG03TcQDxLR3QilZpsxeJGydDn4aLHG0enuWbrtdSapdjOuSeZoVIvEyoSJ2aeolYscq21RKF3DyeX1yydXW9takHsc77n09Obp1Kpx5wDoXng+0Es+pNImBiaztbUUX54vMFDDROvIEYbM7ztyhs5uXiSu88dRjP7uW5skvlGlQcunGLrCGAo7O3fixc6HFk9w3Ko0vQDOuLJX8hBK1pMhNSDAM330cMkg1oazetgSzKaVsMVMtKyHktDR56L4onqAShiPNMPSelKbNaUSAxQck3K1RL92RzHGg0ir0h/Iow38ygUpEsJ0xggSA4xP3eGKVMlMJIs1UoMJCxy2TFetX0vf3bf51kMfAZoMW4F6JpCGxPhHTVEhwETDEHqDAOhNLWmJSHejyaj6BJGBEZN+sqv/to/vuPF3hfd87sReLlHoAsQXu4Z7q7vRUfg9m99ZP9Bs3PgiCpTqXTINSUuK2TQLIOWrjJTWcKzO/EYn5ACLjhtcpLKo0sye3N5ctlRknjUJR3Vt/Edj0DRqK0cprS4xK3DGiMj+zhdDFCF3DISruvFT72BGGtUlViYqd1xSKeSsT5C7JCoKhiaxubEYe46WuLByEAdyrNVH+C1U3s5UTzLPTPHMJwku+U09cDh8aDGjgmJ0FTY2bOTtlvnx0tnKfoa/XogpB2QFJVQ6DFEYewsKcoVggPRr2c40fRIWia5hFBf9GJNhsiFYs1FCSR2WAFaBM+1QNhPjackEoZC2TM5XnXIiuqCbsTSyMOyTUIFO5IxxRN+KFGMDIptl4HAZ9rQWPDERu9zdf8ov/Sad/L+r/81HS1iyQsY02yGMhGRqtLWE1QVk7a35miZABKeRzoIqboaJ1SJRF6hELlc1fBv//Nf/uzbX/SN0b1ANwIv8wh0AcLLPMHd5b34CHzpzg/vP5rSDhzTFKrlNj1Nid1ZjSBlcCZwOHf6eGwMJI/lSaRNBl2Xfl/l8SWJ6YROyZcZ1uFoJ2BK1+i0WxQ7AVmnCtU2b5u0GJ96BTMlD1moHspyzDFoNFoYhkar1SFXyFCvNbESJqlEAkk8eQtTJ0liW/o5vnt8le/rJs5AjoQHmVBBSATV6i4zx0pkjsxhazL6ZRu5dmcazxAAYQeO1+DR+fOMRwG/OOSjhUIiQPg8CFtpn1BIOQuSnxTynZLFI0o/E2LtUgtR4McNmanCFsXjpozNdEL4RoTM2RHfXzU57OiMWQHppMaqr/NcM6LP9UkmTGaikD2qzc3pJuOmj6ZI1H2V76zq3F/TSboB2zSJWS+iR0/zuze+lQ9+/ysoaoAu/CeigMmsi69CNZ2kFEQ0F1bEuyI7OsAAEUMdh7KT4oEIEn0a/Xi8qune/sGf/+suQHjxH43uFV7mEegChJd5grvLe/ER+NJdt+0/ntIPzCWS1FouViNgUPWomRGHnAaV2fMMyxZB2iSdMBl0HAYDhR8VVTaZKos+jKlwuOMxrWu02y2ebIVs8CSuTuS5vq9OfngPZxZaMZ9B9PEd16VcrpHNpvE9j0TKWpNclpW4tRGPPCpq/Pdtyae572SdB1IFTqahvbQCKw30qR6G5X6G2mmuSxao+h3uKS+wY1LGNxV29e7Gcao8OnuWnVLEO8cC9NCJAjlflJTsw5Ik9eEWL5PCWjKMAv7+gsJzqWFSloMTeSgRlBoKhf9PrOnPRhtRXkteiOTCg7IipyR/5TVtv535p3mFB2yTDWnQDZWGZ/LUqs8YHtcVIl6XajJomNUwyhzVjGRSCsq7Gv6q/NVlg6+VrZjEeFkuQVnq5Q9v+Hn+4d4vcCqAXgWakSBdOrTUiFIywaLTQSo1cCIJabSXPl1juNGh5Vg8rOvo/QZDgcONjc7tH3r9x7sA4cV/NLpXeJlHoAsQXuYJ7i7vxUfg9jtv238yrR6opLOsuA6NZhu/02E18mOxoGh5iYyl4isWhqJjiJHEUGXFU7lUk5lxAjZocKzjM63rtNotHm26vKkwyX++8kbU0g9oq0OcXepA5McaB8KtsdPuYNsustA8kIQfA6QzqZgfKeSXJTHFYBhstg5RizZQ33QVHz78DU4XZ0n7MkFCYVQfor9p8OaxaZbbde6bO8/mcQlPh+2F7fh+i0fnzrIj8Hn3Rh1VKTzW6PS9fcOrfuvc/fffr25NXHi77h35hEy198AMHE4MY1o2TuQj+TJnywG35ZbDXf3Zx+xg4D1D1/7FERHxhSe+eJ3hHr6z5K+m/3ImhW2o5NIymiBY+imeK7X4UH8j3NuXeTJQBt7bd9X7HoEPSktPX3az0nz89ll7KffxeZPnGhqvT/2/7H13tB1nde/vm2/6nH57UZeLbLl3G/cSAwaDsYxLgDiIRwgtwAvweCQOPHghgeQlLxCKwIlxQi+OjcEY3HCTuyRLVi9X0u33nn7O9Jn39r4yi6z1Xuy15PwjzV3Li6V7z8w5s785fL/Z+1d0xPog3nPxtbjj/q9hWwQUJbDXD7DEitDSJFqqRC1w0e1WEWoSTmUQOdWAHUXoQsV4wYGWVzEUhbi01vzeZ675m5sO/87IzpBV4MiuQAYQjuz1za7uNajAD2//07W9w511ihkS0Z+4b4iigCOWoyCCmQIFTUEzTBEKiVTVsbkl8fNuESdoKg74CZZpwPaOj+Waga7XwfpOhPORx00rTsGofBGhsQj7aymrFEgFIBWVfQ9I2hiTwuBQLoNUVQgp+HfEzu8r5jCQPo+mWIHWitPwv3b+EgfI8jgVcFQNmmKiOhPiZEXDZLMNp2BhpCdAqCtYVV6FJPGx/sBunBCFePeqHKQ87i3l0971by+XLd28WZ9q/PLnlrLv8m/sCfGiPQhT7yIQNF6QKLZa+OSo6+X6T/t0/oQP/+3v+gtMPfWVb8bu0+/+yYyO59UeGJaCNOzCSUzsnm7jCyui2kjvos8/Vzv/7y+99FKaDPDPxJN//zeht/mjd0yluKuaw1UFC80ojw9ecQO+ff/XsDVIWPr4bBBjQPFxUTmAJogvEaGsBIgl0FBspEQipQEJ1VSXXDcrFshPh9975y3fyADCa/DdyE5xZFcgAwhH9vpmV/caVODBb3/8uuMHZr5qm26/IgU/uS8kOSYUk5CmojifAk2kQa9EN58mkehGCv5o7zAqloOJIMYSTeClboCVmoHA7eDpdoTVvoq3Dh2D1YUXoQkPrXQQkAYUqS+QBCnhkaR66YLtMoEF+iF3RfobRULbMkJJPYBZcRbC5Sfh27sexIgs43WDx2B3fQKP1rdjoq2hQnkIXojlZROm2YEwDQYIaeLjiQO7sSqK8d5Tl0CIVaeWV1/974KMJp7+p3/JyV23fH1HE8+reeT0LtMUtBA4JWzihsWyY/Ze8j7rmFvu/N1yT77w3du07iN/8cSMhwfCCo814sSHFhuYnXfxlyuS8eFlp3/EWL72h//uuMe+9K403fNP350Mxffmcrg0Z6IR2Pivb3gHbr/vy9gSJOhVgQ0JcJM1g/+yPFiI3YYWp0naSZNYCiWxFcpoUowFqeOhZMskUeJGu3jnktf/3a2vwa2RnSKrwBFdgQwgHNHLm13ca1GB++781NCxhdlryiV1rSI7ZwlBRsRE31cQYeDeSPT8KEn1qpI2Vsng4LsUUT0uThPlvbuWwLIdTPgJxxRvpw1a1xG4XTzViXAWHKxZshplsR96/RkmBKqGBSga4jBeMEYiBQENFwgRcGzxguUyjSCowyCVCKlegV88H8pgP36y6T5YgYXrTv89vDS5Ez+deB5VmcOolJjxIiwra9D0JjTNxEk9qxHHLh7bvxMnRDHec2IfjNyyT0/tmvvSMW/4kE+hR42xp5cKb++P0Nl6+ld31rBB5lDUu5QGAT1U0Zhu41MruuHoktP/KbSP/WRpyTU1Ks30nhcHDH/jXa25J869Y1eIMT0HjQyS0gSG0DE2n+CTg53GyUtHvmQ7S74klt3qcUnTVJl/4W+/3Gxue983xhX8opXDlY6Blm/iY294B75131ewxY/RR5wOCLzfGcfbllLPpdBMUPhhGvrPJGloCIRvVKV7qaIo5Fd9KPxK3xd64t8abvlnK675Qma5/Fp8ObJzHNEVyADCEb282cW9VhUgq+XZ+o6bdDHzRYlqH+UjpOrQRIhTr+g59x3bqLU+8ew9tnBfep+ZbPyzJOkU/2jnEpRyRbixiqKIUE9UDKo6Wm4bzza7WBlqOMPqweT0Qczv2w5TA1TD4PEBqRkMTcVko46QWPmmDkPXUcwV0fa6UFUN+XwOuqnCcPowtGQlEgncv/lJ5AID73vjDXhs20Z8f2obBvvKnLuQ6DksKgF+WocldZxeXoUo6uLxg3twQhji3SssmEZpf6qUv67bgw+ler43TZo3Js09b429aetru9vYqBdQYIAQw0kk9s0DV2AqveWU4WlhLv6u4qy8X1FzNuLaW+L6xpueGzuo3tkoI5cTCJUu4jSFDgUTLR3npvXk1mPzW0y7/CWnZ8m9MAZ0t7Z3Tdjc++nnpqb6vjhVxJ5IxxscHW3fwp++4R1Yd//XsMUN0ScBIjt8ID+J65ZJJMbJ3w3CpR/tO2vNNPBDZfbhDSepSv1OTW2tJhVGqpjNFKW/bXVKXx65/FNVQZgi+8kqkFXgP6xABhCyGySrwKuswMRT3zrTTPeu0+J9pxJAELnVP82d+qm3/e7cfWLrg2eYs9+5C8nc6Hu2juKk4ZU4ZdHJmK6O4fjR1chpFsIkQjdO8cRLT+KlAzvRaNTRaZCzoAriGLTDAFOeC5GkKCUhZvwEKf0tIW6Cgpg7CzE7GpIXg21a0EoFti/WwwjnWkVce8652H5wDA839qFlOwitPIYrFhqyhTgNUE4Fzs8diyhq47GJvTjRD7F2qQ5dyFRRjbbUtBYUqaZJXIyDrkGmSV/f52GjU4attiHTCBaRMUID+5shblCr6eUrBlzHzrWQCiWK/OKm/dP6jzpFxOUKKKkhTALIJIGk0UxiYtoVuFY24quGjHqhUKojiZQkalW2zTaL36nm8RKKqPkRLrA1eKGNP33DO/HVX34NW70A/RLYnAAfyI3j+uN6keauuK5w3Ft++vJSpultyvQj/v9y9KkPkSNDqjibhD7ywfzpn/7Nq1zu7GVZBY76CmQA4ai/BbICvJoKULu99tL3Xqd0X7xdeDtXknmQVjz5IfvUP7/sd4+f2fHARWbtB9+L3Omh92wbRX+uAiELMJIOWqnF7PsojmE4DpToIFpRG2GcghKeFc0CuRBMzM+iU21gOlChajaWiwR5KJxtQPp/+tLS6EFqGlRN59RDRVOhaBK6qqPdTjA7Poc6IlSPWYSB3jKGChpmmwdQTQKoI/0YgsSV5krEQQuPTO2DMdfCBWGdTY6IzEeBy/x/DqQ6IJKkBH4jS+guX4xUaUGLfeSjCFaUoBMY2Ff1sSp28ZZhA6Yi8MsDHWwtjqDUV4QrWmgnLqwohBmQPJLCLyVmYGEylDitUcUpQR2miLEfJjZafSiWChhEhB31EEt0DR3fxCfe+E58hQCCGzAHYUsCvN8ex5pVvYgKV721vPJNd/27tXjk439vqdMfStOY4p43qsaxH7BO/fBjr2a9s9dkFcgqwF5t2U9WgawC/1EF0nSz7h+cWBI0934SrY3vSv0pSQ1qRS/HMEdvjFXzgWL/6YHnTvQlXve2aP6Zm6LINd6zfQCmYWEmABYZEnvCBBWawach9gQRjsvHyNkCEVIEKeBqBmaRYmrPGNTpLtScg3m7ghASMog4QlknLkJMu/hCAJFBPARNRaxLTmckAmVF17DCkhBKAq3kIHZs7PdrmN13gDf87jHDONYu4o36ciRhGy/O78VBny5JQiEeBGUjkDkS/a+pQzoOIlXF3Pwcek0FbTuEnSYo+j4s7ggIhD7Q8iTKusLsyY5R5PHH5NReNDpdiP4icpgh7oUAACAASURBVJqKUhBAjWMEUqKtG2i4MeqBgGLlYEoVxSjEcg2QUQtqqmC8aWBIVRAlOXz4927C//7FP2KL66NPE9iapvhjaxw3rJAQ9hn3CLnkvfaqJXPYVVS64foT486LP0AwuYK5G6rdht73xTQc+kr+7PfXfjeiO7v7swpkFfh/VyADCNmdkVXgFSqw6+m7zu93Jv9SejvPS9wpLYl90FOpIkg+1zObKtbd0rAmkOLM2G9cmIRhLghdvGdXL/K6BQ8mVuRy2B+EmGw1MAoXY4mAKROsKMZIRIpApOhoJiYEsH9yHHYnhmnbkKYN3Y3gRAmMJIWpKDxmUKTKagZIAVWjToNkWR+NKByNIqO7CEUCz7ZQp6AmxGjWqmxDrA0OYbliMEAY0vOY7MwgoY5ESqBgoWugCwkpFCRSItEMNJIQSrMDQzUwqbgwTA1mFCFP6grqMBANMBV8TBBHiDUd9SRGUmtBugo8O4UwVeQ4pyGALxV4FOjkpdBTFZ6pIG9ZsNIYSeixzbOpGOjPLUXidRAJC6sXrcRXf/0NbPECDGoSO9IU/8UYw9uXk5Sx7Kbaop9B6r9WhLSU1L8xcfedlYQuSU7YDRJqfkLolR+0op6fDJ/z0UezGz+rQFaB/7gCGUDI7pCsAq9Qgfvv+OTaFb0H1hmqy+E/C+qCkF0NKbcAiGHoEkEQIYotJEoeY00P/6M5hMW6g0uWnYah8iDmGnOopSme3PY0YsVFLRVYlg+gIUBJhEhUgaaiYqbTge/SJlvilMN+1YCZJOi0G4QHYGpkaCRhOgVohnYoElqFQh4JQiKMAkRxBMOyEROnQZVwdQPNwEM39pHTDM4pOE7rwSKrf0ECCCCMQ1ZSJBFdm4Kc6XBaZaRKtEMffqsNVaqINMGESZnEcIQEDQzYyYmtn+lcKUjn0Yxj5le47Q4DmpxhwqHPSB0TIRCSKXPgQ9c1JLqGnG5AiUP2mGgFbQ6CKtuLkPpd1FIV860ado8/i21ejGFNwdYkxTXRGN5/XABDNyGkCUXLkQO1IL8FkqGyCiQ5ZLFAzERhoNrp+fGK3/vi9dmNn1Ugq0AGELJ7IKvAYVXgjm/+ydpOrrWuaUp4lOboJ3AUyY6H0iD3xAQ9Roh9rQiNUIei6GglGvalJpbbQ7j2+DOwYfwA3O4cLlt9IZ7cvQHPHdyEaiowkvfRLzW8zlBhhePskChzixClKlqiDBcVLF28in0HKAWSsheUJEHcHIdeGITplJiHQHJKAixBFKLTriIIOigWB2DoNmcTQJGIkhhu2EXsNfkJ3TLy0HWbN/UkTeEHXXTbdcRBB7qeR7k8yHJKGoF4SYR2u4kw9JDLlZCzchC8E1NcIgVJtXheaRg5VlgQXugEAVqdFmq1WQYQlWJ5Ib2RQqA0DYrUkMYJNE2D1DXuXFDE9URtHPft/CWEMDAflND7f3MiNnsplDjGMiPANi/BqCbxUpRgOO3iHK0JW6TQFYklJY2vbWzeQ0IfgvwiDnVaUgPQhIDVkne989bb33pYN0V2cFaBo6ACWQfhKFjk7BIPrwJ3/vi2tZvMYN1GCmuqeejrSJxRMKHqAp7tYN5voes30RUSmlBhxzHyigIzSrGs53RcuPxUTDZrcL0GlvcvQ9PvYs/MXrYG3j23AYvyA7j+hCsQtSbhtZoYWXEKdwISqIhTFZad5w03ikIoChkup4j9DvslUAeDNnEyUqIvMykcopiEkaR40Pj19ETPUr80AWUqJDGdR6G+PDs2cgMgJUOmFHEcII5CqFKHSk/l/EfSASR8Fhon0Dmpk0DdBQI0RNiM4oCtGug4Ahz0jziOGJQERFAg8KDp/HsOmSJwRWMM7sAskKFctwvbKeDF8Rdxx6bvIhEatjVVLBUCG70EphA40Uyx3QdGpcB8KjBqh/BCH0JVkRomLJ0UEhHcdoRcFMJKUtRCDdvSBFqPjpJMcKYb3vWZG7+cAYTD+1pkRx8FFcgAwlGwyNklHl4FvnP/59du0ON1z0mgXvUw0lZxei5FaKuYMTS8tHsH1Jku5EgPcn0F9IYBnCiEHanI6cfg5OET0EN+CG4L3QjcfvfaVbTTCFsnnsaSviW4auUl2LnxeaxYvhJ9QyMIQm7cLzzB04ZNGyBvrApv2ERQJE8BGnnQ5i7lAhBI4pSJijQGodcSIBCc4kB/XRgD0HZPnQja4MmumTf/JIGq6ogoWyIFpFwYO9DLeKTCxy2kPC7s6ILHHPReBATo8ywYOS0AAGrtK6pgR0j6TAxiyOBJSL4eAit8PQRw2MiI+A8x2rU5PDO3E/e2NlIwNA7UgCVpgi1uBB0Cq80UB0MVA6qCahRiqdOFr0Zo2BZq1LUYn0EkgPJwP4bSFH1uiFaQw/1BCH3ERq8S47Kud9dn3vg3GUA4vK9FdvRRUIEMIBwFi5xd4uFV4M77P7t2iynXbTNMjk/uaSZYrPvo2Cr2IsL4vj1YEpvwihbUookhms2HIfQgxWTTggMVmrRQVhVMtF3EUoXuN1GHwGgZWNwzisHEwdzYLC477zJopoUdO/dgdq4K0zRRr9XR29sLw9CREvGw60IzDG7Pk3Kh3Wwgn6ORAEVCt9DpBsgVbLTbHRi6Ac/zEYQhGzBFQYhCqcycCakq/DsiKMZhxF0K2sipKWBaBv+u2WzCD0IUiwXOidB0Dc1mm+OmbcuGpqsI/IBtn7vd7qFuBAEClVv9BCCiJEFKXQ1OqYxgmnTuAJpusFSTRgxxGOLU1auANMD3NzyA9XKcuxGtKIclQmCrGwNhiPNyGqYiFSZitOIEi3IdBFqCmmVgOoqhTTTgUUz14goGdB0j3RCdKI8HqKMy7GDg/1pLX9Vo3/W5DCAc3pciO/qoqEAGEI6KZc4u8nAqcOeP/2zt3oq+bi6XR9MLELR9RO0GuiJGB0BtchLwIhg9FeSLeQwiREkkUCPgQNOEkQr0mWWctWQVVKFhtt3AxOw+zFELXGvC0kycVjkG4zsP4qqLroJQdbywaTPma3XepKk7YDs5uJ0uDRcQRzGrFQxdw1y1hjSOUCgW0NNTRqvZga5pLDWsN5r8dF6vt3jjp64AbfYDgwNIogi2Y/Cm3213UZ+vodTXi2ajwceYlgnX9RhwtFsdmLaJnkoRmlQxO19Fp+uiUikjV3B45ECghYiNNHKgBErX9dFbKZBnElqtFgIvgGEZCMMI5XIJ83PzC0TIfJ6vRZMKrrn6CpAh03d+8294cPYlBIqA2zOME4o57PIAJYhwmqNglxtjUFHQSYFj8l2EaoRpqWM8iNGcnGY+hTU0iJJuwgpC+NLGXkeHKGjoT0JcPNO4+3Nv+7trD+eeyI7NKnA0VCADCEfDKmfXeFgV+OHtH1tbHPbWCUfleXcUU4pjyLkC5BoQ+SGCSKCq2tgbSEz7QI+aoqwK7GkZMBIBTZg4ZXAFLjz+TPSXe7Hz4G40Qxf753ai223jkhXnYNPzz+Ci8y5FlAKPPfkUqrWFDZ5AgpGzoakSpk7kPgWdTpef/Ou1JixDg5N3YDv2gtNiFPNmPD9f49HE1MQMP8VrKskhNZiGttDSlwoc20K348L3feiWAcc24bkBg5JOt8tplTRCoHGGY5kwTB2uF6BWrcG2bVR6ynAcC/NzVWi6DrfrodFowXN9jI70Q6oaao0mAupClAoI6X0ME81GHZZl8ZgiCCOYhoE1b3sT0sDDzzY9jO/NPAdpGGghj1W2hbFIRRqGOMNSsKsbYkgqrJJYnfMxT2oJCJTUAIWgBUsR0HNUC53XSBgqFGMhBdNMgJ5p7+533PSNDCAc1rciO/hoqEAGEI6GVc6u8bAqcN+6T7zzpEVz33Jsn/rmC9HLEREBaZ8l70FzLpV2K4YcmA1j5/4a8OB8isVagjHfRF4oKOgFnLXkRPTle9D2XOzc/xK6ioaKBeSEgRP6lmDHSy/hotddgjBK8chjT6DrerwJe66HRADFQuEQuRBoNVrc7p+ZmUXOycGyDN68LdNEq9mGZZmo1RsMLsi50Q8pNjpiwFAs5DA9Ncvji76BXh4zULeAfBV6KiXMTM/Bydmo1xuwTINHAbMzc9yZsB0LYRijw+MLDbkCKSFU/qwEBhq1Bp+LOhajowMI/Ai1RgtBEKBQzDFACMIYvuehWCohJgKjkHBsG9e95Q1QohCP7H0BX9v7EOxCHu3AwnJFYFcsocYJzjQV7HRDjCrAXj9CvxpCR4BrBgOcYfsoKpKsG4QUCblGsSX1AteC/oe4DjpqTfPu5dd8NQMIh/WtyA4+GiqQAYSjYZWzazysCjz0L7eNLi9Xr7Pt5I802TkeZEEUugQOEKf576bQ7oQ029BKp0qZvL8ddY69fb8nHqgDbqrjGFWBkmpYUqpgqtVFNwyheFVUY4E+PcDSwgguO+4cbH9xMy65+Ap+Qn/0ifXsa0Bsf+IQuJ4Pm4yELJM3/EadeAc5NFv0tB7AMDTe+KVKUkxSFCgI/YBoi8wHoA2cOAClcoHlhJOTMyxH7O2rsA9Bt+vCo02bNmXyO9AUNOotDoRSVA2eT5HKKQOHKIzgdjo8WqBNt1wp8iiCxgs04ojCkIFEoZBDp+tz94DNCVhZATSaHTg5Bz09FTRrdURxinKpgLe99RqkXhcvTG7Huk0/g14sYSrQsVwKbE8ktCjBmY6KnV6MRQqwwY9gawKf7J/Feb1KSxHF70eR+A0SmRci+H1d7Z4tRCKZX0nqDVgTQP4ndc++Z/lVn7v/sG6K7OCsAkdBBTKAcBQscnaJh1+BiXu+bovS/Nt1zPy1TGd748CF0Ht3t5XSRYsu+KtJCmxKD/zAmp5qfMTExCf3tjr59+4iIp3EKSJBnQKGTB37Oy4SRUVf5KGeEEDwsbJ3Md59+bvwq3vvwvnnXwQSMDz3wkaEMT2pt5kDQJp+2sjLNNePY7Q7LnL5HG/mrXqLxws9vSXeiAlguF2XAQJ1GWhcQOMGy7Zg0395C7W5OvMEBocGWangEsFQADq5MioKA4G9u/cjjIkzQHkSJPGs86ZPHQdSPZAxFJ27r5+4D22ESYL52XnuTFDngt6rQd0Mx+EneYVcnlj2GKNYKiKfz6NWrXJHolIq4Pq3XYuw1cDO2d24/ZkfQeYK2BcaWKar2JZIKDFwlqNiV5BgVAAbkhSnq0188fgupL7sXz3P/sjg1MoqToCcmtt9isTk9029u4wIkolQmxCVL7qB87WhS06oCXHDgv1j9pNVIKvA/7cCGUDIbo6sAq+yAmNP//OJdrTrH/X4wEVx5EHmT/xa8cw/f9/vHj699enz1favfhj6M8M3bgYmhY7TkaLphljk2NjWqCNRNPTGHqqpgmECCIPL8M6LbsFDP78L551/MVKh4smnnl0wL/Jdnu+TGRI9uQ8M9kGV9HTfRr5cgCoUJvwREKAOA3EJup7P3QUpBOar88yZMCyTJYiB68O2DR4n1KotVHp7WB1B3gfVWp1VCV67g0pPhTsXvh8gl8sxd4EcDj0/ZFBCfgi24zAY6O/vYR4DZULU63XEUYQakR7LJUxNzaFQcNA/NADDMLBvzxgDlVzORuD7CIMAQRCDRJq33LIGahxhz+wefPupH0DN5bDLN7HS0LA5XfB5OJs6CH6KESXFFiFwnTKOPz7BRJo//4rSiWsf+N21GH/4898q6GN/SL4PUJ2nUmP5B0qnf/TZV7nc2cuyChz1FcgAwlF/C2QFeDUVoDTHued/eLqWbP1HuDvPJg6CWjn9Z/no8uvEmWcyIeG2225T/vjWN19rtR7/eqO2p++dOySmYhUniRgDWhFXnnAOvvnULxEkQCHsYB4Cg5qHxZVR3HLhTXj4vrtx4fmXQNFNPPjwYywbpI10amIalf4eJh/qGjk1CjTqTRi2yfLCTrv72yd2AhX5YgGzU7MsP9QtnZ/cddPi46n7QF966jhQ61839AUnxK6HZquDnp4iAhpnODbzHNJUoHegj8cDhkkAoMOggRQRuq4zD4F8Dkjl0Gw0eRRB/APf8+G51JWg15EPA3kipGi12sjlHZiWxaMIUkUQKOm2Ovj9m9dAiX08te05/GLXQ9AdC9XAwqCu4plIYf7EmbbCI4YRKfCSUPDm9CA+dGoOae51VxdXvfOXL69lmv5ATj069i1H3fkuys4QqrNetZe+3znl48+/mvXOXpNVIKtAluaY3QNZBV6xAgQOOrPPDKTVzWuTxpaPJ90DeSLWSXPIS5xj3hXKZY/KwWO6ottcJqOZT6Px/Jse2bZb/3OvH90gwcmIsaq4CJcdfxae37cNYZpCBh3UwgAHZrfCkRZuPv8GbFj/GC6+8HKkQmL908+xGoBsjOI4Qa5UYOUCkfmiKMLczBx3ATi4SZXMByA1gdtxoWkq8xSIF0BP8QQ0qItALf8CjSXabd6sic9AYwoiOE5Pz6FWa2FgsAKvQ4RFBfOzVeZBlCslBhGe7yKFAr/jMkgxDBP5Yg6BH0IzdAYk5LdAUkYCIVIKTE/OwDBNHo+E5A1hGPz5wyiE4zgMWmzbZFXILTetAUIXdz38Y7zQ3g3LsTHm6lhi6thAJEWp4ixbYIefYFgKbISCk5Ma/uaELozC8Xf6Yf8nvnzPxPRf/MWbZGv3zNlpY8Md6O5cQfwDqPastCqfd63i7X3Hf6L1iouevSCrQFaBLO45uweyCrxSBV789bqTl/S7HxDRzJvj9v6BJPbYVZDbb+bohGKP/ErqPVWoxqmxP3vO2MQe+47JBPs0BxOdACNI0a+XccbocTA0i0mDQbeORuThhd2Pw1FM3HTe27D5uWdwwQWX8cfZsGkL6sz+99lYiGb55BdAEkVq53c6tFknMDSS7xFAWDAuIgUBjSDI6KjZbDEgmJuvQ9V19kEkDgHZHy+4MQK6biBOElZKENfBzlnw2l1YTo5HF5ZjccZDo9FkKSVt/uynSLHVhsFkRJIp0mZPGz91F+hc7JRIfIOAwpdiBhxEiiQgQV2MOI2hqxp/XiJI2oaOW//g96HEHu555EfY0B2D6VjY55lYamjYECnQFAVnOBK7AmBYVbAxAWwlxkes/bhoqdPUjP4fS63wnFDzdhp716adfecmfpPaFxBkKa1aWyGLP3LliocHz3jPg6+07tnfswoc7RXIRgxH+x2QXf8rVuChf/3zdx87OPNNTVDIUcymxeRiSDbFip6jBEEINY+2l2B7tY0nuyYmjQL0tIndLQVGnML1EwxpEjWP/AhMGGELTUjkZAOLi4O46phzsXnTSzj/vMuYaEhGSe1OlzsEpEyYGJ/kMYGmKryR00ZNHYBCMc8jBp28DZKUyYjlchGDw/3oeh4iL2RCI/ki2JbJnQZKeiSfAuIekNsidRcC12WL5VJvCd0mGSM5qM7Ns1cCSRJpo+8f7EO74zH/IPQ8NlNiU6WcjULeYftm6loQYKAaNWrkdWCwxTOBGuJROHmbwQR1E0jBQE1MIj2Sl8NNb78eKgI8svkxPDH1PHTLxG7PxApDw6ZwoVtyRk7FzhDcQZgWGvqtBLJdw2VmFef3IukplQMhVZkGbS2N/YWUSUVhVQchIqHowXxn6KfLrvjsja+48NkLsgoc5RXIAMJRfgNkl//KFfjOHX+6tq7Pr2uqgBskEF4KNRWIE3oMV3kEQK330MwhMnNITB1h0kIY+ThARkkx0AwiLDNM7Gq1oCo6ShFFGEsMmR6W9ozipPJyjO+dwKUXXAE/DLFx81be4MmHgNrvtUYDbteHaekIgxCmbTEfgTb+Zr3BagJ6HY0hiqU8SqUSOymS2iBOgFK5yCDAsm1YtonZ2SrzCMgAiToE3XabAcLwyACq8w1opoFWo8k5DKSIoPk/jRqIdEhkR+JgcB5EnKBUKTJAIC4CgRr6HXUSSBlRqhTYSplADG3SuaLDBknk3kheCpTVQORLVQjcfNMa6DLGg1ufwDOzL7C8cnfXwHJdYnO4kB1BMsftETAsgLaQOL7gIyA3y1aAnN/GgBKgYEiAI54XsiEoNVKoFGgZQ0MKs5u77+Zbv/H6V1757BVZBY7uCmQA4ehe/+zqX0UFvnP3Z9e+YHjrdpkmZtsJyq6CYSVEp1WHXi5xy96IIlgk8hcxYkSIFCAOYky2dOhhij6tgCuOPxP//Myv4ccxKrGPKiRGHB9DxX4sRi/cuofLL7iC2/HPPb8BHbInpvwDQ8fu3fthmAZ7EVBLvlAuMEGQgAF5IpCJkuu6aDVbvCH3DfT/VkJIiYnsgNjpIlfIwbYMtkomEyMvDNHb28P8hYP7DnL3IUpSJhv6nsubOXUMCCDQLL/WaHPnYUF9EKDTdjGyaBiVcoFHLkR0bFGHgzkGNlsoE5Ciz+Z7IX/u0cUjDGomDk5wamW+4CDyfFz3ljfDMhV898l7sCs5yNe2t2tgqVSwLSSaJHCmLbEtBIZEio4isSxP/g4EEciRMYGfSMB04KYJmp0mDKkBag47Qw9aWUGviHCei1/edv3fXf0qlj57SVaBo7oCGUA4qpc/u/hXU4Hv3Pf5tRuMcN1BO4+urwCTDaQzu1GfbsA+bgiyv4QKke2iiGfvMSclAmkITDZ17iCcUlqCS449FY/v2ASfzIu6LXRViaq3D/2lPpxgL0VtqoGLznwdP/Vu2PgiJmfm2YI455g4MD7D7H8FCfsIkKUxAQTiKHAqoqby2INSFMnymOSLUxOTvInHUYJipYh6leKhgHKhAM3SOeiJzJAIFIg05bZ/qVSA1HRU52psfET/GbrO3QQaFwRRwl0HUjpQl6A6W8Xo0lH0lgrIFfPcQSCQQl2JVrvNYw/iSNA10ajC9yMcv/p4KCLFwQPj8NmBUcLrdPCud9wMx1LxrfV3YYs2A0u3MdWUWIoUuyMFQRTj7JyKXZGCQZmgBYnFORepDLjelD8ZKhJ1Xcdcs43unmnkiyYq/SvweJhA65UYFCEu7Sb3f/aav369EGIhMjP7ySqQVeD/WYEMIGQ3RlaBV6jAnfd9fu0WW6ybylfQChK4B2cRz+yFkgoEeRNKbxGVOEYhCiEFxSkdikkOgYmGCiMUGDQquPyEc7C4d5Dn7m6niVrQwgPb7oOumji9cCxqU1VcfPbFPJN/9vkNaLRd3tALpRx27xxDnpwSiVhoGMwdUDWVN11yImROgqmzeoFUDJTuODc3x+1+Uhz09FZ+qyjIOdaCvJECjzpd5B2bCYfk1jgyPMgffv/YQdRrDR4BFCsleMSHUCWTCmmgQkCEfRI8n3kQI8MDSGJSOvgMUGgMsnPHLgyNjkLjsCmTQUet1kBPfw8GBiqcEUHSSCIvkkHT29e8FbYpcdfGh/GLqWchNQNtoxfLNQVjEXUigDNMYEeQYlgB2lCwKO8C6iHbawAehUkRQKjV4cyHiGUAq28JNio60K9jCCGubHr3f+71X8gAQvbNzyrwChXIAEJ2i2QVeCWAcPdn1+4sqOtmCyU0o5jb6PPj+9Bp1mHkCigUSrBpHBDFMKWApZPEj4n+GK+rMCKBTphgWNchVVIRKHCSDtoqxTfPYDDfi/Mqx2Ns7wQuPucSJhGSzLFabR5SEShM+DNz1EFYeCIn50LavCkl0co53LKn1j/5FyTxgsMhbdKkdiCOAHUJ5uer0FSDAYOqEVkx5rAkg0yQiDcQhMg5NhsjTUxOcSeAxgM2WTofMkBihYRtMaeAAEq30+UxxOIlI6xeIE8DIm9SzPPWLds58ZHem0iLRHSs1ZpMdsznLIyPT7E0kj4rOS/ectN1sDQFD+94Fv/84i9BtAO3NITj8znsj4jzIXC2kWJnAIxKoBmnWJpzoWgkBQUaIdAVEg1TR7XTRLfRgEodmMGlmDA0KHkVfWmEK+aa9/+PN2UdhOyLn1XglSqQAYRXqlD296O+Aj++/U/XmqPBusSRCIi0F0WcbZBG/BAORagQsYqOD+x3gf0BkDdS2JrEWFNCiwVqUYLFpoWiVcJsq42SCNBUJKTWwHB+AKc5SzFxcBqXnHsJUiHw7AubMDMzx8RB2tCZP1AsMh+A1AIUpER5Bl7XZ4DQqNZZ2kibtue6HP9MRkSkVqDOA8kRSeEwNTWPnp4Syx3JC4G8Coi/QHzLaq3G44R8zsHU5CzLKMmO2SnkMDczw8TC3r6eBRMlAigUWpWCOxY9lTKTAumzETGSnBe3vbQDhVKRAUAu5/CYoVatcweBOA/bNm/nuGjqPNCo4dY/uIkBwjMHX8TX9/4Gia6ik+RxjG5gb0DJmQLnGcAunzoIKWaCGKfkQ7TjBO0EGDFiVGQIRSaIDo1MUk2DYttIVAHVUGEhRd+M/6ubrv/a1dmI4aj/amcFyDoI2T2QVeDwKvDA7Z9cu2p0ep1lhdwWoA2QNm4hKWOAOAA6Uq0HURphLkpx/1yEX80lWG4JjLsqTChQpY1Ljz0DJw4vx5axHfA788j3DODxfY+i3yzgmMRGqyVw4bmXgQbjTz/3AqanZxGFMW/69J5EPiQCIwGBTquLvv4+HNh3EEJT0Wm2mKNAEsJOp80uhwQsaPN2cjnevGdm5jE1PY9FiwZRLpcWeAG+h0Iuz1LEWr3OXIRKpcjvTa3/RrPF44hu+2VppcX+CWEUsbUyGUb5rsvWzqqqsPSSuBA0aqDESJuAAcBmSQQqhEjRN9jL8sP9+w7w5+SOhxD4/VtugCYiPDv2DH7Q3g1fU1DralgKYJ+fIkyBcw8BhFElxQ4/xqCMoCsJ3tzn4YxCigICyDTkLgbVjP0qiDzKXY2F2U+zrv16xZtv/70MIBze9yI7+sivQNZBOPLXOLvCw6zAU/d+49jeeMsfFnPezarmLuJkQN58TMRK/8ZY9t4uzMo84uANajr/pk5Uz395TwcPtVQkqYqVqsASSmw8/mzkVQN+7OPg5G4sXboK92y+DzJ0cSxsuG0dF19wJT8pP/nUM5ifq8EkJYCuoj5fgyIlExLJsCgKIhSLeX5Nq+MiCgLuD0l7bAAAIABJREFUFJDbILXzae4f+B5v7sVKGYHnodP1uKtAqoZKT3nB1MjzoKsqgxAyOmJAIiVzE4hbQF0H+hu9d73W5Gjnl8OaSr09/L6U/UABT/n8Qtok2TPTuScnp5HGxI0w2Veh0+2y+qFYLvB7zlcbC+mUYcCZEmvWXAcEbTy+az0e88cQqgL7uypGCCCEAgEEzjkEEBYjwaZYQFUFPlGewoXD+UCmlWdjrf+FJJWLFe/gxXp6oEAgiUAMAYMk1cNEGVzfwcDtiy94/z8f5m2RHZ5V4IivQAYQjvglzi7wcCtAVsu7fvEPetmZfKOC6v9WRHuE3ACh9s92jePOGD7rj8fxF3+Bg2t+r6T7e//GSLbdvG22qt86ZSMKUpyGBEKYuHDFGbjsuNNQzOUwW69i88FteHT3wygYDk4rLEZ1soFLzr8cUQIGCLMz89yqX3AwDA/FJoM3VdPUeeOtVmtoNNoIXI8ljOSoyJvhocwFMjqi4+mLTumLJBak9Mdib4nHDwQgaBPXNJ07Cs16k/0GyKOAvA1m5+bRNzjA44TxA5Oo9JTYF4E8FMgXgTgLY/sn+P16e0vc4aCRQaFSxO7te1Es5qCkMdrdAB6nPwosGh3inIepmSqDEIqqToIQN1z/FsjUx2O7nsH6xotQdB07OipGhYK9sUSoCJxlCOzwYowiwcZU4AS1i68cNwfFOv4HDXf4jxZHq1oHjVkNmvyg1ln/GUudMolQKaSNWF/6fSW/+r/dv8nbf8MNWZrj4X4vsuOP/ApkAOHIX+PsCl+jChx86LZRW87/tYL6TRQhrOSO+YfiWZ/70O+efnr382/Ta7/4qufN9V23NcFcauAUxJgPYgzr5Pw3gIGeUYyNbUJNkISwgX6nglXaMDqzHVx24RXo+gE2bnqRyZBkcZwv5NFuttE32M/qBcovKJTy/BROygPa6KMoZJ5Bo9aEZprw2wuqAxoDFEv0xC5RqzchD6U/lnvLkFLjsQSBC3ZM9ENEoc8ERNO22XOBwEb3kMFSdb7OIICcHClbgSKbCXDs2j3GQCNnW9zKJ4zi5POYGJ/m5EgVZDAVMgmSOAx0fvq85JdAD/gEeIh8eeOat8LSBH615RG86O/ibsiOro5FCkkbU5Cm4xxTwY4gwYhIsRUCb9Kq+PAJiid7zzs3t/zdG19ei7GxTWXl4PqHCukTp6RJBKH1zsJa8dHiqR/8l9fodshOk1XgiK9ABhCO+CXOLvC1qsDsY7cNq6L2VyKu/T5tOmp+xVdyp3/ug8TLo/egTsPs3ufXGI1ffaXZGO+9cbeOmVjiZCSohhFGNA05NQ/doLyDOczGEfJmBxWzhOPlMPxqF5e+7nL4UYzNW7aypwApD/oHetFtdaGaJo8EaL5eKhcQ+gHzFZCSHTI5GMYLcsecg8j34XU99iYgdQNttu1OB2EQod1soXeglzsBBD60Q/LFkNMiVdTZItligEGbOIEEUj00axQPXUEY+NxtKPWU0JhvYHKKPBps2LaNZoPSGm22Yd635wCcnAmRArppslUycSLIhIkCpKgrQpwJypoQSYrrrr0Glpbgly8+hE3uLuZc7OroWCQldoQAJWCcbSrYGQkMiwSbhYJrkil87GRZLwyedYZY8sd7Xl7rvXv3msbco7/KBY+8jtIcFb1vXDgrPpo76QM/JIuK1+qeyM6TVeBIrkAGEI7k1c2u7TWrQJo+pPovPXVl0B7/69irraYOgjR7dkl1ZI1zVrBJiM8k3YMbR6PuS59B44Wb14/VzE91Kmh6CU4SKcJY4NxFx+H0keNhGSYOTO3DbNDE1pkNKFoFnGwuQXO6gUsuuJxDmp59bgOkobHb4MBgPz91k+qAZgVknkQJiCQrrPT3ojpbg1QV3vZISqhI4gyk3ManMQRJDolUSA0B4iJQV4GOJz4DnZBARaPWWPi9RTwCg2WHZONMvgWeH7LlMogoSaTCQ86I5Ijo+z5HS1PGAm3oZLxECZHUmdi+ZTvKPWWousafjTwbaDRC6Y8eRU3rGuxDIU8U1vSWN70euojx+J5n8WxjM0tEdrQklqkqtkZAl1QMJqU5kswxxQYhsTpu4G+PrcZWof+9+dN6/onWgRZ9ftcT58vOc99D4+lFFBol9aIHY/QfUmPgC8XVa6uv2Y2RnSirwBFcgQwgHMGLm13aa1OBXQ/dubK/Z+464e9/c+LXzk4iX6M5uyL1FGr+UdXseUA4Q20k/umJN3vV+OxM7+0zjhjTiphuuRhRFAyYFVy9+gLsnBpnq+VRS0ffwBB+vuXnUKWGU+xFaEw3cfF5l2Nmdg5PPPUsDMvk8KN83uEWPpkeEZGQRguarqHdaKHSV2GvA+oSUBDT3Mw8pz5Sm582d5IXUpoi/bxsrGTnbOYO0L9JxkiujDFFMBOBUVHR01fmsYNuGjiwf4KNnyjngZIjTdtkq2fqVlCUNJE1yeqZMiPIEpo6CD09ZQYIY3sPcHAT2TzT5yaEYho6gwzPC6AespEmQqOhSVz35jfCVIHfbHsMW/x98JMQO1sqligKtiUKA4QLHA3b3BiLZIoXUgW6SPFf9f24coW+Wdetb0Id2Cat4YE4dG9JO/sui7rTKik0FJXMKfL7pdH7k1hdfE/x5FsfEiSpyH6yCmQV+P9WIAMI2c2RVeAVKvDgtz9x80lLu1/RlFYxiTweKCw8fNOTupIKRe0KvRBGgevsmWlrv3ArmHIGIP06hOjF+UtPRY9ZxKKeAeydmUAigDLp83WJn268m/MCViQFhF2BC86+GNV6E795bD239onUR9JDp7CQ2kit/0MTDeYnELkwn7M5tJAkgzNTc9AtnTf0g/sn0D/Qx0/5iioXFANRyGMFMnEq9xSZs0DuiAQS6DG/VC6zUoFkk6qhYWZ6np/2KbWR+ALUeaDzmabJZEaSSRIvgmSOpLYgnsLw8CCPE2Zn534b9UwkRzJu0jTJLozDi0fYV4FUEHQ+Ajg33vBW7iDc++Q9mHA6aIcudnY0LFEEdqQqvAQ4m7IY/ISNkiahYsBWkLpNXKtOJZct1eqmYVZTaA6SpC8Nu2oSh6xioC4K6xyl2W20rXsXX/l3N2Yyx+yrn1XgP65ABhCyOySrwCtU4I5v/slaX5lZ52spoiiFSCSbI5HagKOfESOBhnqsoZWvwMgX4cc1bqkj7cfK/Chsq4DEbyFKSVJowUx8eArw0vQzKEoDox0JkRRx2cVXMjnxqaefQ9f3USwXeVRAdsqESiqlAncSaLeuVxsL5kiq5DEBKRhoCvGywyGZK5HJEeVDvAwuSFJIT/qGbnJIErslxgmmyRhJAQzDRLHoQEJwl6Jaa6BWq2NgsI9HA2SwNE25EKX8wkgjDLiLQOCEyAbElSiWS8w1mJ6cQZyQ1bPkz0jjD+IbUH7EwFA//M7CuKPFCZcKbrnpesgkwL1P/QxjRgNBGmFHW8UiCmuKBBJFxRkWOSkqHNbUgMCx+RChAsx2YvS6DawUbRREDJEqUNIEQiH/AwGhKpzoSJYIiWs8cuMf3nlZBhCyr35WgQwgZPdAVoHDqsDtP/zU2g12uG6naSP0JMqJiT6ZouE1oJgWXN+FEwNFKWDIBG7iwksiJLHAVFOHGQv4sYJeTUGjG0BRdBRSHw2hoOi4KEkLJ+dGUJvo4upLX49uEOKxx9Zz3DPN8A+MjXO7n0YLvUQSjEiWqGFifIo7A5EXwCmQaVPC4UykTiDY0m520D/cxyTB2nwNeQpTanXZH2FoZBiqpjAwIMtlDpdKKV8hZGmirijMQSA+xPxsDb0DPUiiGL19FQYmlmPyaINzF3yfLZPJHIm6BLl8nk2a6D1JLSGwYO5EoVHdTofHFD19FcyMzzBooPGDKgX+4J03w1Bj3P3Mz7E9HgdUiV0tDYtUiYOhYBCyTE+wIxDoExFaQsFSx4OU5JCgohUKdKFD6DYCKdh3QVUEwkTBQQkYRYkSQpzT8B75/Jq/zwDCYX0rsoOPhgpkHYSjYZWzazysCtxx72fXbrHTdfsNGx1XADMt6NUx1GarMFYMQu3JozeKYYQLqYKporDZURIAk20Degz4IXBiZRAXLT+VN/DZ2iTGGjM42NqOilHACmUQQTPERedcCD9KOIvB9T1UymXs2rGXvQzoqTyXs5krQIZG9Uabr4u+xERSJItlMkEi8MCmR1GMgaEBViBQN4F4A51WhzfOpcsWswUyhS1Vqw1WR9CmXa3WF5QFusqbOkkTZ6arbMpELQOKcCYQQtLJPTv3clwzOSj+lkBpGpAqpUyG7LhIFsqU3UCdA+I50O/ohzojB8cmOBmSflUpF7HmumvZB+EXG36FLf4eJIqC3e0FFcP2WIGpqDjGiLE9VDCkpGgKBUvsLqAsqCrI5jlWJLq6iVoUojM2AVvVURhYjMdiAdmno1+JcWmj++j/vOaLl2QdhMP6WmQHHwUVyADCUbDI2SUeXgW+c99frt1op+smnRKqboz22CT06gEkIRD1GlB7ixiIEuRD2qhAYc5IFYE4TDHZthgg9Kl5XHvKJZzhUG01MWibsIt53Lfl52yUdJw1guZMGxec9TqONX7m2Q3ouAtkQHpip0RFMiOip+iAExM1HkWQ5JG4Aa7r8sZNQUvEF6DNn7gBS1csPmSV3OVuAcU300Y9NDLEfIRmvcVyShpBDC8eRr1ag64bIOY/jSDo/NMzVeYvGIbK1snUmahUSti3ZwxCKMxZoM9DowTqQpCtMn0WioSm4CkyTyL/A+o0EN+BJJdkt7xvz362eCZ+QiFn46brr4OhJvjp+ruxMz4AoUrsOAQQiIMQQcFpZoztkeQ0x3oKLLa73EGg8Qu9TyhV1A0D0502MN6EVARyg6PYoFsQfQb6RYzL51uP/eUbv3BxBhAO73uRHX3kVyADCEf+GmdXeJgVuPOu29ZuLVvrposVTIURz+X96QMIOm0ololioYicH8IOAjgKYJMzkATiVOBA24IRA8ucAbzl1EswVZ1FlMQw0wiLhpdh8+Qm1BvzKAUqki5w3hkXwAsCbNr80oJaIEkwcXAKw6PDbFNMGzBxCCjvgBQOpHQgW2TqKpAMkch+BCIM20BtvoFSpcRyQiI6EuEwiCKUSwX2LKhVa2i22gskRAgUK8WFLoRQGHBQRDQdS4oDeg8iITq2xaZNg8ODzE2gDgF9Rnpf4iKQzwLHQ7suTNNCvVrlmGbybVBS8Ps5ORt9/b0YPzCBdsdl0FTMO3jXLWvgmCp+sv4e7I4PQNFUVjGMkGFSKuELidONGDsYIKRopQqWWC1IGZJXJTqRgpZQ0TZ0zJPhU6O5IN3sGcaEZUItUJpjjCum64//zzf/1UUZQDjML0Z2+BFfgQwgHPFLnF3g4Vbge9/80Fp7BOtCS6KdhHCDiGWAZA9MJkOkNCDHonasYY+rYtYXqJhEzlMw5lrQEgFHOjh/yQkYLAxwO77TmIW0bcy09rF7YX9iImhGuOjcS9kdccOLL3Hbn/rvB8YOYNGiUR4HcESzpiPnWMwBoE4FzfrpSZla7HRuIuVZjoVadSECmp7o6fXNRhOtdgf9/b3cZaDOAQELzlgwDeTzNiR5JoQhKyRIqUCgoN3osNQxl7NYHtmsNXh0QZ+PFAkEmFjCSDnXbIpkMIiwC3lUZ+Z4CEKWyqauYY7GMuS6WHD49wSGKAK6WHBw49uuhW0I3PP8/dge7INQVexuqRgSAjsSiS6AM8kHIZZMUqQOwnFWhwFXNQR6tRiDegxNSRAC8IOAuxCK7SDVJHMubCHQO+09/q63fy0DCIf7xciOP+IrkAGEI36Jsws83Arc//UPrT1xeXudbsScPMgSR3ZOpOfWBbMhCiiKBDAXC/zbtI71DQ0r8hL7fBMaFLixwIihww8lklSgELtoSQnHaKO/0IvlKMGth7jsgqvgRyG2bNvB0kPqGkxPTqO3rw/TU9Mo9VXgd33OOyDSIY0MaExA5kb0eYg0SKZHmmmgXmvwxkycBNqAKU2Rsh10U4PX9lhuSaCj2exwSiV1JvLEP7BMTIxP/haIUMpj4EcYGurjTgABCgqGmpmc4WOIt0DZDOR/QMWRmsZJjlQZio/2PJJFGtzh6LTaGBodRBiFiMMY5N5IRMi+3jLWXPcm6CLCI9sexdbgIBM9d7U1DCsCu2IiICo4ywKPGEaUFLujBKPCRSAE3pSv44JygDwBgmRhjQTJFiiriWMclQX+A3VHWtoTK944fOHLpkqHe39kx2cVOFIrkAGEI3Vls+t6zSrwwL9+bsnKcu1jece/VRGtXMoGxwuywygubApR+owi1Z1K1HyjlPX3d5Nw5C93G2Kzb8OTBhZrGupBiKWmjRplKQgV5w8MYdb30IjGUbIKWC7KiFoCl190NRqtFp57YRNv+N22y2MFMkQi1YKdy4GComg8QGCA/haFEZMXichILopTByeRL+UxNTnDZELaHgv5HHMWLNuEY5totrqIKJbZddHt0LO54Cdu2tCLJYpu1uB2PFYyUE4D2TITUVHXNMzOzPF5SCIJuSBnXLxkBKpUFroexMEg/+kk5c5Go95EPr8QykRjEwII3W4HlmExQJmamYOmqrh5zVtgyhi/eubnOGB30E0C7GlrGITAXqGik6Y4yxLYFgiMqsCGBPBEgo/b07huxE/SZGAsEgOPJYGn6Ur1Uk3r9AuykeDkTQJxRhQm+acCsejro5d85M7X7AbJTpRV4AitQAYQjtCFzS7rta3AxLP32Kq/7YMyHrtNQcNa0A7kG632kjMWv+Hju+ndHnroNvV4GX/EVA5++oUZr/C++WHE0HCakqKo2Lhq1dl4fNMzuPrsK1HRDPjCx72b7kYQxjhWH4JwFVx03mWYq9bw1NPPI0ki3sRJ6tjX14NNL2yGZhiQxNaPIp7Rk1rAcSw2JuLQI6kuOBvaNiYmp9lfQFVV5iyQ9LBQLKBUdDA5NYtWu8sAI3B9NmWqN9sYHeln3gHxCtI45femTZ/+ratERBRoNNusZqjNV2FaFv+bxg9xFKLbWch3IP4FARl6arccG27H5eAmr+vyNRAoGR4ZRqPRgB+GLEe8/tproCHEo1sfxUZvL2IF2NPWMaQo2JtINJIYZ5spdoQKhlVwmuNo3MG3j5uDbi7dlDiX3FQ58fVbaS3GH//HS4xw2x261lrErlCKkaTq6Pdd/dhPDZ5609jL+Rmv7V2SnS2rwJFVgQwgHFnrmV3Nf2IFDq7/p3ONZM/tWnxgFT3dS/u4nxbO/O/X/e5bTm269ySt/rN7XX9u0dvGRjAHE6emMRY7fbj0mDNYsaBrOp7b8BssW3kintj1ILf9R5My0FVw4fmXotleMEpiX4Ew4lyExcsXY2pimgmI1J4nb4MYKXTDhGVomJ+ZZ3tjRVV58/W9AK1Wm6WK1OpXFQkn5/ATPbX7SU0wO1vlDZ86EFGUIE4TDAz0IQp8NmIicEGmRxTYRG6HxF0gIiLJIgmUxCFFOIcIwxjtdpuJjhTwVKoUWXlR7ilhfrbKnASSXJIdM/Ek6HrbjSYrLggc0GehjIY1b70GppLiFy8+iBfiMb6WsZaGEaTYm2hoRRHOtYCdgcCABLYoAleKWfzZ8R6EddoHi6d+4ssvrwUFZ40//KW/zatb/oRyJBSjMidzyz6WW/0n3/5PvEWyU2cVOKIqkAGEI2o5s4v5z6oAbTgTG35yvhltXSe9nato11VLp/7aOelPrhZCLIQdUEjQxrvPVboP/KjbHh+5cWwUkwwQIgSJxOriIJb1LcF0fR5O1IFZ7sPWA4/DMR2MJD0QnoZLLryCmf5PPPk0s/tpQ6ZRRqFYBGUWaIb2WzXDgn1xjFIpj0atzooG2ojJA4Ekf/S0TvJC4hBwRHSxwGmNbJOMFM1DLor0eu7Cc16DxjwLznMQ5HuwwF0gwiXlOlB8Qbfrw6Zo5zTBfLXKaZL1RpPjpqOQ7JQ1JlNSyNTYnjFOoaQOB9k025bJvRcCMTknhyCJOa6aPtdbr7kaIvbxo+fuw9NyEqphYM41MJokGAsVdKIYF1gC2wNgUKac5ngVpvDnqwGRO/Pt+RM//IPfXf/xR//xEznl2S+Q3bLUK1NqbsVHrRM/9L2se/Cf9S3JznukVSADCEfaimbX859Sgfmd6wu6MvOxuP7sx9L2XofJePllTVk49532yjfcK4SIWlMb+9P5Zz+Rtp5+76YDs86HW8uhSx0r4wDjbohjNA1T7ZiNkgZlhLaqIyfnUTTyWCwHkXYVXHrRlZidq+LRx56EkP+HvTePsuMs74R/b+1Vd196u90tqbXYlpEXYXnD2LGIAdvgABNiEiYk5KCBfCEw7ElIiDAMmZPJhElgkgxRYOA4JHwOBEJwAh8Jq228G8uSF+1q9X73rfaq95vnrdvCOWeCfZD4p119jt3Lvbdu1VO39P7qeX6LLO72KbWRMhfoTpgUCQQaaNEmxQIhk4ylC8kjmQVRh4HAAHEHyNWwVCqIxZpkirqmijEEjRUUWRadBSLz0eJOHQciPOp6YmikUcCSH4g0SOpiECmR/BdoXDHoDwRgIf8D4h8QUTGKI/EYdQ6oiyC8DQo50UEg+2faZrlSQrGYF8dBhk40KvGCUHQ6aGTx2ltfAR7YuPOer+CewUlwTYVjVrBZVrAcyfBDjisNjqd9jpoU4yCTsDPs4s93DWEWdnxqrbHlXXN7f41IEOCnv1bqNA7dyeynXkWeDpKa9SSz9hfc2v6x/IVvJGlF+pVWIK3Ac1QgBQjpRyStwHNUYOGZb11WVprvj4fHbgr7JybigFj/xNa3wMzpYzBmvqea5WXuN14UDY+/tNVerPzpKYM9xEvYospoDRyMZfK4sjqLATNhahos7mPAYxyvPw5T0rBdn0bUi3HtnuvQ7vRwz30PiJhkCmdaW62jUCiIoCNahIn532510Gl1kCsVhMySFnjiI8xt2SQWctt1xN/Ir4DcEAPPh2Go8BwPkqZirFoW7or05foelpfWoGq6uJOnL+pW0EJPkkTiL5CLI4EVAhGUDUGZDaSiIImlsGGOIti2i/pqQ8Q0E4goV0vodbrQDEs8vi51pBaCaZnCupm6JCSr1FUV/+E1t4oOwme/9SV8t38MnCKsc1OY0TQsxjLcMMLVWgIQpqUYj8cMsgp8SD2Dl19YXFO0iU9LUvmfoedUhL1fDAanfjH0WjlGSVYUNqXlViRj9h+ZdfldmQte+a9pmmN66acV+PEVSAFC+glJK/AcFXjkS/vfvHWy+5eM91QeuiLngEiKkkwJgTKx9gNIUgiEWr3dl7+4nMH34jFs01Wc7vSgZ7K4MFPGbXtuQZ2yEKIhAttDtVrCV5/8OkxFxU61Aqfu4yVXvhT9oS2yGAa2IzgDdDcuM1nM9MnZkNwJyQOBFviYcbFY9zs9QSQcq1YEyZAzjma9icnalJBVktsikQhp3k/dh01zs7AFRyFZ6OdPLghiIWUiSHJCRLRMS4wN6B+JbqcjVAzUSeh0eqILQd0FAhbkiUDdBKpHt9MXfAXiNRgZHc21FqxMRngziO5EEIgOCAEP2hcahZDKgH5//WtfBSn28ZXHv4MvDZ8SJkdhmMU0B1aZBjeMca3K8ZATYacaYxkSjsoKLpI9vEM6w6/fUXAkSekLcwgeFqLQ15PZSfLPHCU6Mkn3+sHE96dv/Ogt1PVJP/xpBdIK/PsVSAFC+ulIK/AcFbjzU+/cZ5mNA7FEAUwReAjhNshI7si5WCxjJmHeU/BgnEdXy+PqjI7HlptQsznkNQk+cnjLda/GI6efwJnV05CRx5XTc/j/nvgGioUcdmUn4Xdi3HDtDej2h0LmOLBtsaB6ji9a9KQoKBTy4BIXrXy6eydbZ1rEKUWR3A9pwafxwWRtXHQQaFGmzoLwHQgDcEgi7Ik4BCRZJDDR7dKi7iMIYxSKObFoO7YtEh2trCUW7+WFJeTzOTEKIFWDcHC0bSHDrI1sm4n/QN0FzTTEyMMhS2hZFvtDzyc7AjKYInvl9bEFdRzIWZEcGl932y2wVIZ/fOSb+IHWRJ97aPQkTEURVqGhFcbYq0Z4MGCA7+MaS8aTMXBMpkjoGNf1lnFlMUTVonioUSi2UKMm6Zfk1UBSzG4HD1pb3nrd3r17U4CQXv1pBX5MBVKAkH480go8RwU+86UP7XvCDA6cMAx0XMB0gJpKM3EfPjh820XPDdAMGSqQsEeVcKLVxRnFxMUFA8dtB2O6gasm5rBz0y7kswV4oYe7H/w6nlp8CrViFT87uxutxSau2/MSuEGAo8dOCDWD8BoYGTOVq2WhXmAyGykVPEQRuSYaQkZoO47IX6Csg6mpcZTKReGe6HiByHQAj9Dv2+IO3zJMaKYuAAeNK4a2K4KTJHAR7ZyEO5HEsiBinu2BLYAIkQ3JE0HTNQRRhNDzMbtlRnARKP+BdpVyGQicLC+toFgsCDIjSR0FZyIIxD4SSNANHcPBUAAWymJ40xtfD12K8fVH/hWPxovw5BjzQwW6H4j9PRoCW0MXZV3F4wFDNgywx5TweMRwhkmYkGXMqGTNwBDKEoaUjUHHJOlosQhaQUJRjnBZ33vwZ8dfnwKE9MpPK5ByENLPQFqBc6vAZ776kX2Hcjgwb2WxNoyhNYeo9pfQbzRh1MrQVBMdRwaPNVyICCfbXRyMFdRME1u0GCf7fVT6HWgqx8Cs4fLLr8JT7gIOrxwDHw5wY2EOv7LrFjz6gx9g70t+Bo4f4InDTwlTIZI60tewNxQGQ9S6JxIijR3IZIikgERipDt+mv1TbgJ1DXJZC9lcFoNeDyHFQHsBdEOD4/qCK8ApETKORWgTGRi12j1heZzPZVCpFkXGAikZypWi6FQQkbBaqUBRFaGYIH4CAQp6HpEUXccXcdQkm5zZNIUz84uwHQ+Tk+NCFUEmTYkfQyQACiU+VqoVdDpdse0krOk1UFiApxaP4WvHvg1Pi9EAOxOuAAAgAElEQVSDhZM2x1ZVgqeoWPA55niIrCLhcAiofoBrsgpOcBldBuywIshZBS0ewV5qwJAYCmObcX8Qg1dVjMshbui7D70yf9tL0g7CuV0X6as3fgXSDsLGP8fpEZ5jBSju+YmsfGA5W8ayG6B/chH5tZOQhiGiiQxsqwolNrAVMRo9G4f8GL4kY1pVcIHC0XVi7MoVkTFVPNLvQZ+toK1whK6HpbUFXKVV8drJPVg8cQI33XgTur0+njj8tCAXtpqtxMzIDTC9qSYSEn0KZgLgB0mHnFIUiQxIxkkkWSSHRZIOkGKBEhtpfEB2w5SrQM5FdNGTyyFZMZOhEnkTQGbotHriTp9IjwRCyN2QVBAiwprHYrxCXQV36IiuBXULyPI5k8uKDgKpJoiLMLdts3BxJNBBqgVSK4ixRjYxTCL3RuogTNYm0Gy0xbihnM/i9f/hNrDQwdGVefzDU/+MoRIChoGWlMGKyzDFI9EdWXEj7GQhWrIiiIoVxNipAquSjL4MlAoSBmEf0lIHCkVUT27Ck3oG0ZiGMRbips7g4VusW69NAcI5Xhjpyzd8BVKAsOFPcXqA51qBO+/+yL7DeePAYq6IxThCY60B/8TTkDwffqEAJTuGC5kMpz/EEY/DJl5czDGrabghl8PFk7tQzGURxuR+qKMe9dEb9vHU0Sfx+IkncenkJty69So0Fpdx095XCIBAcc8U+0xEw9JYCYFLjonWKNY5EHfjRPYj3oGm66LtT/4D1PY3LFPc2RO/gNr59DySGIZ+CMMyxL7R6II6CUQ6JABSKOUFedHzQ0QRBT5BqAxMXRe8BjIyGg4GYhRB4wcaQ2RzlvBdyOXzOHN6Xiz0ZNVMfIMW8SMEgogFB4LGCQRYqOvhBT5RPDG7eQa2bcN3fZQKWfzcq28GPBvH6mfwpYNfhW1RMqOMSNPhRybqQ45NRACRFGiBDy7LeCgGAklChcWY0xjauoauJiGOBvCbdcGByFSnsJbLg5d0FGIftzQ6j7zKvPWaFCCc65WRvn6jVyAFCBv9DKfHd84V+MLn3r8PE+EB12RwaFEOAtidNuIgAFNUmJqKqiTj6SHDPUEGpwIVQcAxrah4w9RmXDp7Ke5pHsay08abL3gF/vmZ7+Lp9jxWT5yA1HOwqVjDjduuht3u4GV7X4nBwMbDj/5QjBFarba4QyeiH/EASEFBd+0076fFnwyMSA456PaFzTI9ni/m0Gl2xKJMd/y0+BN4oNeTEsK1XTE2IFMkGkN4risAB5EVhX2zMGTSBN+BpI25XAaRH4guA0U8EzEzm8kgkzHg+5EIY+oPBkIKSZbQ5MpInQ8CCqRQID8F+iIOAv2NZJpEFqQoalJSEFihrIjXv+42ILBxvLGALzz6ZfRzJtZ0Bm9oQ2oMUKxtgs91TMkSAtdDpMh4hEiXigJLBfZgiMs0G4EM9CIuQq9oTCLrGmAqkFQJBgdqdfeRi8d/KQUI53xlpBvY6BVIAcJGP8Pp8Z1zBb79mXfu27nFOaCoAUjCkAQRJQoGkRDIQ/E9iIHTNsenmmX8i5fHuKTgl2pzuGnnDVh0G+j5Ni6pbseTy09hZdDCqRPH8MAjj2Bl6GMiNvD6K6/Fy192s4hkvv/BR8BGIUkUlkSLa7fVGeUa2BgnIqHtiKwGSZHQbXbFc8jgiMiJ9ZUGJFVGu9lBbbYmakB+BuWxkiDuDXpDwSEgsEEdBspSoCjmXLmAtWVKYpSE6yExJAuFjIh5pg4DRVET0ZDyFgg8EPmR5Ijz80vCKVFXtaQWYSQsln0ncXPsdYdwXBcGAQ9JFqMPcnSk76RkmK6N4+dfe5swSjqyfAJ3PvJltLIaGqaKwHGRHXhQ9QxiaxwzMhOjlkhR8EPqJugSflGp441jfVSVSEhBaYQhApqojcFI3ignqY4MsAfyY4P+Ldfsuv12/5w/HOkG0gps4AqkAGEDn9z00M5PBe758v+4ZVo98/F8tr9Vkjwa8IvEQsQRuFSoh6h+K+Lqgsz6e+R4dU/dGWb2r1TwTJjH1WYGpdwMgrALe9iBrMmwmIZBP0bgy1hePYFw2IHi+PjZi6/BTS+7GZ1+Dw888Ch63QGsjCE4BbQgUtqi43jIFwvIZTOCd+B6vpAm1lebgkBIoGVqekJEQwvFguNjetO0mPtTFoJlWQJULC4uIUdjD1rINTUxNWr3kR2lQBIYICkkAYBKpYDA90RngMYFRESk0QN1JmgfyeOg0WgJ4mIhnxUkSVI7tJod4ZkwVZsQjo00+qBxBcVR03YoJ4IUFDSymJubxet+7lVgoYu77/k6vrP2KIYFE8NiDquxDzUOMBEX4YY6tshA4PoIFAlPMYZfNVr49S1uyGLrZBgWH4mZoiloXa1rwVQcBRITXhXEu5C8kGefdvn43x9j1/9BOmI4P9dHupWNW4EUIGzcc5se2XmqAOdcOnbf5+ayrLFfj069gcVdTZIUxHJuGKiXv3meXfoPe/bsCebv+XRNi058VGWn3/hAIzT+oFnDGANOUZKhUwfv9GGUTYRyAW1bwVYiEroe7KEH5nq4/kVX4eZXvBrtbh/33PegGCFQXLNuavBIhhjFYhxAHAEKZqLFl4iDBAh6nYEYSRCQmJgaEyZEdPfv2C4KxaJY6O3hUDgzEqhoNNvI57MiB4EW9sSCOU6yG1pd4XFAd9/klUAWzVyKsbJUF5yFUrkg+Axk60wkQxplkF2ziKUuFcT9O5kmUZeFDJ1IrSD2h0EEVRE1gWSSlNtAyZPUwRirlHHbLa+Awn185Z/+N+731+DmNHg5E56pw1AYdDeLlb6HOYkJQmQgMTgswIFtdZQz1Yf8ePqtYy/54MHvfOfD0pbIuCmrNP5cZfW5pM2jhFBKf29jcv+nvtE/cscdd4zSJ87ThyTdTFqBDViBFCBswJOaHtL5rwCFNa384MANKjv9l0q4dIGw4snu+m7u8nftfbZl7+KjX7zJHP7LnUNnbfI3Tk2D7l5POA6KcQ966CD0Y8z7RbzIssC6fXBZx0XlIq6uzaBRD3DjTTej2e3igQcfExJHau2TFTEt3nTXTYvrsD8UizKNFMhpsTJWEbwFWqDt/lAs8p12G8VKGYM+eQ5wwSug14vAJUkSCY00iuh3e2IRzxWygrxIXgfNRgeymtgsEw+B3sv3PaytNYVZUrGUF4CDeAT93hC6ZY7GEkClXBD7lyXwYbuCI2FmTAFUCAgQF4IcHyk3Qlg1t9qJkZKm4fWvuRWaFOGr37gT9wZr8C0ZzNSg6Ap0CXDdHBaGPuYUCQ6RKSWGrayDj72Yg+kXvD132e/9+fqZ379/v/S2V85+3Iru+89iBCRnlyRj8t25K37/3wQ6nf9PSrrFtAIbpwIpQNg45zI9kp9yBdYe+9+Xa8H8p5h3+ioRoVzcfXf2kne8+tlvu3roW9cZ9t132f2TtbcfqyGioCEmI2sECL023A5gR3lcJEXoDH1syqmoFSrYe8F1OHH4Kdzwsleg2enioUcPCvKfoSnotHvQTA320BXzdeIk0B04qQwURRKLObXwibE/6NvI5nOCJ0B3ztTWJ1lkfa0pFuhCPieARBDFMDRNWDJ32z0xJqAuArkNdtt9FCoF0UEggiF1Kyh0iZ5DAINeL/aNOhukrshlsLK0lrgj5iyRBUFjkNZaQwAFwzAFyKGOhmHR44FwYyyUCqjTczKW2O5tr/xZyDzANx/9Nr7ReRKewcR7WAqDGUcY+nmcGYbYIjMMR8d3kdLF7+1WIGcvfr21871feva5WHno8x+0gns+FgUDyFr+GDdq7yrs/t27f8ofk3TzaQU2TAVSgLBhTmV6ID/NCvBvf1sZVI/9HLxT/zOyF6ZGaY515K7dm9tx82Ex4z75baPXP/oB5j3+/qfmV7L7G7PIyAzzsoJCQQKLbbTaEjKRCq3TEqqFQjDE1u0X4fLqdtiNPl524yvE3f3C8qqQBCaZBaReYEmAEqNMA02098kHgUYMNCIg90JFkgSngNr7ZM0c+D4kVRWggroRZLJEAIB8DihRMopC8VwyVyLAI0YJcSyMjEg6SUCAQAKBkMHAEe9L3giUxkh8CAIg9Dh5IhB/gUiPtKAHXgAjYwllBQEZQ9cFP4L2SYCTIBT7UqyUhBmUosiQmISrr7gcMg/xzYP34u7lR9CSIxiTJRQ0GYUwBII8Tnd9bJUZBq4njJ7y8QB/clUAo3jB/3pw7Wfesc4raB1/uCD1H7yLDR57RRy5kJRMnxlTH82Vb/gkm9srEh/Tr7QCaQV+fAVSgJB+QtIKPEcFKOrZlE/czAenfzcczO+KwyElDEGSVS5ndhzk1rYDZmbsVOit3RR2n3jDsHdy8k+flti3wgqmVeBoGKDMhjC4h2VUMW5k0V5ZBut2MFtQMDk2ixs27caTTzyJy3Zchk2zs4JvQG14+o/cBxPlBBfcSDI2InMkilimv1FHgVZ4wd6n3IF1lcXoOy3KIlhqZJAk4o9Hv9O4gUAG8RfoeTQCILMl+qLxAEknCQzR/lCeAf2DIYKfyLqZ3pQAhKaK8QVtS9gti30hEQGHQlyN0R/IfIn2nUYetP9EdiQVRRI7TR0NFSvLi3hs7Tj+dflxrEoc4Y4aLF3BpO+hHBRwqjnEVrJRdhyx3UWJ47esBdx0yXhT0qYPMG3z36n5SS2wV98Wdx6/PXSaFm1bYhJnWum0bG3+M6W088v67C0nGWMpDyG9+tMK/JgKpAAh/XikFXiOChy8+7+9eba48GmJDyVOMseYFkex3EJSdDBJA5PpjtuD6/Tw5WMcB7wqOGRsUWKcbDdhNhrImMCSWUW5OoVWr4tsFEC3QkzkJvDeq9+Ax7//PTx18jhm5jYnC/0ohRAkc+Sx4AMIcEBQgFFqAmEBAgVJviQt6LQI0y90V06LuPBMECmGTPxOHQLyP0jkmeRNQIACkCGJu3gKQowRJ0BAvBNGqZUECmjlTwAJvY7ACb0/dQlIQpmgCtofseKLQCvat7PvTTkNZLccc9HxiKmjIN6LIQoihL6PybFxBOM5fPD+O+GViogKORj1DiYjHzOVLVjq+JiTIDgNtN2nAMwxH+8tr2L31jxnzAqYpLPI66s8GILJquh4CPhEAVuyjn40+/DMDfuvY4ylMsf06k8rkAKE9DOQVuAnr8AXPvX2fZVi+wBX6W6eA+Q9kBgWQ1Hojpta9BydSMEhO4dWbgyx7+DhfoQZNcaJZgszlBEgBTjSMzAzuxkrgy4sHoFFQ0wXxvHuK34eY5kCTpw6goXFBTESoPwFykagL+oWaLohDIsGa4vQECA7PYex2qxwT+wOemJsYKgyFk89g06rjlJlAhPTm0XiMbX/qc2vUKKi56M36KHXbYuFfWx8CpaZgWVlEPFYSCI7nRbqq4tQNR21mS3ULUHf7gsuASkb7EEXvVYDpqqgtnUnPAFGEodERU4ASK/dgq4lskZZ0xHzSEhDSZlBa/bK6aPQnTVolSlYE5uxbcsFuGb3S3GkcQq/+djfYsGQIdsDlFa6yPMQE+ObsTaIsE2WRBgULfqebqJouBjaDq5CBy8qcOQUAjfUnYjAFFm4ORLwoVEMnTWnrx3aet2br5xLRw0/+UWRvvIFUYG0g/CCOM3pQZ5LBT73hQ/ue1x1D8xrGvrDEIYNjGkUVhQglpVk8VZ1KKYOGRHUaIjM/4km/m6TYVzlWPADlLMckeRhdWhhIlvESrsBvraGPAJsmt6MV+26EVU9B6fVRrvThhP44u6/nCsk8kUWixZ+bLvorC2BRx6yE9OYmpgW9+BOHAo3RDkIsHrmCLq9FgqVSVQrNbFIxwrdPUuQ4hiB7aJvD2DbfcSBj4nJWfEcrsrivVgYottpYmXlDHTTwtTUZmE25MXUPYmhMYZep4lmcw0a49i288WIJRl+FICa9rQMxwzotJoAeScEEcq1KUSBDymKYWazYLKCZx77AazhPLRSDYUtl6A2OStkkEeaZ/Cp1g+xSI4ToQvFHmIzA6bVSZxpOtgmA15A5lQy1IyFam6I1RhoUgx0xGFQ14R6E54LVYxJNLQ4h5aTkZU5dg6jQ3tnf+HKvXtTLsK5XBfpazd+BVKAsPHPcXqE51gBymJ4VI8OHDMM1HshSr0IM0ELg3YbmMgjLOWgaAaCbgfOUh2aqWAyX8bBloKqBixFEYrMBY8dLKOIqpnDSqsB3R4gmwdYoYR8rgjMLyI81UBMcclE9iOfg9U+rKyBaLwAz7XB17qiU4DaGGJyTexTlkEEZzwriIv6Shvcd4HJCvXzIdV70AKGqGwC+Qxk2wGv9wXgkMoFck+GNvSF6iGo5AQIUepdBDxCULDEiMDouKJDElRzUInz0Bog1lWExQxYqwPJ5uAlE2HOhNp1gK6DqJwBlxmUxhB9HsHJGzDJO6HrIcwo8Et5SLaDkheC6yrkSh7ZkCH0QrCZMk70GmhIHPHmceRVGTscB3k3i+P1AbarEmwapRAgymSgF2w0mh04UYiwVoWUyULu98FOr8JSZOQr03iQOJVlBVU1wvXD6PDN+Vv3pADhHC+M9OUbvgIpQNjwpzg9wHOtwOe+vn/foYxxYN7KYW0YQl5qIlc/gbDnAZuLaEyPwVUVyIvLqCx3YZgKCuVxHLEtVKQQ850Wqr0uLDnAUaWAyenNWBn2oTgDZFUffjEPZuiQjhyBttwHt3R4NFro9REttWHkLcgT4+JuP1ipIw5jBLUqIrI2XqkjckNEU2VBFlQWGpBp/j87Qa5EiM8sAYMQbLwgAAEf9MAXW4CpCRAh7vaXG6INH06URUteXlhDTMTHqTHwMIC01BKEwrBWgUJBTvWWACcYq0BqtxGu9YGJHKJiAXK7C9ZxEJZzYLqCcL4Obmpwy1moQwdstQ+ULcjTNai+B2W1IRwRlckK1IEH1/YRzI1jGIZwGRBvmcK0oeKioQ3FyeJ4y8FWTUKfaqAogGVAzQ7QXWnAYQxrm8YgTYyDLy2ieqoBkwHZ8Rkcki2EVRUVJcbLeu6TrzIvumLv3l9L1QznenGkr9/QFUgBwoY+venBnY8KfObu/fuezmcOLOUKWPMj9Nea8I4dAu8NwatFsM3TiHQZ3vwijJUmTN1AcXIWZ7iJWYSYX13FJB/CUEMcdTOobd6OxfYa1GYTkwqHkzNgV8cwbJLbYgdqMQ+1UIA/HMDvtKGaGWTyRSHrs1sNcM+HVhkD03TYq8sARTOXymK+Hq6uiS5AZrIm1AzD1RUwL4ReLEDJZBB4DtzFFcgZA+bEJHgYwllbE50Cc2JCqCW85RWoZMtcriCOQtiNpng8NzUFRu6InTYUki7mcnCHA4TdDrRyGWo2B98ZIPQ9SHlqjXC49RUohgWpWELY6yESx1eAVZkAQh9ufVW8p1Yowe32EZLj4vg4Ih2IcxlIxTxm4gjb+wNYXh7HW0Ns0WR0wxieIqOuSKiaPpZXl+HLMoJN09CKBXjNBvjSCixZRa5aw7xuIq7oyMscNzf7T/6clQKE83FtpNvY2BVIAcLGPr/p0Z2HCtx553v3DcfVA0NLE7P+vu+h327C7/UgaRZyhoYxOcRaz4Pj+GC6iWf0ChbkHLYwjlU/QFGnNMQQq7aJqpnF0uoysvYAlaIEWBmcyZXQi21wFgl2PskZieHP4xCMkzmSDEPWMfRssaiT1TOpBXgQggekcKDbbS4eo++UMglSCRBDcfRFxMEkxIhYjxGYqokfeRQKJQMT0kdJdA2oo0DbEFRM8T8heRChR0QAJIMlUlYINiLtryyBURaEQg5SUnIMCqlBR8dDckmSZYbk26CB8qSFwJH2l8QRTAEPYyBkkNwIpU4XnqHC2TwBSwJ2DGzM8AqOLnewWZcxCGL4uoJjkoQLVRt6YCOIfIzndGQVGcuxApe6H8S7MHXBr1A0Bh3AhWvOk9dMXJV2EM7DtZFuYmNXIAUIG/v8pkd3Hirw3c/+5lsu2tw/oCshE4JCoeNL0hwhieVSGBJwxokbxzhnODOM8ZuNOagKwxqRFP0+EA6xaI5hKj+GVbuHDA+R0zxkTQsnNA0d4inInFh+YBIHp/BBIRVMpIB0sQpZogAGkVBTgNZX+tmPE4BAu0YeBVEifRRyxpGXQoIoEiCQyCgJFyQJh2efTCBCeBwkj4rnk3RxdNwCRFAV6PXi+Bkkki4SKCDFgAIw8kUWgEEmjaTYOHU11reZeDuQxJFADYEbCr6SAHrbgMHo+piaX4WnqWhtqUBvdVFZamHrtm1Y7QE1Mm7yQ/iqjAIb4g93NKHFZEdN0krE9F5CaCKARwJ6qAZJLWQ+GMpPPnFmx1W3ve3D9nn4eKSbSCuwYSuQAoQNe2rTAztfFbjvrv03by4ufzhjBjskFpaSlTPxKeBcX4pZ5qEoUrqMuTskDC6V4GWCOMS+Y1PoahqW2i1U+30YaoQjioWZzRdgpd+GurqKmhwhO1nBM9UceloMKOSZnPgN0LpGACRZ3MgoKfE4EIs/kfRCLroH3A3AffqdHk86CWTkRJLM9YWZFs+RQYG4e09+Xt9u4oWQOBatV00gA7Ed2sYIbvzoSbTajlyTLE2Hw0NAlyHpMqApYNqoo0CdBLEwS+IYxP7RNwEMIFQPAmtQEyOSBEAoeDLy7TYaugRHl1Fq91DquShnSuh4BuaIpOgH8CWOS/UePnChA8Qsirh6mnPtKOfkFhFcpEjRDCOHpJHXA7gcRLF2wvWNb7RqP/P+XbvSuOfzdY2k29mYFUgBwsY8r+lRnccK8EN3afPLj85k9eGvKmzw64yF4wQQOLN6QVh+R1u/5Ctd5SJnxrv3QhVrv6/w+deEsaPte2oMPSuDpcEQFT1ApIZY6muYmprBytoSrHYbkyUN+VIRT5ezaMsBoMSANgIHdBc+WpxFJ4EWOvEfAQQyN4gFMOBOIOSEAjTQWi9AQiwMghJ3xaRzkMwTkjGBcGUcgYSz1ofCqXF0py8eEy9IgMKoE5H8bTRaoLVeSVIbmcJGAEEFDAIIsiAproMQsf/C5CkZcwhzJ0IGwleCQA8AogzGCrRhhGK9hbalIyxnAXeISdfHlrCAxbaPCzQJLh0v49ildfG+i31wVjzsBxO/48rFe9GjRsHqTZba/ZgiD7YTuGFM5lwq3x+pkx91Wem7tT1vS7sH5/EaSTe1MSuQAoSNeV7To/opVKDz3ffNQer+sSR5rxPrprblG9lTu17Fbr9d9OQp8bF56MuvU3pf/19x3Bl7y6Ey+rkcFgFkrAiB7KPr5TFuZNDotqA7A+QyASYLZRwxVbRlP+keaAyM9IfkarTOGVi/vad1XYwQCBDEQBAjdnwBEBBEwvhILMMjgLA+Vjj7ncYSTP5RR2K9TuLufh0MJADj7FuvdzHWGwziX40EQDDaR/qdJg+GmoACXQajLoJK70Odg8RWWfgZCuAx6kgQQBAuTjQm4YDHIDETuXofYycX0VAk9OcmkCnksWNoI99RcbrlYJvGYEdcbGWX2sF7Lo3B1Qt/P7/79//LerImv+suuT7x1B2GfPJ3eRxAUgsON6fvWM3s/pMdO271fgofj3STaQU2XAVSgLDhTml6QD+tCnTve3cZzP4oi73foDtzOX/ZX1uXvOtNz36/+qkf7tVWP/P50FuZessTRfQtC6cdBzmnA1UKsZoZQ2lsCt1+B0p9DVXuoTRZwdHpMnpyKLoHTFsn/o3a82f7/wlZUAAEcgcccQ+4FwhyIvfC5I58/d6fnrc+NhAdg2dxDeg5wh559EfRJaD3E62CpO+fEBMEn+BsB+JsJyHpQAjeAY35FZaAAp3+kylaMiEtUteAeACig5Ds/zqvQrwH7ZcACDHgSVAkCzMDhszqEk4iQDhRxbim4uLuABjoON0LsUUF+kEs8NPFUhvv2w3AuuyXcrve/4Vnn4vl+z79K1n2g8/FgQvJqPYka+v7MrveeeCn9flIt5tWYKNVIAUIG+2MpsfzU6uA+8M/uCD0lj4RB71X0ptI2W1nYv323fmdO5vinvrhh9VBufkB3vzab/vD5ey+w2V0ZRkL3S6mmIucLuNwaCE3u0moIJS1FWwtaLCqRRyeLKBPowXiIWi06FL3gAKSzi73o7WclA3J4F4sqsRB8Akc+AlgGK33Ihvh2QBBEPYIBMjgYWJTvK5MEC+iLgERCuk561kTAizQPlAXIFEkJD8nIwLx8EitQCMFQUwU3YN1gKAmaoYkpDoBCNRsoH3gyQhE7AOBmoCD+/QsE+OhgUKnhUVTRZixMOF72DYYQLctHG962KJw9IIIKgMuVrt4zy4fRvHKPzUuft+7zlaLc7n7xKf/TBrc9zYeepC0XMSsHX/qZ37mI+Vte7o/tQ9JuuG0AhuoAilA2EAnMz2Un04FOOcSVu/e4jWf+K1wcOrXIm+gipttCmkq7HkAuYt/T82OLcHrvzbuPvSOsP3wpOf18bYnyugrKlYijormwnZ9rElVXDU7i9OdOpaXl7GpwFGbquCxvImeBcAgNQAt2bRoJyRDsTCvX6kiJIk6CNRJIBUDB3c9ARKSvyVZEeJneh6NHhJ9o+AmcAIAQZgAgrNAYCR3WCcv0mPrYVECBCQjCwEGRsAgoS9QB4GkjbTPEqBKCfdgHSDQYyNAIYCHQFEjYiT9PCJdCvvmkCEg3MJ1jA2AwtPHUVdl9LdPoyDLmOr0McVLmG/a2CRz9G0fuirjIrmN91xoQ9bKLWZc+LthYdsXisUtcNrzb+Gd++8I+qdFmIU4X+Z0W85c8sds/NLPWtXLafKTfqUVSCvwYyqQAoT045FW4Dkq8PS3Pnv7ZP7kJyV/cYxHLhPafrHg0SKuQNInQ0nL+HHUN2K3IfHQxdB18Y4j44gVBScgYyZL67KMAi/j3de8HMfbS7jz8AMwWAczZR3fKVpoG7Eg+AklgzRSMiTixh9xEQS5bzRiICBAHATXTQBCmMQvr/8nPBHOjgwS9YPoEtZR8ZcAACAASURBVKx3FoR08dmJx6PRxug1RGYcQZWRH8JorCAim8Vqn3QNRBeB5I2aGDOAFAz0d039twoGYbaQgJXk5cn2RCpkyMDJDhkGZjoRqk+fQF1W0NhchT5wkD+2itrMNPqRhQkZsL0ApsSwBS184MIhZEWFpGQ9Sa+uSqqF2G1NhvYqGS4k3Q4iKpIXg5KPXbb5oWjTr7ysVqulRMX06k8rkAKE9DOQVuAnr8BX/urt+8aq3QOSTutpcpdOd+PxSHpII/eSJaPrRrCpVQ6GE70IfzucxKQEHIk5LrRieE6MflfH1bUq6l4fz3T62JIPMVZU8ZWiiYbFwHQKR0juzpP/Rvst7u6jRJGw3kUQcsdYjBeEioFGDAIg0FNjSKKRkEQdr8sfk45E0mFI/Ajo8QToJN9Fa0S8qfA/INLjejb0aLSQLPIJiVF0DkaESuF7IMiJo44CpSdSB0EAjREmENulYxnJNke+DiCJI40YmIntrgFrZRnzCNDJmcj1bBTbQxRkC33ksVkFVoY+5qhT4Q/xhskuilpClsxqEgyFoWOHiKhbIUYbSR2FaZLE4A2Uo4XKq168a+/tg5/8U5G+Mq3Axq9A2kHY+Oc4PcJzrMBnvvDefUdV/8CSKsPxANUGKrIEP/AAWRbcggkjFOZIXZ8W6Ah96FjwZFyscJyJgYvNEP1BgIUGw/aqhrrTQ89TsKsioVDUcFdOQbOgCXDASepIq7tYq0et+XUfhHWjJrHIQ3QOYoo+DhMFQyIb5IIYmJEN9OzOWcOjhJ8wIj6Ku/h1HkIkjiNBBevEyPU7/FHzYsRXFNsYNU+EYJE6BgQQ6OXyiKg4AgkgAuMIIAiQsa6UGKGehEuRABpETAAEmWUw4akwlpaxQnLGSgHcs1FybFwUF3CyGWGOh+hHgBZFmNRlNIIQeZUhR0Aty2DqwKm2B9+PoAuCJUM75lDyCiyDYbvLjr1k8sbde1OAcI5XRvryjV6BFCBs9DOcHt85V4DSHB82owNHdB3dIZDth5h02ui16pDHisBYGT6L4Hd7kNsDmIaGip7FwbaEC2WOBhi2GwFaPR95bRY3zM5iqVPHQ8vzmMj4yOZl/H1ORiNDCoARQJBHJkdihk+kPuoejBwOR0ZIGlfgukOQikGYJIUccRgJ8yF6jc4UOO7wbAeBbqSFqyJVhLaxzjkgLgAtpIJnMOIfiK6BcB4cjQLWuQyj7+JBDqbTGGHUeSAlA6kX6G+jMQMBD3JfFD6QI4BA3pNks3zWsZEAQsiAgOSQWWS7ASaeOo6uJKO9fRJaLoMZe4BNLkezJ6PXDzArAc0QKLMIXcOAw4Bq1MUgp8EbK8NrdyAvt1Au51HQivihEyGsKCjpHC9142O3ZPakAOGcr4x0Axu9AilA2OhnOD2+c67A577+kX0HLeXAopVDgxaapSYK9VMIKAZ5poDVrTX0GYcxv4jK0gBWxUQhV8WRoY6dUow2lzBt+HAoltnLY1ssoR84WJZCTJc5JJPjX7Iqmjq5KMZgKtksjwACLdwjR8OECEAze+oehGAxQ0xZDERSFDkGMcjmOekiJIZIwi8hWctHDovrvf7R7P/sCIM2TeOExGXxR86Jo07COnFAjBZkKCrlNHCEpFEUHYT1sQJLJI6ii0Azf5bsh/BDSAiXEpNEnkMY+Un3YNRBYIEKJmdQ6oYYO3EKi1IAZ2YCE6aJuaGNAuU4hBKWbQ3BIEBRluFHIVxdxkqni1o8RKucRX3rJMx6G8WFAZQJDZPFGTxixwiqKqpKhOsH3okXY3r3L9/6zt45fzjSDaQV2MAVSAHCBj656aGdnwp87qv79x0sGgdWc2UsBRG69RbUU08DjgM/n4G7YytcxFAWFlAduvAlGT1rClOqibHQw5mejVrcEXkBHXUKVTOD5UFXjChqigN5ooRHx/LoaRG4nNgti9AmWnjFiEFoFEd2yM/iIAhHxUTFcNZ+WXgbUK6BCF0YERJH8wGhbBg9/uzSjPgEyYQh4SgIrgJta/2xdb6CaASMxh6EXchJEdFZNYNQXhAwEIoGUjGQ6ZMyCoJaBxujTgaRKGk/YwYWy2AxRTgqmEYGSmMFC0oEOZ9DLQiw2fVEjLUWMwS2jH4PyILDiSO4CsPJfg/TUh/NXAZOrYZBsw6l10c+a2FzaRaHAw6vpKOkRLipMzyxh6UA4fxcHelWNnIFUoCwkc9uemznpQJ/83cf3DdfVA908lm04wgNSnNcXkbY6iLKZKDlcwh5jHajgwHlJmUrGM+UMBt7ONZzUAxs5CjeOQyxohYwPjuHM6018GYHUxkJvFbA8YkiBiRxpJAmle7SCSgkagBhSTxamMVdvqA5kKyRiIlBEnYkchlCYbcsVAHCLXGUzCisl4XTY5LwKPCGYO0lRMX1MCVhwjR6fCRtXFdsnB1vrMsW10GL2L9QAAUheSQeApEVCSDQd3of6i6I96Mxxo8CHxLDJzpUGRAAQYUiZ1AZRDCefgZ9P4C9YwIly0CO0ic7HRgdF7qWRxiYyIGj7/tgloqDmoaM04Ehc1imhSjwEQ76UEsFKJYFrjGRE5HjwJVN58R2c0vaQTgvV0e6kY1cgRQgbOSzmx7beanAt+98777Nk+0Dqhohivwkx0BkOJLcUagNeBRFvBXE0gOuhYe0GQxCHSeGPsYKWRQUF/KgC8318HSDY3ZqFrbvY35hHsUSoOd09It5tAtZOBoDl0edBLr7pkV23choXSJIJkkjkyECBT9yI0yiocW4QZAZRyoFQV6k8QMBhHWzIxF2KGKkk0VcEdHSAokIO2biBRBYSGSQYjEfpUuKcQG9jsYf1OUQYIHyGEbuiQQaGIckRgy0/XVAQsqFhMOQxDuPOghcgsI15GFhPNKgdtqonz6OKIzgzFZgFXKQwwB8cQnW6QGUUhGyVkFVYlh0fGzNcLAssFdq4lLDhwmKckwyHwiYMEkRioyEByHDc40TZ3ozu2/95TvSEcN5uULSjWzUCqQAYaOe2fS4zlsFHvzi/ps2lRof0bXwMsRDa/2um+62IeU6MbRHOY97QLhVgn3BaZcbH1vKYdUoYa6kYqgBV+e2Yqcxib99/EFUbQW37bkOn/j+P+AkGsjbLsyiCW3TDJ6xVDgahTYBZBUoZIQSgyyrPzIvIhdCOjoxTgBiz0uAwbqKgboJpP3ngBJxKGGMKAxA0wsiMcY8hkKLuCQjlmXElJOgagJ0rEsflZhDog4FdRSoKxEGkCQJMj2f/ARkCZEqI9aUETshARBCtUB/G40fGO23YE0mp0N0EkQolCoMm1jEoDENk3Ie1UBCtLCAtVYTK3mGQAHyuRwqNKKII7TbTRQ9DiXQIYUWJiSGZ9wAr9V7eNNMn1eypX7EjZM8in0p8rbKklNOmiWJhJNTEhazTrtR9p6l/PW/vmfPbakPwnm7StINbcQKpABhI57V9JjOawXuu+vj5pYx+0Wq1Pt1Ga03MnimuD9lWS+Qpj8EtfQPA5bpmc7KxRJrfkCKl1725cVQ/Wt/ErWSBCdjYndmO67Kb8PfPPMA4tMd7N2+C99qHMX36sdgeR7UUg5KpYKOrsCzOJglgRmyGDOUZA1zbozYcxDSxJ8TOXDUESA+YhgmAU0ECtaNkugvEcecNYUZtYQ48pBhMlx7KBQEppmFy0MMY44Wc3DaXkNE4wuKVYgZLijMIg8diDwYsg5F0oSHAOIAPbsPxcriuLeGJb+DUMwsAE7SzPVxhSBXJnfw1Kug9xQ/U3ATPZ/ACXlJKBokxUBJzqIbBWgcOQSv68DbMgF5vIoJ10bNtkU3oEMNCwI8rgqvwzHGY6z+n9p9bGoNLxovt7h10Sc8lL8VDV0vHpy52tDa79XU4eYEmVDHo/RQhNonfX38u1NXvGmBMUIu6VdagbQC/14FUoCQfjbSCjyPCuzfv196+8vNl8jxyp9LvHUJMfOZuePeYe0Vr6jV9og7Uc73S6uPXfgGrf+tT6711irvXJzC2JiJXl5H1I9gNT2sWhJ8OQdpyMlVGHY4BPMDKORCKEvIULefcIEpIaYOgswwLmsY67bFXbxPd8IsMU2MQH4HI6dA6iCMIpppMSWlAIGFC6xt2J7ZjKxhYCpXgNPtiMVWsXJwYxttz8XJYAWP158UnQXqIhhQccX4ZRhHHnlTQ7UwASaZAgTEoYN6exGSkccPGo/iePc0IkY0xUT5MIp6SoyJRj4LBAiS7IaRzbIkwVdV9FUVXV1H4McgpWajksewtQz0+5DGxlEsFrGj28GUbQuuwlCRQfoHx1XQ7HBUESPj9fBHlwyg5nd/KS6+8i3rOQtH/+mfdE197Hfy2rH9VClJzQ2ZNv1fcpVr/4TN7aVg6fQrrUBageeoQAoQ0o9IWoHnWYGlHxzYqccn/qcULb2M5tpK8YrPZXf9xpuf/fLmqUevZUuf/WLgLNTecWwC1piJpYyEVrODXDtAv2ygN7cJoc0Rtjwwz4cGSUwUaOYvR7HwHCLqYKQBcUFHicW4qNtCXgJ0iUHh1P6n2UIMWZIR0KhDeAuQIIC+J14HNO7fnNuBmcJW+J6NzeUJxGGAOIoRSwrc0EYoSVhw53Gs8XTi1EijBSjYOX4ZCjwPlcWYGpuFphElMIY97KDRXoKRr+Bw/TEs9edHfIcRQOAcCmPiGITWgfaH83UfJDiMYajK6FgGVnQNDVmB1hwgqvfQm6tBHhtH0GvCZBImJAkz/TYmXFdszxsFTvVcFWs9JjgIk14d+3dHUIs/84HsJb/xR88+F6e/9xfX5fHYPTx2oOjFFSW39T3Wrnf/7fM83enT0gq84CuQAoQX/EcgLcDzqQDnnA2O3nV91Hv609w+sV204ssvPpJ50TtfxBijFVp8NQ/9v/9Jde75w8XFk6WPdi9ApshwUuc4bvcRuR78bB5yrQbD9ZAZhggCQAo5jDBGNoxgyQpMzRRt++XWKvqRg14lh4JpIE+hRgwwohAygQNamsWCTpEMHBHJE0X2ALX7ZUQxRykyoPU9LDUXoCka+nKSIzHpy5BjjsmJWdgm0OJD0QkQy3oMlGMTcW+AZrcOSdagWlnBcQgGXURRiNmpLbAzDD3JGxEZk4AFiQKcRiGPGo0RJEl4IPnUNZBluJwhYDIsHmHYbaMra+jqQNDvQZmaglKuIjp+ApmWD3Mqgx26gqoXCFBEAEhlMvqugsZARokiIPpNfPwKB3rl6j/N7vpRmiPty8p3P/JGU174fBTYkNWsK2enPpg5svMT7PbbR45Tz+fMp89JK/DCrUAKEF645z498udZgaWH/9EqjSkvjp0zHwo7j788cjtJ0rGWg1LY8xkuGX+SyWc7TiBdFfcPf8htH770i8d89nBmO0x9gFVNwrxpYEljCI0MMLQx9swZZH0GfUsZYyrDjO9ijMyPmIKeLGElApbOtOF0AnSmcujOTCCUGUKFlACBuJsXhkZBAO77gsiYkAmTbSSmSiNzJFIw+H4S6kRERJIbUrtfVsE0DUzVEr8C8j4Ig1FVkp+5YydGTCMOAcggiUiDqp6QEYWCIel4iBGHEAooIqhJvA+RFlVN/KypFnKxgvGeB9tuImw0hdmTPp3DlCojb2bQRYjVoyeh6SV0yibGdBOZIEqknQqpHSTAJR8EhnEeYskJ8Fu5k7hix8yipk3si3Q8mDdrkT10t/Ow+Rm/c/RSyqOQFQOyPvYE06p3DOXp709c+qY6ExKU9CutQFqBf68CKUBIPxtpBZ6jAqfu+9vXlTNLf8HtExOR3xnFFCdOh0zNR7IxscL0bJcHvalBb774xFrAvjSYQLGoweY9DGUZddPEmVwGTU1H0FjD9OIadssqLi4BL9YdbJKpe5DI//w4wKof43vNGI8HFp4plBAyHVyW0ckYcGWOMPTAKR9ZjAVInpAoDs7mLYhoZjqwESuAwARJHIVscZT4SKCAvAvWkymFidJ66MLon4Y4hkJ3/bTtddAxylVYz1cgTkQSHT0CCBT8RCRFsX0Vqp5BXs9iWrIgtRpoHXoGcjWHmj7EjUqEKwsSagaFLKkIwgDLfQenYw0/1PM4TuTFYQyn5SCslQWPIdePEDgqyuL4gfKwjV/d5MVzFWvR1HPfl1TD5nFwfeS2dkS+LVHHRCLlhSRxSck1fHnzt1czr3rLrl270rCm9OpPK/BjKpAChPTjkVbgOSrw9c+9a1+50DgAiRZYuktfD0GmFxL5LslAsrmCM4GJg3wMoaWBRx0EiOApCjqajqahY8U0EXhDXL96Er8gDbGbAoQUugxVzpkhbu8ZfIkhQN/3cMwO8U9BHt+pa2AZA5isYsgY2txDSNkMJEMUpkkU1jSKdxaTgkTVQKu68CxYj1YW35P9TvIYRgFN1AEYAY2ku0CsCAIsEkymwA6cUaYDERmTmOaziEG81yiCehSrnEQrKzD1LMbMEiZiGWq9hYbfBW+t4aoM8MszKrZnFEE8jLnMhQEEApnFHototBIDj/gGvt6UcKgOuNsmRTBVrm2jVCij48iYCjzkJQZ12ME1ZRdbzBimxIUkU+gnhH10YtJEuynLEjxXP9PKXHf5zTfva6Uf/rQCaQX+/QqkACH9dKQVeI4K3PmF3953VOkcWFEYPBcwPAkVTRMLdESAIYqhUutdz2CgGRgoERwMIfOEJzCUJHT9AMMwwqCUx1XxEG8Ll7FVCSBBHfDYuJdL+r1gmbVQMnKQ9T1S1L9O4fUaY7Z0pu/hr1YkPJCZBJcN6FEEp5hFQ5Xhxn7iVUAmR2RstB4FLdwLaeFeX8dHYGE9snlkgCQWehGmRBgjGD1/BBDWG/DRKGZaeBhQt4KA0igJcuQwkHAfkhcwRYOsW8gYWWzS86hyCX6/jcbCEopqjNeUhnhJlmE2a/iItaeiSLmHc/0EKGEh9LMIw2slybtR04KqzyM82onwqUERB6dnoQxcYDjAeLmM8cBEc6mPmu8gL8s4GQbQVMCSORRJEmTJiEYxYtTBYWRkWCowa8dn5sp7Lr89BQjptZ9W4MdWIAUI6QckrcBzVOCv7t6/71E1OHBYkWAPGSZcBdOyh057FbGuAbkMNMMQhLxBpwW72cGwbMAaG6P0Zgx9D8FCE2jbGJ/O4AMVBxfrxCHQm2GY+Uvble+Uy9tPzVz7bvfw4cNqMXpmHG7jMrhrv2HEx39WYh39zNDHnYMsvtk3YSoqpPESZM3EQhzCZkHCF/CJY0D+CNSIEFnRyZ3+2W7CqHOwHvNMskaSH4oFlKYP1JEgR0Q10VoKK+R1iWKSv0DdA3ov8Q8HTSTWjY9GzoUS7Zuio2wVsdUqo+h46J06hRUtwiC28SZ1gDdvMpFVpDCOs1+JQum/u7F6bKV4ae+KK94aPvKXf6lY2YM13XRuMXT3A6ZpzxEQ++ZQx3+vXAI/ADrBAJZlYpsfo9oFTi72Me05MC0dj0s6+hJDMSBOxxCBZuK0bMFXGLIlGUU9xtXD4My1wczlt9/+nrSDkF79aQXSEUP6GUgr8JNXgADCIYsdeNIwMXAYqsMIWuMYBicbYEUT/oVTkC0Lg8BDvLSGfCNEu8QQbptBTlLQdW0Eq01MeMDP6x384owMWTb8mE18doCJ39700t8h1uO/Icxxfpe8eDA7hd4P/0cmPvRaDld5tOvit5ZkLJTGYY2PY7behSmpOFXIohN5iImXQCRDWuiFBfQoupk6BKPMheSxdX4CAQSxyo+4B8lrzo4kRpbSSXATCTWIuJhkQCSIgp6+3soXvQPIWgZlq4CdWhYVDhzpLAP1Fnq6gm1ZH79bdDFnEG4p3RtJ1hsq13586f9GFnz4Hz9sZYLefyxmmx82tH7NiSL8V3sM97UV2LaP/gXjyGgKtraHmAotnKy7KNoDyBkDB0NgctgBazRRquVwIjeDNUOBUdVR1mNc33MWr+YTl7/xtvc1fvJPRfrKtAIbvwJpB2Hjn+P0CM+xAp+7+yP7DubkA0esHNZ8jmLPRXT6IGTHQWQYcKaqUM0M3MBDv74MLYzQz2VQHh+HwRjImqgx6GG2N8Cf5fvYntMg6RNPh/oV+8q733zvj9u9E/d+fnPGvf9rhr62q+kH+KSbxRfzW6C6HqYOrSBjSAg3jaOtqFgObMShLxZ9HnqJu6Fo+SdWw0RQJPVDMpMnNUSi9lsnGyYtgqTjIAKfnkVYTNQRyd/Fc9bTIul3yqRQdaiqiZlMBXOKBa1Zx9Kwj+PjJnpnjsJSVbxjTMGvFoGMYiIyLnttafd7/uHHHfv99/91fqL14CfyZv2XGYbyfe0IdzQL8PQsGuMF6J6D6pMrqJVMVMdmcGhliIoco6tIqK+tomZKsKMYy+VpBCULUsVAUeG4qWMvXhNVUoBwjtdF+vKNX4EUIGz8c5we4TlW4M6/++C+hap2YDVroR5F6Ls+hqvLCFbXIKsarEoV5PEXxhwdxxEOiFolB0siR0OGgaaipyi4ZtjC72kryMlqBPOCu3qTN79ldvYlxP77sV+L/3LHW3LWsb/yIw9f9Q18XJrGyvIZmAMXVqkKQ9dRHQTo5jKoqxLc0Efk2QmhUpAGSdaYpCgK0p6QOdLDQcI/ECOIZMQgugcCNYwinUXIUwwma8kIg0YQQrZAyZPq2WjpXLaEaS2HTUxB6A/QXl2D23dxejYvLJ1nVI4PZYe4UXUhW9s63bHX1J7PsR/75z/41YJ+5A8VtCeWgxj7+uM4yQzAtID2GmYcoBRHKGWLaPka8ixEXuNY5BH6wyG4qkKulMB0RaQ+ZsBxZXO4uHNYu/yNb0w7CM/12Usff2FXIAUIL+zznx7986jA1z/z9n0TNfuAbBAPMBQ3z8KNMPBBdv5ka0wOhs2I4XFHxWNeDq6qIGsw2IaKtiLDZwyvDtp4q9mBISkeL1z1R4VL3/Wh5/H2WLrnU5ss3H+Kw2bf7fj4RKeMo2EIW+eQy1WUG12UOwGMqTK8bA71KEQ3dATpkEBAMlGgwKSR2yElLBJXQeQmiEjHpHlARkv02Lr6QcRFk0oiMVcSYVBnsx6IBKlAklTkjTx2ZCqouC7sxSXUNY5VPULQ7aCv6ZAd4OJMhP2TAS63JMjZF30/d9n+G57PsZ+6929elgnuPaBibWsn9PDecA4/aNqI+g7iogYjjjHjMmxnEl5sOrjE9FFgAdyYifMEkeRIYEaCpND+MmAoLzZXt1x+29s+nI4Yns9JSJ/zgq1AChBesKc+PfDnW4H7//6O12zOr/yxrjhbGAtk0ZIX/oUxoogPolg7yGTdB8KL/LA7cX9PYp9vF2DkTNhZBUutDrgf4bXFEP+p4kGXVE+qXP/fchf/P7//fPbh9Nf+a6lYPl6Pw7b8vYaNT65YOKaZ8LZMA6qC8KknkNGzyFbHUB7SYi6jU8hhLfYRhYlXQhz7Z30KElOk9XdOsh1G2kdQxkQCEEQbIYl5FqBgxFUQ8UYJOCC+QVXLYIuSQcl20bSbaDeasFUJa1UTAelBSfDQaOGKgob94zF2WTKU3EVfy1zy4duez7EvPPnNV5mdb/6Z5J/c3Atc/GdvBvf2HcALYVSrGOc6tq418NZyJ7okG55SmHwwimQDTLlSU+NKHEck2hyBIJI96i0vNr93uHXZm19++9u6z2cf0uekFXihViAFCC/UM58e9/OuwMPf/pvqVPjk5Zrc/gVJGv5HiQWZxDtQGkSh/n4vytwfq2OhrKhXKbz5Hh7NX/yVFc6+GI1DzQGttbawU76mGOP9ky4yihbKpSv+Zll/0Vt37LjVe64dWbvnwy81tcXv+W6LfXP4/7d3LjByVtcd/997v8e8Z/Ztr9ePNcYY21AeDqVVSZPQCIXSIAUFRRGVmpI0bZUgojRNxSMIEhqIElQJRSFILRV9qAoqUkUVFRECSQlNeakB8wgG2+v1rr0P7+zsvL7HfbTnm3UaqQ0BCWcGc8ZarbUzc+/9fnd27/+795z/Ae5sljFHoQIbpzLHwvTYEUg/j4IFJhY6KOYCmNFhaD/EkTRCrCm7Ie0dM2QGSnRk0Kux2Is0/N8gxcy/ICuutB6PsL5jQEGKvbLJdCQRwFc+JnM1nBWUYBrLaM0tYDEwWPRSdClYcuMkZKXcc29sNnGOL3BjuIILAg2vcuarxeQje8W+fSdtG38hgqWXHv6c33z0Ztd9faiepvjjuTJeRAg9UsJEoYLhxQ6uswdwycbgJwHUF7ut8NW2zvleWH6/53e/kvdOjPbsHSn4svZqasp3G5P//oZL9/xUCLZc/mWfPX7+3U2ABcK7e/756t8kAarFMPfw58/Nha1vKNm5tHcuX/27WtP7lLj87myRn33yO3m/HN4crn73uuNrx4rXn9iKuOpjTrcRWYs9lTzu9ufJWtl5xc1Pm9w511R3f+LAGw3hmWee8XfKh+5x0Wt/2Ek6+JdmiPv0KOYLOZhqBSLMwXZamR2yWToO1WgiGBpGoTaCDVQimlIhqayzo52EXgpklp9IQuHk13p8QmaMRPEI9KAszCztseef4HSvFDScgh8UMBWWMW0E0m4TMzKGObGKRDosV3rpnjLMQVYqcI0GvNkT2Kwsrp+IcGlZI1eY0N7QJZfntn/8kTe69qWlpbK38K93y+bT19j4mDrQFfjUbIC28RFPVDFdrGHT4WO464zjCMPaZ4Z+a8e3hLg12+N45qFvF2ol+9c1+8THlKLjlZwR3vg3jDrn9pGLr1l7k9POL2MC72oCLBDe1dPPF/9WCBx67JZaTS7dCjSvo0UzKG/9k+IFX77n59tYWZi5Rhy8+6+S7sGRzx6dxOJQAUdHy+gogZJOcFf3CC4JuxAy11TlnXcV4stu/0V30iRKmi/fd62Mnv+Gbs9WFmKHb804PDXvcGJDBa3d0zBkn3x4FjL1YCaHIHJBdsOcW6hjaL6L0S1DkOUqjjqLE6YLe3IngYyUKCCRvv9MKJwMTCTDpXXHxSzggrIibHZcEEgf2/ND2EJVGej9lQAADhZJREFUGefmMH90AQtnb0TbdmDTGKo6gvTlo3BSI3fe2bD1FRSP1VEtFnDlKHBtNUJNOajaeS+k8owra7uuPvT/zYFzTtb3P3S5Sp66y7VfPdOYCPfHI/i6PwYdxaj6AXbFHqbnZnDbOV0E4dgl+X33PvHzbc0fePaGYPae26VoQoXDayKc/ELlwpvufStzzq9lAu9mAiwQ3s2zz9f+lgisPHPHFpXO3mmTxsdoZz6o7ri3YDZ+Ruz7dLZV7pwLVo88d4Nc/Ic/q9dnired2IZmXuDFksLaagNotHBFWeKm8QglqtfsD8+q3NQd3XTkwcbQdH3Hjg8l5AlAiyOWHih066sfdNHM13Xr4HZtYvwwDnHHWglR18BWa6iPj0CnMbzXDqEo82hOjkMODcOs1ZHOHkEhURjZOIaNnoda7PC6NVhCCqEEpO/BUvKCUjBUwJGOHOivAfkcCAmfij47CZfq7AvaIBQBdgRlbFYKM2kDxxp15FODw0igJycgCnmY+grM8eOAFyCYns4CJW2jAVXMY/f/9PMleRy/FqRQKm9QOPNhITd9oTQ8dhg/LSUPLC25sbExsWdsKZfzcZ6Ij3zZtl95r01W5JGmweePethfHUY4MYYtqcGZawm8hSX85TltFGqbrs+vjHxTvP/WrLKmc/OFpQOH7g8W77/K6RakX9Iyt+H20vhld4o3kTnylj4Y/GImcJoSYIFwmk4sX9bbR2B29sn8qJ6ZcGuvXqnb81/U8epGiur382Nt+KN/avM7f2yLm41C8h60D9yQrvz73u/NtcW/xVOoBAb7pUZ7oQ7Uu8iN5vHJTT4+UGwj5ykIr9qR4abHRVD7LmD2KyUi6fSQtdH7bLrycdNdmtK6I15ZM/h2ZxhPjG1CNwwhUw0ZxbCFAtKoBdeJIVUIWR2C8D2Y5UX4icNZ1TFcGo5jgu7+VYi6A4r5PHwp0Eg6WIkiHLENzKTLSJ3NQi8pZXNPcTOmZQ2eSRF6fuauWAkKKENivrWA/+os4z/SZSy1V9H1BdT4RBbQ6NaaPU/FYjErF02ZEZRmSB7VpbUWPuzFuLayhsmA3B4LRoZTLwt/+J+VV35Ju1xXuCgvhN5nk+WPuO7MGVY30dICfzsv8Mi8RUNKlDaPYqfnYzqyOJhY/EFpBudvmXhN5Kb+HLldL4n8tOecvtw2XrgR9f+snvR+ELkNLyK3/Wu2svuHjzy9NHs1l31++35JuKXTkgALhNNyWvmi3k4CL3//by7bUDz4SWXrl5i4Pg6nswLHEAoyqNThDz8ngmoshdkbNQ9NvVI/Ie+LK2jqPEbhsKgE6q0mdKIRlIqYzof4DdXALtXBlsChmCtCBZXECX9ZQHQF0rLVrWFnYi8xBgc7Kf7xUIJnGh6OTU8gmdyI4vFFBIcX0ZmoINm+FXJhGcGxVUSjNbhyHmp2AaUusGt8Eh+q7kKNKkdO70AuKGZxBqmO0equ4rXFeRxKF3CgNQOzXp/BM8De2lmY9McxnC9ganQjPC+XxTKmaYTDi4dxsNPADxoHcHh2FnMjCm7zJFQngjdzHM5XiCdHUZhZgE0dou3jCBpNlBfXMFrL4fIRD79bamEssFDSg1QlI4JKFyJMnYl84aKiSVZFK4owq338JCnhsSiH5bVWVkSqUiphHGSnrHHQk9hqG/j9WtdO1YaP++HEK/CHc9DRXtt+veIoQJMEC30gZOBEODGv5YbH5+Ndnz33kivqb+fnhNtiAqcbARYIp9uM8vW87QSefOBLN4/5B27zZTdLGexVOyYnQjIdou4ErJDoxDGOG4EfeTW8QG6BmU+Ah1RKJBaIjYYKAvjaIjQam3SEc0WEfTmNTfms9mCWG0H/KKuwlSoc7vr4cRLguaUGul2LxmgFbmQE4eIygsU1RJUAYts0sLoKtdRAp1qCKxbg5pcQaIedY1tw8dAuJM01TI9vQqU6CulJtJtraLSWsUK7CKKBudYcrKR4A2QZF5vL21CyJUijsWF4A8ql4ex6O601LDeXkORCPLv8AuaPH8WJskQwtRlemsCbW4BWEunEKMKVRpYN0R2tQjTbyK+2UCznsKVcxPkuws6gjU1lgyKFTWTJFb30Sgp7OBIJPB37eMkWMS9CJMqDJRdIOHhCIqBCWNZCSwtfSuzr1vHruoGxvEI+DCAoE4NMncijYt1OmggL6SHSheUV+57zL77quqNv+4eFG2QCpxEBFgin0WTypZwaAo/+01/c6JrPfwWIYehM3ZCvgMvMklyWAdArbkhmSUkYoF0qIlG93HsnJYwTcELBOJdZCjgnEEFgPihjJl/FmE0xZVP4ie61LSViJ9BKgDpC1GWAVR1lOxAyn4engmzL3kURRBBmGQNWa2iKF/BDwFPQnQ48bVFDiILz0W6tQVoHFQZwHr29jdSlQJiDq+YR+1TBkYIRAKE18pT00Oqi027Bkz7yYTF7v0h61+uXSliTMVpxG0EQwsvle46LaZxlR4hcHoYqTJLcCXPZ7gQ9l5cKBSkRpClKLsWQZ1AO6FjDQFgD60mkQYB5SKwZ4MykgzETwRdZPCWEcBB0bNGrDNHL2nQOQZyi2GrD1yZ7rlfemt7T+xOXGSVJBSko9qK0Ojr14QsvuuLag6fmE8OtMoHTgwALhNNjHvkqTiGB7z1w0xW2tf/BINQ+CYQ0TWDovB3rNsR0X5udOEgIT2R36JllAG0vZEWSBCyJBPqiZU1IxNLH/nAIPyiNoQmBVFNblDBAwsNki7vQFkYoaOUhIqFBt9nGoio9OOMQGYOUnA7prhoKHu1WUJwhlX/Wmu6XAZ1CxxFMQoWcElhKXZQGoDEGAURWpppEhd/LZsiKMBkgSWDjJPMxyOwSaHyphlIBhBf+7L3kVCizO3MyIaJx9EQTZUhYRZcvswDIrB9qyBhIZ+EZA1/0dgRUllEhs++psPAEZUs4bLQpfjtaxda0Dc8ZSOGg1lMyyfyoR3a9xoRx2XGG1QSxVy/i5E4P7Rwo1dvNofjPxJQO7TzvmovO2vd77KR4Cn9vuOl3PgEWCO/8OeQrOMUEHnvsFk/Pv/7VwGt+Wgmbc0KTB7GytMVNuwiZ2VCv9DEtsr20wfVjiOyJ3uFBTzDQvbJCLJR7wR9yj+drbo1EgAOStHdnbHQKSVvkJBKcyBb+lrXZMYYwDoryHODQJr2QWAwJkfksRNrAUB9Skp1R1kY3Jcng4KzOshdotNlCTVkUtDiHecAPej+nDIpUZ+OnHhSJFWqT2qAikCSKMkNFT1DAI+0KUFhjtmbTmCltUpD2EPBodQ68LEOCWKjsDl5AOCvoaEBlY1j3aBICcl0g0BhpfAXhMGUd3ps0xJa0KUlMkDjoxRP0YgromCc7kjm5m5OlZPZMnjL3xEw8ZCKFHKKcEEoniVcPa2ff9TtXffVrp/hjw80zgXc8ARYI7/gp5Av4VRB46KE/KniL9Qusi7YoIS4UKv6AkGYzhMopX7bgkmXavxZCVWi5FFJoKtJA1Q3I9MA5EboszECZ2ATLkSu8ekQWDj0v/KjpHN3YZ2bIyklr0tjRYm3o52SGAOGiJKJF1tKuvRDCGmOcdcIZa0inQJNoENLabG0XrgtNi77VUmVtpcI5Gyh6igoqwCjhclI4P/BdLIWjfuiQn7IdlZRZ276zLk2s61BRJ+1EyQiZGC2ldUo6KaSmDX8nfSGESLWUQopQCaGsk4Gxslguyw7tXkBLJZUUnpRKCEnaRK3/n56j1VxJJTzlydCT0kALanNCqnCvjceG0rUdpcAOSeFyhEgQVtqPEcKK9VMbS4EG2jlrnBWQVqrQ6jSxQnqxTdGEw36TxD/yZOmp3dsuOnzm5df9UgfLX8XnivtgAoNMgAXCIM8Oj20gCdxyyy3ynC1Htolk5YNhobxpeHzi5VR2n7BRHGqTnKuEbQRBqZHKNOeJXKkbdbemzm2ENYGOTMf444/u3P2bz+7dezVpAn68AQHyhHjw7z830e4snCHCYFIhV1SeTI12iVJeksTdtFgoJVHUSVrNZmqbaaLCYlId3hDnfdH1xydaZ4VDnW3v+0ScnfbwgwkwgTdNgAXCm0bFL2QC/4eA+M5HPyqvfuAB8i9+wweJij17XhIvvrjb3Xprzw6YH0yACTCBQSbAAmGQZ4fHxgSYABNgAkygTwRYIPQJPHfLBJgAE2ACTGCQCbBAGOTZ4bExASbABJgAE+gTARYIfQLP3TIBJsAEmAATGGQCLBAGeXZ4bEyACTABJsAE+kSABUKfwHO3TIAJMAEmwAQGmQALhEGeHR4bE2ACTIAJMIE+EWCB0Cfw3C0TYAJMgAkwgUEmwAJhkGeHx8YEmAATYAJMoE8EWCD0CTx3ywSYABNgAkxgkAmwQBjk2eGxMQEmwASYABPoEwEWCH0Cz90yASbABJgAExhkAiwQBnl2eGxMgAkwASbABPpEgAVCn8Bzt0yACTABJsAEBpkAC4RBnh0eGxNgAkyACTCBPhFggdAn8NwtE2ACTIAJMIFBJsACYZBnh8fGBJgAE2ACTKBPBFgg9Ak8d8sEmAATYAJMYJAJsEAY5NnhsTEBJsAEmAAT6BMBFgh9As/dMgEmwASYABMYZAIsEAZ5dnhsTIAJMAEmwAT6RIAFQp/Ac7dMgAkwASbABAaZAAuEQZ4dHhsTYAJMgAkwgT4RYIHQJ/DcLRNgAkyACTCBQSbAAmGQZ4fHxgSYABNgAkygTwRYIPQJPHfLBJgAE2ACTGCQCbBAGOTZ4bExASbABJgAE+gTARYIfQLP3TIBJsAEmAATGGQCLBAGeXZ4bEyACTABJsAE+kTgvwHxKx1RkqXeeAAAAABJRU5ErkJggg==;" vertex="1" parent="1">
                    <mxGeometry x="128" y="241.29" width="137" height="91.42" as="geometry"/>
                </mxCell>
            </root>
        </mxGraphModel>
    </diagram>
</mxfile>